;Layer: Drill PTH
;EasyEDA v6.1.41, Thu, 16 May 2019 15:27:20 GMT
;2d326a8386664dfebb0799a9ee8975a2,41c397309db345c68939c290f9bc7d8a,10
;Gerber Generator version 0.2
M48
METRIC,LZ,000.000
;Holesize 1 = 0.701 METRIC
T01C0.701
;Holesize 2 = 0.813 METRIC
T02C0.813
;Holesize 3 = 0.889 METRIC
T03C0.889
;Holesize 4 = 0.915 METRIC
T04C0.915
;Holesize 5 = 0.951 METRIC
T05C0.951
;Holesize 6 = 1.000 METRIC
T06C1.000
%
G05
G90
T01
X+023876Y+020358
X+022606Y+020358
X+021336Y+020358
X+017018Y+020358
X+015748Y+020358
X+014478Y+020358
X+030734Y+020358
X+029464Y+020358
X+028194Y+020358
T02
X+004191Y+023660
X+006731Y+023660
X+018796Y+005880
X+018796Y+008420
X+011811Y+005880
X+011811Y+008420
X+026289Y+005753
X+026289Y+008293
X+034417Y+005880
X+034417Y+008420
T03
X+037297Y+019215
X+037297Y+021755
X+037297Y+024295
X+037297Y+026835
T04
X+025273Y+025692
X+022733Y+025692
X+020193Y+025692
X+017653Y+025692
X+015113Y+025692
X+025781Y+012611
X+018161Y+012611
X+019304Y+016167
X+011684Y+016167
X+030861Y+016167
X+023241Y+016167
X+025273Y+036487
X+017653Y+036487
X+022733Y+041186
X+015113Y+041186
X+028956Y+012611
X+036576Y+012611
T05
X+027813Y+025692
X+030353Y+025692
T06
X+006731Y+031280
X+004191Y+031280
M30
