G04 Layer: TopSolderMaskLayer*
G04 EasyEDA v6.1.41, Thu, 16 May 2019 15:27:20 GMT*
G04 2d326a8386664dfebb0799a9ee8975a2,41c397309db345c68939c290f9bc7d8a,10*
G04 Gerber Generator version 0.2*
G04 Scale: 100 percent, Rotated: No, Reflected: No *
G04 Dimensions in millimeters *
G04 leading zeros omitted , absolute positions ,3 integer and 3 decimal *
%FSLAX33Y33*%
%MOMM*%
G90*
G71D02*

%ADD25C,1.727200*%
%ADD26C,1.203198*%
%ADD29C,1.778000*%
%ADD30C,1.803197*%
%ADD31C,2.082800*%
%ADD32C,1.854200*%

%LPD*%
G54D25*
G01X25273Y25692D02*
G01X25273Y25692D01*
G01X22733Y25692D02*
G01X22733Y25692D01*
G01X20193Y25692D02*
G01X20193Y25692D01*
G01X17653Y25692D02*
G01X17653Y25692D01*
G01X15113Y25692D02*
G01X15113Y25692D01*
G54D26*
G01X23876Y19858D02*
G01X23876Y20858D01*
G01X22606Y19858D02*
G01X22606Y20858D01*
G01X21336Y19858D02*
G01X21336Y20858D01*
G01X17018Y19858D02*
G01X17018Y20858D01*
G01X15748Y19858D02*
G01X15748Y20858D01*
G01X14478Y19858D02*
G01X14478Y20858D01*
G01X30734Y19858D02*
G01X30734Y20858D01*
G01X29464Y19858D02*
G01X29464Y20858D01*
G01X28194Y19858D02*
G01X28194Y20858D01*
G54D25*
G01X27813Y25692D03*
G36*
G01X29489Y24828D02*
G01X29489Y26555D01*
G01X31216Y26555D01*
G01X31216Y24828D01*
G01X29489Y24828D01*
G37*
G36*
G01X36408Y18326D02*
G01X36408Y20104D01*
G01X38186Y20104D01*
G01X38186Y18326D01*
G01X36408Y18326D01*
G37*
G54D29*
G01X37297Y21755D03*
G01X37297Y24295D03*
G01X37297Y26835D03*
G54D30*
G01X4191Y23660D03*
G01X6731Y23660D03*
G01X6731Y31280D03*
G01X4191Y31280D03*
G54D31*
G01X18796Y5880D03*
G01X18796Y8420D03*
G01X11811Y5880D03*
G01X11811Y8420D03*
G54D32*
G01X25781Y12611D03*
G01X18161Y12611D03*
G01X19304Y16167D03*
G01X11684Y16167D03*
G54D31*
G01X26289Y5753D03*
G01X26289Y8293D03*
G54D32*
G01X30861Y16167D03*
G01X23241Y16167D03*
G01X25273Y36487D03*
G01X17653Y36487D03*
G01X22733Y41186D03*
G01X15113Y41186D03*
G54D31*
G01X34417Y5880D03*
G01X34417Y8420D03*
G54D32*
G01X28956Y12611D03*
G01X36576Y12611D03*
M00*
M02*
