G04 Layer: TopSilkLayer*
G04 EasyEDA v6.1.41, Thu, 16 May 2019 15:27:20 GMT*
G04 2d326a8386664dfebb0799a9ee8975a2,41c397309db345c68939c290f9bc7d8a,10*
G04 Gerber Generator version 0.2*
G04 Scale: 100 percent, Rotated: No, Reflected: No *
G04 Dimensions in millimeters *
G04 leading zeros omitted , absolute positions ,3 integer and 3 decimal *
%FSLAX33Y33*%
%MOMM*%
G90*
G71D02*

%ADD10C,0.254000*%
%ADD20C,0.203200*%
%ADD21C,0.202999*%
%ADD22C,0.350012*%
%ADD23C,0.152400*%

%LPD*%

%LPD*%
G36*
G01X29696Y52259D02*
G01X29642Y52260D01*
G01X29582Y52259D01*
G01X29518Y52259D01*
G01X29451Y52257D01*
G01X29381Y52255D01*
G01X29309Y52253D01*
G01X29163Y52247D01*
G01X29092Y52243D01*
G01X29022Y52239D01*
G01X28956Y52235D01*
G01X28865Y52227D01*
G01X28783Y52220D01*
G01X28710Y52212D01*
G01X28643Y52203D01*
G01X28581Y52192D01*
G01X28524Y52180D01*
G01X28470Y52166D01*
G01X28419Y52149D01*
G01X28368Y52131D01*
G01X28318Y52110D01*
G01X28267Y52085D01*
G01X28213Y52058D01*
G01X28154Y52028D01*
G01X28101Y52002D01*
G01X28051Y51981D01*
G01X28002Y51963D01*
G01X27953Y51949D01*
G01X27901Y51937D01*
G01X27845Y51928D01*
G01X27782Y51922D01*
G01X27709Y51918D01*
G01X27627Y51915D01*
G01X27531Y51913D01*
G01X27421Y51912D01*
G01X27326Y51910D01*
G01X27241Y51908D01*
G01X27164Y51906D01*
G01X27095Y51902D01*
G01X27033Y51897D01*
G01X26978Y51891D01*
G01X26928Y51883D01*
G01X26883Y51874D01*
G01X26843Y51863D01*
G01X26807Y51851D01*
G01X26773Y51837D01*
G01X26742Y51821D01*
G01X26712Y51803D01*
G01X26677Y51778D01*
G01X26636Y51747D01*
G01X26591Y51711D01*
G01X26542Y51670D01*
G01X26490Y51624D01*
G01X26435Y51575D01*
G01X26377Y51522D01*
G01X26318Y51467D01*
G01X26259Y51410D01*
G01X26198Y51351D01*
G01X26137Y51291D01*
G01X26077Y51230D01*
G01X26018Y51170D01*
G01X25961Y51110D01*
G01X25905Y51052D01*
G01X25854Y50996D01*
G01X25805Y50941D01*
G01X25760Y50890D01*
G01X25720Y50843D01*
G01X25685Y50799D01*
G01X25656Y50760D01*
G01X25632Y50727D01*
G01X25616Y50699D01*
G01X25597Y50658D01*
G01X25576Y50602D01*
G01X25553Y50534D01*
G01X25529Y50456D01*
G01X25505Y50370D01*
G01X25481Y50279D01*
G01X25457Y50186D01*
G01X25415Y50000D01*
G01X25394Y49913D01*
G01X25372Y49831D01*
G01X25350Y49754D01*
G01X25327Y49682D01*
G01X25303Y49615D01*
G01X25280Y49552D01*
G01X25255Y49494D01*
G01X25229Y49440D01*
G01X25202Y49390D01*
G01X25174Y49344D01*
G01X25146Y49302D01*
G01X25116Y49264D01*
G01X25084Y49228D01*
G01X25052Y49196D01*
G01X25017Y49168D01*
G01X24964Y49118D01*
G01X24925Y49063D01*
G01X24903Y49007D01*
G01X24898Y48952D01*
G01X24899Y48931D01*
G01X24900Y48896D01*
G01X24901Y48851D01*
G01X24902Y48795D01*
G01X24902Y48730D01*
G01X24903Y48657D01*
G01X24903Y48304D01*
G01X24902Y48206D01*
G01X24902Y48106D01*
G01X24896Y47373D01*
G01X24711Y47388D01*
G01X24625Y47399D01*
G01X24571Y47417D01*
G01X24546Y47442D01*
G01X24545Y47478D01*
G01X24547Y47487D01*
G01X24549Y47500D01*
G01X24551Y47515D01*
G01X24553Y47535D01*
G01X24555Y47558D01*
G01X24557Y47585D01*
G01X24559Y47616D01*
G01X24561Y47652D01*
G01X24563Y47692D01*
G01X24565Y47737D01*
G01X24566Y47787D01*
G01X24568Y47842D01*
G01X24570Y47902D01*
G01X24572Y47968D01*
G01X24575Y48040D01*
G01X24577Y48117D01*
G01X24579Y48201D01*
G01X24581Y48291D01*
G01X24583Y48388D01*
G01X24585Y48491D01*
G01X24588Y48601D01*
G01X24590Y48718D01*
G01X24593Y48843D01*
G01X24595Y48975D01*
G01X24601Y49078D01*
G01X24622Y49134D01*
G01X24672Y49157D01*
G01X24763Y49161D01*
G01X24805Y49163D01*
G01X24844Y49170D01*
G01X24882Y49182D01*
G01X24919Y49198D01*
G01X24954Y49219D01*
G01X24989Y49244D01*
G01X25022Y49274D01*
G01X25054Y49310D01*
G01X25084Y49349D01*
G01X25113Y49394D01*
G01X25141Y49443D01*
G01X25167Y49497D01*
G01X25193Y49556D01*
G01X25217Y49620D01*
G01X25240Y49690D01*
G01X25262Y49764D01*
G01X25282Y49842D01*
G01X25302Y49926D01*
G01X25320Y50015D01*
G01X25338Y50109D01*
G01X25350Y50172D01*
G01X25364Y50236D01*
G01X25381Y50300D01*
G01X25400Y50364D01*
G01X25420Y50428D01*
G01X25442Y50491D01*
G01X25466Y50553D01*
G01X25491Y50613D01*
G01X25518Y50672D01*
G01X25546Y50729D01*
G01X25576Y50784D01*
G01X25606Y50836D01*
G01X25637Y50885D01*
G01X25668Y50931D01*
G01X25701Y50974D01*
G01X25733Y51012D01*
G01X25778Y51066D01*
G01X25807Y51104D01*
G01X25817Y51125D01*
G01X25804Y51124D01*
G01X25796Y51121D01*
G01X25780Y51116D01*
G01X25756Y51111D01*
G01X25725Y51104D01*
G01X25688Y51096D01*
G01X25644Y51087D01*
G01X25595Y51077D01*
G01X25540Y51067D01*
G01X25480Y51055D01*
G01X25415Y51043D01*
G01X25347Y51030D01*
G01X25275Y51016D01*
G01X25199Y51003D01*
G01X25121Y50988D01*
G01X25040Y50974D01*
G01X24957Y50959D01*
G01X24872Y50944D01*
G01X24786Y50929D01*
G01X24526Y50883D01*
G01X24439Y50868D01*
G01X24354Y50853D01*
G01X24269Y50839D01*
G01X24187Y50825D01*
G01X24106Y50811D01*
G01X24028Y50798D01*
G01X23953Y50786D01*
G01X23882Y50774D01*
G01X23814Y50763D01*
G01X23751Y50753D01*
G01X23691Y50744D01*
G01X23637Y50736D01*
G01X23589Y50729D01*
G01X23546Y50723D01*
G01X23510Y50718D01*
G01X23472Y50714D01*
G01X23430Y50710D01*
G01X23385Y50706D01*
G01X23335Y50702D01*
G01X23283Y50698D01*
G01X23227Y50695D01*
G01X23169Y50692D01*
G01X23107Y50689D01*
G01X23043Y50686D01*
G01X22977Y50684D01*
G01X22909Y50682D01*
G01X22839Y50680D01*
G01X22768Y50678D01*
G01X22695Y50676D01*
G01X22547Y50674D01*
G01X22319Y50671D01*
G01X22092Y50671D01*
G01X22018Y50672D01*
G01X21872Y50674D01*
G01X21802Y50675D01*
G01X21732Y50677D01*
G01X21665Y50678D01*
G01X21600Y50680D01*
G01X21537Y50682D01*
G01X21476Y50685D01*
G01X21419Y50687D01*
G01X21364Y50690D01*
G01X21313Y50694D01*
G01X21265Y50697D01*
G01X21221Y50701D01*
G01X21173Y50705D01*
G01X21121Y50709D01*
G01X21065Y50713D01*
G01X21006Y50717D01*
G01X20944Y50721D01*
G01X20879Y50724D01*
G01X20812Y50728D01*
G01X20744Y50731D01*
G01X20674Y50734D01*
G01X20602Y50737D01*
G01X20457Y50742D01*
G01X20310Y50746D01*
G01X20238Y50748D01*
G01X20096Y50750D01*
G01X20027Y50751D01*
G01X19961Y50752D01*
G01X19790Y50752D01*
G01X19694Y50751D01*
G01X19606Y50751D01*
G01X19526Y50750D01*
G01X19452Y50748D01*
G01X19385Y50746D01*
G01X19322Y50742D01*
G01X19263Y50738D01*
G01X19206Y50733D01*
G01X19100Y50719D01*
G01X19048Y50710D01*
G01X18996Y50699D01*
G01X18941Y50687D01*
G01X18884Y50674D01*
G01X18825Y50657D01*
G01X18761Y50639D01*
G01X18692Y50620D01*
G01X18617Y50597D01*
G01X18535Y50573D01*
G01X18441Y50545D01*
G01X18352Y50518D01*
G01X18266Y50492D01*
G01X18184Y50468D01*
G01X18107Y50444D01*
G01X18032Y50422D01*
G01X17961Y50401D01*
G01X17893Y50381D01*
G01X17828Y50362D01*
G01X17766Y50343D01*
G01X17707Y50326D01*
G01X17650Y50310D01*
G01X17595Y50295D01*
G01X17543Y50280D01*
G01X17492Y50266D01*
G01X17444Y50253D01*
G01X17397Y50241D01*
G01X17351Y50230D01*
G01X17307Y50219D01*
G01X17264Y50209D01*
G01X17222Y50200D01*
G01X17182Y50191D01*
G01X17141Y50183D01*
G01X17101Y50175D01*
G01X17062Y50168D01*
G01X17022Y50161D01*
G01X16983Y50155D01*
G01X16943Y50149D01*
G01X16863Y50139D01*
G01X16822Y50134D01*
G01X16780Y50129D01*
G01X16737Y50125D01*
G01X16693Y50121D01*
G01X16648Y50118D01*
G01X16601Y50114D01*
G01X16552Y50111D01*
G01X16502Y50108D01*
G01X16450Y50104D01*
G01X16395Y50101D01*
G01X16338Y50098D01*
G01X16279Y50095D01*
G01X16217Y50091D01*
G01X16152Y50088D01*
G01X16084Y50085D01*
G01X16014Y50081D01*
G01X15939Y50078D01*
G01X15861Y50074D01*
G01X15787Y50070D01*
G01X15639Y50060D01*
G01X15567Y50054D01*
G01X15423Y50040D01*
G01X15352Y50031D01*
G01X15281Y50023D01*
G01X15212Y50014D01*
G01X15142Y50003D01*
G01X15074Y49993D01*
G01X15006Y49982D01*
G01X14939Y49970D01*
G01X14873Y49957D01*
G01X14807Y49945D01*
G01X14742Y49931D01*
G01X14678Y49917D01*
G01X14614Y49901D01*
G01X14552Y49886D01*
G01X14490Y49870D01*
G01X14428Y49853D01*
G01X14368Y49836D01*
G01X14308Y49818D01*
G01X14249Y49800D01*
G01X14191Y49780D01*
G01X14134Y49761D01*
G01X14078Y49741D01*
G01X14022Y49720D01*
G01X13967Y49699D01*
G01X13914Y49677D01*
G01X13861Y49654D01*
G01X13808Y49632D01*
G01X13757Y49608D01*
G01X13707Y49584D01*
G01X13609Y49534D01*
G01X13562Y49509D01*
G01X13516Y49482D01*
G01X13470Y49456D01*
G01X13425Y49428D01*
G01X13382Y49400D01*
G01X13340Y49373D01*
G01X13298Y49344D01*
G01X13258Y49315D01*
G01X13218Y49285D01*
G01X13180Y49254D01*
G01X13142Y49224D01*
G01X13106Y49192D01*
G01X13071Y49161D01*
G01X13037Y49129D01*
G01X13004Y49096D01*
G01X12972Y49063D01*
G01X12931Y49014D01*
G01X12889Y48959D01*
G01X12849Y48897D01*
G01X12810Y48832D01*
G01X12773Y48765D01*
G01X12741Y48699D01*
G01X12713Y48636D01*
G01X12690Y48578D01*
G01X12675Y48527D01*
G01X12667Y48485D01*
G01X12667Y48454D01*
G01X12678Y48437D01*
G01X12695Y48421D01*
G01X12697Y48403D01*
G01X12686Y48384D01*
G01X12661Y48364D01*
G01X12644Y48347D01*
G01X12630Y48319D01*
G01X12618Y48278D01*
G01X12609Y48223D01*
G01X12602Y48152D01*
G01X12598Y48066D01*
G01X12595Y47961D01*
G01X12594Y47838D01*
G01X12594Y47735D01*
G01X12595Y47646D01*
G01X12598Y47569D01*
G01X12602Y47502D01*
G01X12608Y47444D01*
G01X12616Y47393D01*
G01X12627Y47346D01*
G01X12641Y47302D01*
G01X12658Y47259D01*
G01X12680Y47216D01*
G01X12705Y47169D01*
G01X12735Y47119D01*
G01X12768Y47066D01*
G01X12804Y47014D01*
G01X12843Y46963D01*
G01X12884Y46912D01*
G01X12927Y46863D01*
G01X12972Y46815D01*
G01X13019Y46769D01*
G01X13066Y46725D01*
G01X13114Y46684D01*
G01X13162Y46645D01*
G01X13211Y46609D01*
G01X13259Y46576D01*
G01X13307Y46548D01*
G01X13353Y46523D01*
G01X13399Y46502D01*
G01X13443Y46485D01*
G01X13527Y46452D01*
G01X13577Y46413D01*
G01X13602Y46362D01*
G01X13609Y46288D01*
G01X13613Y46249D01*
G01X13625Y46210D01*
G01X13643Y46169D01*
G01X13669Y46129D01*
G01X13701Y46088D01*
G01X13740Y46049D01*
G01X13784Y46010D01*
G01X13834Y45972D01*
G01X13888Y45936D01*
G01X13948Y45902D01*
G01X14012Y45870D01*
G01X14080Y45841D01*
G01X14121Y45827D01*
G01X14172Y45816D01*
G01X14231Y45806D01*
G01X14297Y45798D01*
G01X14368Y45792D01*
G01X14444Y45789D01*
G01X14523Y45787D01*
G01X14605Y45787D01*
G01X14687Y45789D01*
G01X14769Y45792D01*
G01X14849Y45798D01*
G01X14928Y45805D01*
G01X15002Y45814D01*
G01X15071Y45826D01*
G01X15134Y45839D01*
G01X15190Y45854D01*
G01X15409Y45921D01*
G01X15095Y46235D01*
G01X15038Y46290D01*
G01X14982Y46343D01*
G01X14926Y46393D01*
G01X14870Y46439D01*
G01X14814Y46483D01*
G01X14759Y46524D01*
G01X14704Y46562D01*
G01X14650Y46596D01*
G01X14595Y46628D01*
G01X14542Y46657D01*
G01X14488Y46683D01*
G01X14435Y46705D01*
G01X14383Y46725D01*
G01X14330Y46742D01*
G01X14278Y46755D01*
G01X14227Y46766D01*
G01X14176Y46774D01*
G01X14125Y46778D01*
G01X14075Y46780D01*
G01X14025Y46778D01*
G01X13954Y46775D01*
G01X13894Y46777D01*
G01X13841Y46786D01*
G01X13791Y46804D01*
G01X13738Y46832D01*
G01X13679Y46874D01*
G01X13609Y46932D01*
G01X13523Y47006D01*
G01X13472Y47053D01*
G01X13424Y47099D01*
G01X13379Y47145D01*
G01X13338Y47190D01*
G01X13299Y47235D01*
G01X13264Y47281D01*
G01X13232Y47326D01*
G01X13203Y47372D01*
G01X13178Y47417D01*
G01X13154Y47463D01*
G01X13134Y47510D01*
G01X13118Y47557D01*
G01X13103Y47606D01*
G01X13092Y47654D01*
G01X13083Y47705D01*
G01X13076Y47756D01*
G01X13073Y47808D01*
G01X13072Y47861D01*
G01X13073Y47916D01*
G01X13077Y47972D01*
G01X13085Y48040D01*
G01X13095Y48106D01*
G01X13108Y48169D01*
G01X13124Y48231D01*
G01X13142Y48290D01*
G01X13163Y48348D01*
G01X13188Y48405D01*
G01X13216Y48461D01*
G01X13247Y48515D01*
G01X13282Y48569D01*
G01X13320Y48622D01*
G01X13361Y48675D01*
G01X13407Y48727D01*
G01X13456Y48780D01*
G01X13509Y48832D01*
G01X13566Y48885D01*
G01X13624Y48936D01*
G01X13676Y48982D01*
G01X13726Y49024D01*
G01X13773Y49061D01*
G01X13819Y49095D01*
G01X13864Y49126D01*
G01X13910Y49154D01*
G01X13956Y49179D01*
G01X14004Y49204D01*
G01X14054Y49226D01*
G01X14108Y49249D01*
G01X14166Y49270D01*
G01X14229Y49291D01*
G01X14298Y49313D01*
G01X14374Y49335D01*
G01X14457Y49359D01*
G01X14495Y49370D01*
G01X14533Y49380D01*
G01X14571Y49389D01*
G01X14611Y49398D01*
G01X14650Y49406D01*
G01X14691Y49414D01*
G01X14734Y49421D01*
G01X14778Y49427D01*
G01X14825Y49433D01*
G01X14875Y49439D01*
G01X14928Y49445D01*
G01X14984Y49449D01*
G01X15045Y49454D01*
G01X15109Y49458D01*
G01X15179Y49462D01*
G01X15253Y49467D01*
G01X15333Y49470D01*
G01X15419Y49474D01*
G01X15511Y49477D01*
G01X15609Y49480D01*
G01X15715Y49483D01*
G01X15828Y49486D01*
G01X15949Y49489D01*
G01X16077Y49493D01*
G01X17332Y49522D01*
G01X17253Y49369D01*
G01X17220Y49302D01*
G01X17196Y49246D01*
G01X17183Y49197D01*
G01X17179Y49155D01*
G01X17184Y49115D01*
G01X17199Y49076D01*
G01X17225Y49036D01*
G01X17260Y48992D01*
G01X17308Y48934D01*
G01X17322Y48913D01*
G01X17300Y48929D01*
G01X17241Y48978D01*
G01X17205Y49007D01*
G01X17177Y49025D01*
G01X17152Y49030D01*
G01X17127Y49019D01*
G01X17100Y48992D01*
G01X17067Y48944D01*
G01X17026Y48874D01*
G01X16973Y48780D01*
G01X16937Y48717D01*
G01X16897Y48649D01*
G01X16853Y48578D01*
G01X16808Y48505D01*
G01X16762Y48433D01*
G01X16718Y48365D01*
G01X16676Y48302D01*
G01X16638Y48246D01*
G01X16603Y48194D01*
G01X16570Y48141D01*
G01X16540Y48086D01*
G01X16515Y48034D01*
G01X16493Y47984D01*
G01X16476Y47939D01*
G01X16465Y47899D01*
G01X16460Y47868D01*
G01X16456Y47818D01*
G01X16448Y47780D01*
G01X16436Y47758D01*
G01X16423Y47755D01*
G01X16413Y47752D01*
G01X16399Y47734D01*
G01X16381Y47705D01*
G01X16360Y47664D01*
G01X16336Y47613D01*
G01X16310Y47554D01*
G01X16282Y47488D01*
G01X16255Y47416D01*
G01X16227Y47343D01*
G01X16200Y47272D01*
G01X16173Y47207D01*
G01X16149Y47147D01*
G01X16127Y47097D01*
G01X16109Y47055D01*
G01X16094Y47025D01*
G01X16084Y47007D01*
G01X16063Y46972D01*
G01X16041Y46926D01*
G01X16019Y46870D01*
G01X15996Y46806D01*
G01X15975Y46737D01*
G01X15955Y46664D01*
G01X15936Y46590D01*
G01X15919Y46516D01*
G01X15905Y46444D01*
G01X15895Y46376D01*
G01X15889Y46315D01*
G01X15886Y46263D01*
G01X15886Y46195D01*
G01X15882Y46143D01*
G01X15871Y46102D01*
G01X15853Y46069D01*
G01X15823Y46041D01*
G01X15779Y46015D01*
G01X15719Y45986D01*
G01X15638Y45952D01*
G01X15579Y45926D01*
G01X15527Y45899D01*
G01X15480Y45871D01*
G01X15440Y45843D01*
G01X15407Y45814D01*
G01X15379Y45785D01*
G01X15358Y45755D01*
G01X15343Y45723D01*
G01X15320Y45628D01*
G01X15322Y45539D01*
G01X15344Y45474D01*
G01X15385Y45448D01*
G01X15391Y45438D01*
G01X15395Y45408D01*
G01X15396Y45360D01*
G01X15396Y45297D01*
G01X15394Y45221D01*
G01X15390Y45134D01*
G01X15384Y45037D01*
G01X15376Y44934D01*
G01X15367Y44820D01*
G01X15360Y44723D01*
G01X15355Y44641D01*
G01X15353Y44571D01*
G01X15353Y44511D01*
G01X15357Y44459D01*
G01X15364Y44411D01*
G01X15375Y44368D01*
G01X15389Y44325D01*
G01X15407Y44280D01*
G01X15430Y44231D01*
G01X15457Y44177D01*
G01X15483Y44123D01*
G01X15508Y44066D01*
G01X15533Y44007D01*
G01X15555Y43947D01*
G01X15575Y43888D01*
G01X15593Y43832D01*
G01X15607Y43781D01*
G01X15616Y43737D01*
G01X15637Y43642D01*
G01X15662Y43555D01*
G01X15692Y43475D01*
G01X15725Y43404D01*
G01X15763Y43342D01*
G01X15803Y43289D01*
G01X15848Y43247D01*
G01X15895Y43216D01*
G01X15921Y43205D01*
G01X15958Y43197D01*
G01X16004Y43190D01*
G01X16058Y43185D01*
G01X16120Y43181D01*
G01X16188Y43178D01*
G01X16260Y43176D01*
G01X16336Y43177D01*
G01X16415Y43178D01*
G01X16495Y43181D01*
G01X16576Y43184D01*
G01X16654Y43189D01*
G01X16731Y43195D01*
G01X16805Y43202D01*
G01X16874Y43210D01*
G01X16938Y43219D01*
G01X16994Y43228D01*
G01X17042Y43239D01*
G01X17082Y43250D01*
G01X17111Y43262D01*
G01X17155Y43291D01*
G01X17191Y43324D01*
G01X17220Y43361D01*
G01X17241Y43403D01*
G01X17255Y43447D01*
G01X17262Y43494D01*
G01X17262Y43544D01*
G01X17256Y43595D01*
G01X17242Y43646D01*
G01X17222Y43699D01*
G01X17195Y43752D01*
G01X17162Y43803D01*
G01X17123Y43854D01*
G01X17077Y43903D01*
G01X17025Y43949D01*
G01X16967Y43993D01*
G01X16906Y44034D01*
G01X16855Y44065D01*
G01X16811Y44087D01*
G01X16771Y44099D01*
G01X16730Y44105D01*
G01X16687Y44102D01*
G01X16637Y44093D01*
G01X16578Y44079D01*
G01X16522Y44065D01*
G01X16475Y44057D01*
G01X16438Y44055D01*
G01X16408Y44062D01*
G01X16387Y44077D01*
G01X16374Y44103D01*
G01X16368Y44140D01*
G01X16369Y44189D01*
G01X16376Y44253D01*
G01X16390Y44331D01*
G01X16410Y44425D01*
G01X16436Y44535D01*
G01X16456Y44618D01*
G01X16476Y44695D01*
G01X16496Y44767D01*
G01X16517Y44834D01*
G01X16538Y44896D01*
G01X16560Y44952D01*
G01X16583Y45005D01*
G01X16607Y45054D01*
G01X16632Y45098D01*
G01X16659Y45139D01*
G01X16687Y45176D01*
G01X16717Y45210D01*
G01X16748Y45241D01*
G01X16782Y45269D01*
G01X16818Y45295D01*
G01X16856Y45319D01*
G01X16898Y45341D01*
G01X16941Y45361D01*
G01X16988Y45379D01*
G01X17037Y45396D01*
G01X17109Y45423D01*
G01X17168Y45452D01*
G01X17208Y45481D01*
G01X17223Y45504D01*
G01X17226Y45521D01*
G01X17236Y45530D01*
G01X17251Y45532D01*
G01X17268Y45525D01*
G01X17298Y45522D01*
G01X17343Y45539D01*
G01X17396Y45573D01*
G01X17455Y45618D01*
G01X17516Y45673D01*
G01X17573Y45733D01*
G01X17623Y45795D01*
G01X17661Y45856D01*
G01X17685Y45894D01*
G01X17713Y45931D01*
G01X17745Y45965D01*
G01X17782Y45997D01*
G01X17823Y46026D01*
G01X17868Y46054D01*
G01X17917Y46078D01*
G01X17970Y46100D01*
G01X18027Y46119D01*
G01X18088Y46136D01*
G01X18152Y46150D01*
G01X18221Y46162D01*
G01X18276Y46172D01*
G01X18328Y46184D01*
G01X18378Y46200D01*
G01X18425Y46219D01*
G01X18468Y46241D01*
G01X18508Y46265D01*
G01X18545Y46292D01*
G01X18578Y46321D01*
G01X18704Y46447D01*
G01X18804Y46283D01*
G01X18828Y46241D01*
G01X18850Y46197D01*
G01X18869Y46150D01*
G01X18886Y46102D01*
G01X18902Y46050D01*
G01X18915Y45996D01*
G01X18926Y45938D01*
G01X18935Y45877D01*
G01X18941Y45813D01*
G01X18946Y45745D01*
G01X18948Y45672D01*
G01X18949Y45596D01*
G01X18948Y45514D01*
G01X18944Y45427D01*
G01X18939Y45335D01*
G01X18932Y45237D01*
G01X18897Y44785D01*
G01X19334Y44370D01*
G01X19380Y44326D01*
G01X19428Y44282D01*
G01X19477Y44238D01*
G01X19528Y44194D01*
G01X19578Y44151D01*
G01X19629Y44108D01*
G01X19680Y44066D01*
G01X19730Y44025D01*
G01X19779Y43986D01*
G01X19828Y43949D01*
G01X19874Y43913D01*
G01X19919Y43881D01*
G01X19961Y43851D01*
G01X20000Y43824D01*
G01X20036Y43800D01*
G01X20069Y43780D01*
G01X20131Y43743D01*
G01X20193Y43703D01*
G01X20254Y43661D01*
G01X20311Y43618D01*
G01X20364Y43576D01*
G01X20410Y43537D01*
G01X20448Y43501D01*
G01X20476Y43470D01*
G01X20504Y43437D01*
G01X20534Y43408D01*
G01X20565Y43383D01*
G01X20600Y43360D01*
G01X20637Y43341D01*
G01X20678Y43325D01*
G01X20723Y43313D01*
G01X20773Y43303D01*
G01X20829Y43296D01*
G01X20889Y43292D01*
G01X20957Y43291D01*
G01X21031Y43292D01*
G01X21112Y43296D01*
G01X21201Y43303D01*
G01X21298Y43312D01*
G01X21405Y43324D01*
G01X21523Y43337D01*
G01X21629Y43351D01*
G01X21723Y43364D01*
G01X21805Y43377D01*
G01X21878Y43390D01*
G01X21940Y43404D01*
G01X21993Y43418D01*
G01X22039Y43434D01*
G01X22076Y43450D01*
G01X22106Y43469D01*
G01X22129Y43489D01*
G01X22147Y43511D01*
G01X22159Y43536D01*
G01X22168Y43564D01*
G01X22172Y43594D01*
G01X22173Y43627D01*
G01X22165Y43696D01*
G01X22143Y43773D01*
G01X22111Y43851D01*
G01X22071Y43918D01*
G01X22039Y43961D01*
G01X22008Y43995D01*
G01X21977Y44020D01*
G01X21941Y44038D01*
G01X21898Y44050D01*
G01X21846Y44057D01*
G01X21780Y44061D01*
G01X21698Y44062D01*
G01X21634Y44063D01*
G01X21573Y44066D01*
G01X21514Y44072D01*
G01X21457Y44081D01*
G01X21403Y44092D01*
G01X21349Y44107D01*
G01X21295Y44124D01*
G01X21243Y44146D01*
G01X21190Y44171D01*
G01X21137Y44199D01*
G01X21083Y44232D01*
G01X21027Y44269D01*
G01X20970Y44310D01*
G01X20911Y44355D01*
G01X20849Y44406D01*
G01X20783Y44461D01*
G01X20727Y44510D01*
G01X20677Y44557D01*
G01X20632Y44601D01*
G01X20592Y44644D01*
G01X20557Y44684D01*
G01X20528Y44724D01*
G01X20503Y44762D01*
G01X20484Y44801D01*
G01X20469Y44839D01*
G01X20460Y44878D01*
G01X20455Y44918D01*
G01X20455Y44959D01*
G01X20459Y45001D01*
G01X20468Y45045D01*
G01X20481Y45092D01*
G01X20499Y45141D01*
G01X20521Y45194D01*
G01X20548Y45251D01*
G01X20578Y45311D01*
G01X20613Y45375D01*
G01X20639Y45423D01*
G01X20664Y45476D01*
G01X20689Y45532D01*
G01X20715Y45590D01*
G01X20740Y45651D01*
G01X20763Y45712D01*
G01X20785Y45774D01*
G01X20806Y45835D01*
G01X20825Y45895D01*
G01X20842Y45953D01*
G01X20856Y46008D01*
G01X20868Y46058D01*
G01X20885Y46133D01*
G01X20904Y46207D01*
G01X20926Y46280D01*
G01X20949Y46352D01*
G01X20975Y46422D01*
G01X21001Y46490D01*
G01X21029Y46554D01*
G01X21058Y46615D01*
G01X21086Y46671D01*
G01X21116Y46723D01*
G01X21144Y46770D01*
G01X21173Y46809D01*
G01X21200Y46842D01*
G01X21227Y46868D01*
G01X21253Y46885D01*
G01X21277Y46895D01*
G01X21298Y46911D01*
G01X21282Y46945D01*
G01X21226Y46996D01*
G01X21131Y47066D01*
G01X21038Y47133D01*
G01X20952Y47199D01*
G01X20883Y47257D01*
G01X20840Y47300D01*
G01X20800Y47332D01*
G01X20740Y47357D01*
G01X20666Y47373D01*
G01X20583Y47379D01*
G01X20391Y47379D01*
G01X20391Y48053D01*
G01X20390Y48133D01*
G01X20388Y48208D01*
G01X20385Y48278D01*
G01X20381Y48343D01*
G01X20377Y48402D01*
G01X20372Y48454D01*
G01X20367Y48498D01*
G01X20361Y48535D01*
G01X20355Y48563D01*
G01X20348Y48582D01*
G01X20342Y48591D01*
G01X20329Y48598D01*
G01X20318Y48599D01*
G01X20310Y48592D01*
G01X20303Y48575D01*
G01X20297Y48548D01*
G01X20293Y48506D01*
G01X20290Y48449D01*
G01X20288Y48375D01*
G01X20287Y48281D01*
G01X20287Y48026D01*
G01X20289Y47861D01*
G01X20292Y47379D01*
G01X20119Y47379D01*
G01X20051Y47383D01*
G01X19996Y47393D01*
G01X19959Y47409D01*
G01X19946Y47429D01*
G01X19932Y47442D01*
G01X19897Y47441D01*
G01X19846Y47430D01*
G01X19783Y47410D01*
G01X19715Y47383D01*
G01X19648Y47352D01*
G01X19587Y47317D01*
G01X19538Y47282D01*
G01X19496Y47248D01*
G01X19425Y47193D01*
G01X19337Y47126D01*
G01X19241Y47054D01*
G01X19191Y47015D01*
G01X19140Y46972D01*
G01X19089Y46925D01*
G01X19038Y46877D01*
G01X18991Y46829D01*
G01X18948Y46782D01*
G01X18911Y46737D01*
G01X18882Y46697D01*
G01X18834Y46629D01*
G01X18794Y46580D01*
G01X18767Y46553D01*
G01X18757Y46554D01*
G01X18763Y46579D01*
G01X18780Y46616D01*
G01X18806Y46661D01*
G01X18840Y46714D01*
G01X18881Y46773D01*
G01X18927Y46835D01*
G01X18976Y46899D01*
G01X19029Y46963D01*
G01X19083Y47026D01*
G01X19135Y47084D01*
G01X19187Y47138D01*
G01X19236Y47185D01*
G01X19426Y47356D01*
G01X19422Y48212D01*
G01X19422Y48566D01*
G01X19423Y48659D01*
G01X19425Y48741D01*
G01X19427Y48811D01*
G01X19429Y48872D01*
G01X19434Y48924D01*
G01X19438Y48968D01*
G01X19443Y49005D01*
G01X19450Y49035D01*
G01X19457Y49059D01*
G01X19466Y49077D01*
G01X19475Y49092D01*
G01X19486Y49102D01*
G01X19499Y49110D01*
G01X19542Y49127D01*
G01X19601Y49141D01*
G01X19673Y49152D01*
G01X19754Y49160D01*
G01X19840Y49164D01*
G01X19928Y49166D01*
G01X20015Y49165D01*
G01X20097Y49160D01*
G01X20171Y49153D01*
G01X20232Y49142D01*
G01X20279Y49129D01*
G01X20306Y49112D01*
G01X20325Y49090D01*
G01X20333Y49075D01*
G01X20329Y49071D01*
G01X20312Y49077D01*
G01X20289Y49077D01*
G01X20273Y49048D01*
G01X20264Y48989D01*
G01X20263Y48903D01*
G01X20269Y48818D01*
G01X20284Y48749D01*
G01X20306Y48700D01*
G01X20333Y48677D01*
G01X20364Y48677D01*
G01X20382Y48702D01*
G01X20391Y48758D01*
G01X20391Y48846D01*
G01X20386Y48948D01*
G01X20386Y49025D01*
G01X20391Y49081D01*
G01X20403Y49119D01*
G01X20425Y49142D01*
G01X20457Y49155D01*
G01X20503Y49160D01*
G01X20564Y49161D01*
G01X20738Y49161D01*
G01X20744Y48851D01*
G01X20749Y48741D01*
G01X20756Y48669D01*
G01X20765Y48642D01*
G01X20774Y48666D01*
G01X20786Y48718D01*
G01X20801Y48768D01*
G01X20818Y48810D01*
G01X20835Y48839D01*
G01X20852Y48869D01*
G01X20871Y48914D01*
G01X20889Y48968D01*
G01X20905Y49025D01*
G01X20928Y49095D01*
G01X20962Y49136D01*
G01X21019Y49156D01*
G01X21106Y49161D01*
G01X21203Y49158D01*
G01X21248Y49140D01*
G01X21251Y49093D01*
G01X21225Y49000D01*
G01X21197Y48910D01*
G01X21171Y48828D01*
G01X21148Y48754D01*
G01X21127Y48685D01*
G01X21109Y48622D01*
G01X21093Y48564D01*
G01X21079Y48510D01*
G01X21068Y48460D01*
G01X21060Y48413D01*
G01X21053Y48368D01*
G01X21049Y48325D01*
G01X21047Y48283D01*
G01X21047Y48241D01*
G01X21051Y48199D01*
G01X21056Y48156D01*
G01X21063Y48111D01*
G01X21073Y48064D01*
G01X21085Y48014D01*
G01X21099Y47960D01*
G01X21116Y47902D01*
G01X21134Y47839D01*
G01X21156Y47770D01*
G01X21179Y47696D01*
G01X21204Y47614D01*
G01X21278Y47379D01*
G01X21114Y47379D01*
G01X21061Y47380D01*
G01X21020Y47385D01*
G01X20986Y47398D01*
G01X20958Y47422D01*
G01X20933Y47459D01*
G01X20908Y47514D01*
G01X20880Y47589D01*
G01X20847Y47688D01*
G01X20818Y47777D01*
G01X20794Y47844D01*
G01X20776Y47890D01*
G01X20762Y47915D01*
G01X20753Y47921D01*
G01X20747Y47909D01*
G01X20744Y47880D01*
G01X20742Y47834D01*
G01X20742Y47790D01*
G01X20747Y47745D01*
G01X20754Y47701D01*
G01X20765Y47656D01*
G01X20780Y47612D01*
G01X20798Y47568D01*
G01X20818Y47523D01*
G01X20843Y47480D01*
G01X20871Y47436D01*
G01X20902Y47393D01*
G01X20936Y47350D01*
G01X20973Y47307D01*
G01X21014Y47264D01*
G01X21058Y47222D01*
G01X21104Y47181D01*
G01X21154Y47139D01*
G01X21207Y47098D01*
G01X21263Y47058D01*
G01X21322Y47018D01*
G01X21384Y46979D01*
G01X21448Y46940D01*
G01X21516Y46902D01*
G01X21586Y46864D01*
G01X21660Y46827D01*
G01X21736Y46790D01*
G01X21815Y46755D01*
G01X21896Y46720D01*
G01X22061Y46654D01*
G01X22134Y46626D01*
G01X22200Y46600D01*
G01X22260Y46578D01*
G01X22315Y46557D01*
G01X22367Y46540D01*
G01X22416Y46524D01*
G01X22463Y46511D01*
G01X22508Y46500D01*
G01X22553Y46491D01*
G01X22599Y46483D01*
G01X22646Y46476D01*
G01X22695Y46471D01*
G01X22748Y46467D01*
G01X22804Y46464D01*
G01X22866Y46462D01*
G01X22933Y46460D01*
G01X23006Y46459D01*
G01X23088Y46458D01*
G01X23177Y46457D01*
G01X23263Y46456D01*
G01X23346Y46455D01*
G01X23425Y46453D01*
G01X23500Y46451D01*
G01X23569Y46448D01*
G01X23632Y46445D01*
G01X23689Y46442D01*
G01X23737Y46438D01*
G01X23777Y46435D01*
G01X23808Y46431D01*
G01X23829Y46427D01*
G01X23838Y46423D01*
G01X23842Y46407D01*
G01X23840Y46371D01*
G01X23833Y46319D01*
G01X23822Y46252D01*
G01X23807Y46173D01*
G01X23788Y46084D01*
G01X23766Y45987D01*
G01X23741Y45884D01*
G01X23707Y45740D01*
G01X23690Y45666D01*
G01X23673Y45593D01*
G01X23658Y45521D01*
G01X23642Y45451D01*
G01X23628Y45384D01*
G01X23615Y45321D01*
G01X23604Y45262D01*
G01X23594Y45210D01*
G01X23586Y45164D01*
G01X23580Y45126D01*
G01X23571Y45070D01*
G01X23557Y45005D01*
G01X23541Y44935D01*
G01X23521Y44860D01*
G01X23500Y44784D01*
G01X23477Y44708D01*
G01X23453Y44635D01*
G01X23428Y44568D01*
G01X23395Y44476D01*
G01X23368Y44394D01*
G01X23347Y44321D01*
G01X23331Y44256D01*
G01X23322Y44198D01*
G01X23318Y44147D01*
G01X23320Y44102D01*
G01X23328Y44062D01*
G01X23343Y44027D01*
G01X23362Y43995D01*
G01X23388Y43968D01*
G01X23420Y43943D01*
G01X23474Y43898D01*
G01X23499Y43858D01*
G01X23496Y43809D01*
G01X23469Y43739D01*
G01X23442Y43673D01*
G01X23424Y43613D01*
G01X23415Y43558D01*
G01X23417Y43509D01*
G01X23428Y43463D01*
G01X23449Y43419D01*
G01X23481Y43376D01*
G01X23522Y43334D01*
G01X23557Y43304D01*
G01X23594Y43278D01*
G01X23634Y43253D01*
G01X23675Y43230D01*
G01X23720Y43209D01*
G01X23767Y43192D01*
G01X23816Y43176D01*
G01X23867Y43162D01*
G01X23921Y43151D01*
G01X23977Y43142D01*
G01X24036Y43135D01*
G01X24096Y43131D01*
G01X24159Y43129D01*
G01X24225Y43129D01*
G01X24293Y43132D01*
G01X24363Y43137D01*
G01X24445Y43145D01*
G01X24523Y43155D01*
G01X24596Y43167D01*
G01X24665Y43181D01*
G01X24728Y43196D01*
G01X24786Y43214D01*
G01X24839Y43233D01*
G01X24886Y43253D01*
G01X24928Y43276D01*
G01X24964Y43299D01*
G01X24994Y43324D01*
G01X25018Y43350D01*
G01X25036Y43378D01*
G01X25048Y43407D01*
G01X25054Y43437D01*
G01X25053Y43468D01*
G01X25040Y43526D01*
G01X25020Y43580D01*
G01X24993Y43629D01*
G01X24958Y43673D01*
G01X24917Y43711D01*
G01X24870Y43744D01*
G01X24817Y43770D01*
G01X24758Y43789D01*
G01X24703Y43809D01*
G01X24647Y43839D01*
G01X24597Y43877D01*
G01X24561Y43917D01*
G01X24530Y43954D01*
G01X24495Y43984D01*
G01X24460Y44004D01*
G01X24430Y44012D01*
G01X24401Y44022D01*
G01X24387Y44054D01*
G01X24387Y44111D01*
G01X24399Y44198D01*
G01X24407Y44240D01*
G01X24416Y44279D01*
G01X24426Y44317D01*
G01X24437Y44355D01*
G01X24451Y44393D01*
G01X24467Y44432D01*
G01X24487Y44473D01*
G01X24509Y44517D01*
G01X24536Y44565D01*
G01X24568Y44619D01*
G01X24604Y44678D01*
G01X24646Y44743D01*
G01X24694Y44816D01*
G01X24749Y44898D01*
G01X24811Y44989D01*
G01X24880Y45091D01*
G01X24943Y45184D01*
G01X25001Y45273D01*
G01X25055Y45356D01*
G01X25101Y45430D01*
G01X25139Y45494D01*
G01X25168Y45546D01*
G01X25187Y45582D01*
G01X25193Y45602D01*
G01X25198Y45633D01*
G01X25212Y45670D01*
G01X25233Y45714D01*
G01X25262Y45763D01*
G01X25297Y45816D01*
G01X25338Y45871D01*
G01X25383Y45930D01*
G01X25432Y45989D01*
G01X25484Y46048D01*
G01X25538Y46107D01*
G01X25594Y46163D01*
G01X25649Y46217D01*
G01X25705Y46267D01*
G01X25759Y46311D01*
G01X25810Y46350D01*
G01X25860Y46383D01*
G01X25918Y46420D01*
G01X25981Y46464D01*
G01X26045Y46511D01*
G01X26110Y46562D01*
G01X26172Y46615D01*
G01X26231Y46666D01*
G01X26284Y46717D01*
G01X26330Y46763D01*
G01X26403Y46842D01*
G01X26459Y46899D01*
G01X26496Y46933D01*
G01X26517Y46944D01*
G01X26522Y46934D01*
G01X26512Y46901D01*
G01X26487Y46846D01*
G01X26448Y46770D01*
G01X26424Y46725D01*
G01X26401Y46686D01*
G01X26377Y46650D01*
G01X26351Y46617D01*
G01X26323Y46586D01*
G01X26291Y46557D01*
G01X26255Y46528D01*
G01X26213Y46499D01*
G01X26165Y46468D01*
G01X26110Y46436D01*
G01X26046Y46401D01*
G01X25973Y46362D01*
G01X25882Y46311D01*
G01X25807Y46263D01*
G01X25756Y46224D01*
G01X25738Y46199D01*
G01X25748Y46173D01*
G01X25778Y46133D01*
G01X25821Y46082D01*
G01X25874Y46028D01*
G01X25918Y45991D01*
G01X25967Y45955D01*
G01X26022Y45920D01*
G01X26082Y45888D01*
G01X26145Y45858D01*
G01X26211Y45830D01*
G01X26278Y45806D01*
G01X26346Y45785D01*
G01X26413Y45768D01*
G01X26479Y45756D01*
G01X26542Y45747D01*
G01X26601Y45745D01*
G01X26647Y45742D01*
G01X26690Y45735D01*
G01X26730Y45722D01*
G01X26770Y45702D01*
G01X26809Y45676D01*
G01X26847Y45643D01*
G01X26885Y45601D01*
G01X26925Y45551D01*
G01X26966Y45491D01*
G01X27009Y45423D01*
G01X27055Y45344D01*
G01X27104Y45254D01*
G01X27126Y45215D01*
G01X27152Y45173D01*
G01X27181Y45128D01*
G01X27213Y45081D01*
G01X27247Y45032D01*
G01X27283Y44983D01*
G01X27320Y44934D01*
G01X27359Y44885D01*
G01X27397Y44838D01*
G01X27436Y44792D01*
G01X27474Y44749D01*
G01X27511Y44709D01*
G01X27566Y44650D01*
G01X27621Y44588D01*
G01X27674Y44524D01*
G01X27725Y44461D01*
G01X27771Y44400D01*
G01X27811Y44344D01*
G01X27845Y44294D01*
G01X27869Y44251D01*
G01X27892Y44212D01*
G01X27922Y44170D01*
G01X27958Y44126D01*
G01X27998Y44081D01*
G01X28041Y44038D01*
G01X28085Y43997D01*
G01X28131Y43960D01*
G01X28175Y43928D01*
G01X28228Y43890D01*
G01X28275Y43852D01*
G01X28316Y43813D01*
G01X28352Y43774D01*
G01X28382Y43732D01*
G01X28408Y43688D01*
G01X28431Y43640D01*
G01X28450Y43589D01*
G01X28467Y43538D01*
G01X28486Y43492D01*
G01X28506Y43451D01*
G01X28529Y43415D01*
G01X28556Y43383D01*
G01X28586Y43355D01*
G01X28622Y43331D01*
G01X28663Y43311D01*
G01X28710Y43293D01*
G01X28764Y43279D01*
G01X28827Y43266D01*
G01X28898Y43256D01*
G01X28978Y43248D01*
G01X29068Y43241D01*
G01X29170Y43235D01*
G01X29282Y43230D01*
G01X29403Y43226D01*
G01X29505Y43222D01*
G01X29591Y43221D01*
G01X29662Y43221D01*
G01X29720Y43223D01*
G01X29768Y43228D01*
G01X29807Y43235D01*
G01X29839Y43246D01*
G01X29866Y43259D01*
G01X29890Y43276D01*
G01X29913Y43296D01*
G01X29936Y43321D01*
G01X29977Y43375D01*
G01X30005Y43435D01*
G01X30021Y43499D01*
G01X30023Y43568D01*
G01X30014Y43639D01*
G01X29991Y43711D01*
G01X29956Y43784D01*
G01X29910Y43856D01*
G01X29875Y43898D01*
G01X29839Y43933D01*
G01X29797Y43963D01*
G01X29746Y43989D01*
G01X29684Y44013D01*
G01X29605Y44035D01*
G01X29508Y44059D01*
G01X29389Y44085D01*
G01X29336Y44102D01*
G01X29292Y44126D01*
G01X29263Y44155D01*
G01X29253Y44186D01*
G01X29248Y44208D01*
G01X29236Y44241D01*
G01X29217Y44286D01*
G01X29191Y44339D01*
G01X29161Y44399D01*
G01X29125Y44465D01*
G01X29087Y44534D01*
G01X29044Y44605D01*
G01X28977Y44717D01*
G01X28923Y44801D01*
G01X28878Y44863D01*
G01X28838Y44906D01*
G01X28798Y44933D01*
G01X28753Y44949D01*
G01X28701Y44958D01*
G01X28636Y44961D01*
G01X28436Y44970D01*
G01X28624Y44989D01*
G01X28726Y45003D01*
G01X28781Y45027D01*
G01X28801Y45069D01*
G01X28798Y45141D01*
G01X28783Y45214D01*
G01X28752Y45253D01*
G01X28687Y45269D01*
G01X28574Y45270D01*
G01X28495Y45272D01*
G01X28434Y45280D01*
G01X28398Y45292D01*
G01X28391Y45308D01*
G01X28414Y45324D01*
G01X28459Y45337D01*
G01X28519Y45346D01*
G01X28587Y45349D01*
G01X28679Y45353D01*
G01X28730Y45372D01*
G01X28753Y45415D01*
G01X28757Y45494D01*
G01X28751Y45556D01*
G01X28735Y45619D01*
G01X28710Y45675D01*
G01X28680Y45716D01*
G01X28654Y45747D01*
G01X28640Y45771D01*
G01X28640Y45788D01*
G01X28653Y45794D01*
G01X28687Y45801D01*
G01X28726Y45819D01*
G01X28770Y45848D01*
G01X28815Y45885D01*
G01X28862Y45930D01*
G01X28909Y45981D01*
G01X28956Y46037D01*
G01X29000Y46096D01*
G01X29040Y46158D01*
G01X29076Y46220D01*
G01X29106Y46281D01*
G01X29129Y46341D01*
G01X29154Y46411D01*
G01X29177Y46472D01*
G01X29199Y46521D01*
G01X29219Y46560D01*
G01X29237Y46587D01*
G01X29254Y46604D01*
G01X29268Y46610D01*
G01X29280Y46603D01*
G01X29289Y46587D01*
G01X29296Y46558D01*
G01X29300Y46518D01*
G01X29302Y46466D01*
G01X29306Y46397D01*
G01X29314Y46341D01*
G01X29328Y46303D01*
G01X29344Y46289D01*
G01X29363Y46298D01*
G01X29394Y46321D01*
G01X29435Y46357D01*
G01X29482Y46402D01*
G01X29534Y46455D01*
G01X29588Y46514D01*
G01X29644Y46574D01*
G01X29697Y46636D01*
G01X29746Y46695D01*
G01X29790Y46750D01*
G01X29824Y46798D01*
G01X29848Y46837D01*
G01X29874Y46880D01*
G01X29899Y46909D01*
G01X29923Y46925D01*
G01X29946Y46926D01*
G01X29969Y46913D01*
G01X29993Y46886D01*
G01X30017Y46845D01*
G01X30043Y46789D01*
G01X30064Y46745D01*
G01X30092Y46699D01*
G01X30124Y46652D01*
G01X30159Y46606D01*
G01X30196Y46563D01*
G01X30231Y46526D01*
G01X30263Y46495D01*
G01X30292Y46473D01*
G01X30313Y46461D01*
G01X30328Y46461D01*
G01X30332Y46475D01*
G01X30324Y46506D01*
G01X30318Y46532D01*
G01X30319Y46560D01*
G01X30329Y46590D01*
G01X30346Y46622D01*
G01X30373Y46659D01*
G01X30410Y46700D01*
G01X30457Y46746D01*
G01X30514Y46800D01*
G01X30579Y46859D01*
G01X30630Y46911D01*
G01X30670Y46956D01*
G01X30698Y46999D01*
G01X30718Y47042D01*
G01X30730Y47087D01*
G01X30736Y47137D01*
G01X30738Y47196D01*
G01X30740Y47295D01*
G01X30751Y47345D01*
G01X30774Y47354D01*
G01X30812Y47329D01*
G01X30841Y47298D01*
G01X30865Y47260D01*
G01X30880Y47219D01*
G01X30886Y47180D01*
G01X30896Y47138D01*
G01X30928Y47107D01*
G01X30985Y47086D01*
G01X31072Y47070D01*
G01X31151Y47064D01*
G01X31229Y47062D01*
G01X31298Y47064D01*
G01X31348Y47072D01*
G01X31386Y47089D01*
G01X31420Y47118D01*
G01X31451Y47158D01*
G01X31478Y47208D01*
G01X31500Y47266D01*
G01X31516Y47332D01*
G01X31526Y47403D01*
G01X31530Y47479D01*
G01X31534Y47543D01*
G01X31546Y47615D01*
G01X31563Y47683D01*
G01X31584Y47741D01*
G01X31604Y47800D01*
G01X31610Y47858D01*
G01X31604Y47912D01*
G01X31587Y47961D01*
G01X31560Y48005D01*
G01X31523Y48043D01*
G01X31480Y48073D01*
G01X31431Y48093D01*
G01X31377Y48105D01*
G01X31320Y48105D01*
G01X31261Y48093D01*
G01X31201Y48067D01*
G01X31136Y48038D01*
G01X31088Y48030D01*
G01X31046Y48046D01*
G01X31000Y48085D01*
G01X30979Y48108D01*
G01X30964Y48130D01*
G01X30953Y48151D01*
G01X30948Y48172D01*
G01X30949Y48192D01*
G01X30955Y48211D01*
G01X30966Y48229D01*
G01X30983Y48246D01*
G01X31005Y48262D01*
G01X31033Y48278D01*
G01X31066Y48293D01*
G01X31104Y48307D01*
G01X31149Y48320D01*
G01X31199Y48332D01*
G01X31254Y48344D01*
G01X31316Y48354D01*
G01X31382Y48365D01*
G01X31455Y48374D01*
G01X31533Y48383D01*
G01X31617Y48391D01*
G01X31707Y48398D01*
G01X31803Y48405D01*
G01X31904Y48410D01*
G01X32011Y48415D01*
G01X32046Y48426D01*
G01X32091Y48453D01*
G01X32145Y48493D01*
G01X32205Y48544D01*
G01X32268Y48603D01*
G01X32332Y48667D01*
G01X32393Y48734D01*
G01X32450Y48800D01*
G01X32498Y48862D01*
G01X32536Y48918D01*
G01X32560Y48965D01*
G01X32569Y48999D01*
G01X32560Y49051D01*
G01X32535Y49115D01*
G01X32497Y49182D01*
G01X32451Y49243D01*
G01X32385Y49315D01*
G01X32337Y49347D01*
G01X32294Y49343D01*
G01X32241Y49308D01*
G01X32192Y49270D01*
G01X32174Y49260D01*
G01X32182Y49277D01*
G01X32216Y49321D01*
G01X32248Y49370D01*
G01X32254Y49412D01*
G01X32234Y49458D01*
G01X32184Y49519D01*
G01X32109Y49604D01*
G01X32042Y49680D01*
G01X31981Y49749D01*
G01X31928Y49811D01*
G01X31881Y49867D01*
G01X31840Y49918D01*
G01X31805Y49963D01*
G01X31774Y50004D01*
G01X31748Y50042D01*
G01X31727Y50076D01*
G01X31709Y50108D01*
G01X31695Y50138D01*
G01X31683Y50167D01*
G01X31673Y50195D01*
G01X31666Y50224D01*
G01X31660Y50253D01*
G01X31650Y50292D01*
G01X31635Y50336D01*
G01X31614Y50382D01*
G01X31589Y50430D01*
G01X31561Y50478D01*
G01X31531Y50525D01*
G01X31498Y50568D01*
G01X31465Y50607D01*
G01X31382Y50703D01*
G01X31342Y50770D01*
G01X31338Y50821D01*
G01X31366Y50874D01*
G01X31391Y50919D01*
G01X31412Y50979D01*
G01X31426Y51045D01*
G01X31431Y51110D01*
G01X31431Y51258D01*
G01X31290Y51124D01*
G01X31245Y51083D01*
G01X31202Y51052D01*
G01X31163Y51031D01*
G01X31127Y51020D01*
G01X31094Y51020D01*
G01X31062Y51031D01*
G01X31033Y51052D01*
G01X31005Y51086D01*
G01X30979Y51129D01*
G01X30953Y51185D01*
G01X30929Y51251D01*
G01X30904Y51330D01*
G01X30880Y51402D01*
G01X30852Y51473D01*
G01X30820Y51540D01*
G01X30784Y51604D01*
G01X30746Y51663D01*
G01X30706Y51717D01*
G01X30664Y51765D01*
G01X30621Y51805D01*
G01X30579Y51838D01*
G01X30537Y51863D01*
G01X30496Y51878D01*
G01X30457Y51884D01*
G01X30409Y51898D01*
G01X30348Y51937D01*
G01X30280Y51995D01*
G01X30213Y52066D01*
G01X30164Y52124D01*
G01X30120Y52168D01*
G01X30079Y52201D01*
G01X30036Y52224D01*
G01X29985Y52240D01*
G01X29922Y52249D01*
G01X29843Y52255D01*
G01X29742Y52258D01*
G01X29696Y52259D01*
G37*

%LPC*%
G36*
G01X28407Y44935D02*
G01X28399Y44954D01*
G01X28329Y44951D01*
G01X28237Y44932D01*
G01X28164Y44901D01*
G01X28137Y44879D01*
G01X28140Y44870D01*
G01X28173Y44871D01*
G01X28238Y44884D01*
G01X28297Y44899D01*
G01X28348Y44913D01*
G01X28387Y44925D01*
G01X28407Y44935D01*
G37*
G36*
G01X20639Y45573D02*
G01X20623Y45597D01*
G01X20585Y45592D01*
G01X20535Y45563D01*
G01X20484Y45514D01*
G01X20451Y45472D01*
G01X20444Y45454D01*
G01X20469Y45461D01*
G01X20527Y45491D01*
G01X20570Y45516D01*
G01X20606Y45540D01*
G01X20630Y45560D01*
G01X20639Y45573D01*
G37*
G36*
G01X19866Y45545D02*
G01X19847Y45547D01*
G01X19827Y45543D01*
G01X19812Y45532D01*
G01X19801Y45515D01*
G01X19797Y45494D01*
G01X19801Y45477D01*
G01X19812Y45467D01*
G01X19827Y45465D01*
G01X19847Y45473D01*
G01X19866Y45486D01*
G01X19882Y45501D01*
G01X19892Y45514D01*
G01X19896Y45525D01*
G01X19892Y45534D01*
G01X19882Y45541D01*
G01X19866Y45545D01*
G37*
G36*
G01X16833Y45641D02*
G01X16798Y45642D01*
G01X16764Y45639D01*
G01X16747Y45632D01*
G01X16748Y45623D01*
G01X16768Y45612D01*
G01X16796Y45604D01*
G01X16822Y45603D01*
G01X16846Y45606D01*
G01X16863Y45616D01*
G01X16867Y45627D01*
G01X16856Y45636D01*
G01X16833Y45641D01*
G37*
G36*
G01X27216Y51162D02*
G01X27198Y51169D01*
G01X27174Y51161D01*
G01X27146Y51139D01*
G01X27115Y51106D01*
G01X27080Y51063D01*
G01X27046Y51011D01*
G01X27011Y50953D01*
G01X26977Y50891D01*
G01X26946Y50827D01*
G01X26919Y50761D01*
G01X26896Y50697D01*
G01X26880Y50636D01*
G01X26865Y50566D01*
G01X26852Y50496D01*
G01X26842Y50426D01*
G01X26834Y50357D01*
G01X26827Y50288D01*
G01X26824Y50220D01*
G01X26822Y50153D01*
G01X26822Y50088D01*
G01X26824Y50023D01*
G01X26829Y49960D01*
G01X26835Y49898D01*
G01X26843Y49838D01*
G01X26853Y49779D01*
G01X26865Y49723D01*
G01X26879Y49668D01*
G01X26895Y49616D01*
G01X26913Y49566D01*
G01X26933Y49517D01*
G01X26954Y49472D01*
G01X26977Y49429D01*
G01X27003Y49389D01*
G01X27030Y49352D01*
G01X27059Y49317D01*
G01X27089Y49286D01*
G01X27192Y49189D01*
G01X27071Y49160D01*
G01X27032Y49150D01*
G01X27003Y49135D01*
G01X26982Y49112D01*
G01X26968Y49074D01*
G01X26960Y49017D01*
G01X26957Y48934D01*
G01X26957Y48821D01*
G01X26959Y48673D01*
G01X26961Y48558D01*
G01X26960Y48462D01*
G01X26958Y48384D01*
G01X26952Y48324D01*
G01X26945Y48279D01*
G01X26936Y48250D01*
G01X26924Y48235D01*
G01X26910Y48234D01*
G01X26897Y48245D01*
G01X26884Y48268D01*
G01X26874Y48302D01*
G01X26865Y48347D01*
G01X26857Y48403D01*
G01X26852Y48470D01*
G01X26847Y48546D01*
G01X26845Y48631D01*
G01X26843Y48745D01*
G01X26839Y48841D01*
G01X26834Y48921D01*
G01X26827Y48986D01*
G01X26816Y49039D01*
G01X26803Y49080D01*
G01X26784Y49110D01*
G01X26761Y49132D01*
G01X26733Y49147D01*
G01X26698Y49156D01*
G01X26657Y49160D01*
G01X26609Y49161D01*
G01X26552Y49161D01*
G01X26509Y49165D01*
G01X26478Y49174D01*
G01X26456Y49191D01*
G01X26441Y49220D01*
G01X26431Y49261D01*
G01X26424Y49319D01*
G01X26418Y49396D01*
G01X26399Y49631D01*
G01X26390Y49399D01*
G01X26387Y49323D01*
G01X26382Y49265D01*
G01X26373Y49223D01*
G01X26359Y49194D01*
G01X26336Y49175D01*
G01X26303Y49164D01*
G01X26256Y49157D01*
G01X26196Y49152D01*
G01X26010Y49136D01*
G01X25996Y48257D01*
G01X25983Y47379D01*
G01X26497Y47379D01*
G01X26590Y47382D01*
G01X26662Y47387D01*
G01X26717Y47396D01*
G01X26758Y47409D01*
G01X26787Y47427D01*
G01X26810Y47452D01*
G01X26830Y47483D01*
G01X26849Y47538D01*
G01X26861Y47608D01*
G01X26862Y47685D01*
G01X26852Y47764D01*
G01X26837Y47857D01*
G01X26837Y47901D01*
G01X26856Y47906D01*
G01X26897Y47877D01*
G01X26930Y47835D01*
G01X26954Y47772D01*
G01X26970Y47692D01*
G01X26975Y47595D01*
G01X26978Y47474D01*
G01X26996Y47410D01*
G01X27039Y47383D01*
G01X27120Y47379D01*
G01X27177Y47383D01*
G01X27227Y47394D01*
G01X27263Y47410D01*
G01X27281Y47430D01*
G01X27291Y47446D01*
G01X27309Y47453D01*
G01X27333Y47454D01*
G01X27363Y47448D01*
G01X27398Y47435D01*
G01X27438Y47417D01*
G01X27482Y47393D01*
G01X27530Y47364D01*
G01X27581Y47331D01*
G01X27634Y47294D01*
G01X27689Y47254D01*
G01X27745Y47210D01*
G01X27802Y47164D01*
G01X27859Y47115D01*
G01X27915Y47066D01*
G01X27970Y47015D01*
G01X28024Y46964D01*
G01X28075Y46912D01*
G01X28123Y46860D01*
G01X28168Y46809D01*
G01X28209Y46760D01*
G01X28245Y46712D01*
G01X28275Y46666D01*
G01X28300Y46623D01*
G01X28326Y46569D01*
G01X28348Y46514D01*
G01X28368Y46456D01*
G01X28385Y46398D01*
G01X28399Y46339D01*
G01X28409Y46279D01*
G01X28417Y46220D01*
G01X28422Y46162D01*
G01X28423Y46105D01*
G01X28421Y46049D01*
G01X28416Y45995D01*
G01X28408Y45944D01*
G01X28396Y45895D01*
G01X28381Y45850D01*
G01X28364Y45808D01*
G01X28342Y45771D01*
G01X28311Y45723D01*
G01X28286Y45679D01*
G01X28269Y45647D01*
G01X28263Y45630D01*
G01X28302Y45619D01*
G01X28390Y45635D01*
G01X28484Y45666D01*
G01X28538Y45701D01*
G01X28541Y45715D01*
G01X28532Y45722D01*
G01X28510Y45721D01*
G01X28479Y45711D01*
G01X28438Y45699D01*
G01X28418Y45703D01*
G01X28417Y45728D01*
G01X28433Y45773D01*
G01X28451Y45828D01*
G01X28468Y45907D01*
G01X28484Y46000D01*
G01X28497Y46096D01*
G01X28500Y46143D01*
G01X28500Y46192D01*
G01X28497Y46241D01*
G01X28491Y46292D01*
G01X28482Y46343D01*
G01X28470Y46396D01*
G01X28456Y46448D01*
G01X28439Y46501D01*
G01X28419Y46554D01*
G01X28397Y46607D01*
G01X28372Y46660D01*
G01X28346Y46712D01*
G01X28317Y46763D01*
G01X28286Y46814D01*
G01X28253Y46865D01*
G01X28219Y46913D01*
G01X28182Y46960D01*
G01X28144Y47006D01*
G01X28105Y47050D01*
G01X28064Y47092D01*
G01X28022Y47132D01*
G01X27978Y47170D01*
G01X27933Y47205D01*
G01X27888Y47237D01*
G01X27833Y47276D01*
G01X27791Y47309D01*
G01X27761Y47341D01*
G01X27741Y47376D01*
G01X27730Y47417D01*
G01X27725Y47471D01*
G01X27725Y47539D01*
G01X27729Y47626D01*
G01X27739Y47759D01*
G01X27758Y47844D01*
G01X27787Y47893D01*
G01X27829Y47914D01*
G01X27874Y47913D01*
G01X27900Y47878D01*
G01X27913Y47797D01*
G01X27916Y47654D01*
G01X27916Y47379D01*
G01X28259Y47379D01*
G01X28287Y48282D01*
G01X28650Y47946D01*
G01X28700Y47898D01*
G01X28751Y47848D01*
G01X28802Y47796D01*
G01X28852Y47742D01*
G01X28901Y47689D01*
G01X28948Y47635D01*
G01X28993Y47582D01*
G01X29034Y47531D01*
G01X29072Y47483D01*
G01X29105Y47437D01*
G01X29134Y47395D01*
G01X29157Y47358D01*
G01X29213Y47267D01*
G01X29259Y47203D01*
G01X29290Y47174D01*
G01X29301Y47185D01*
G01X29299Y47207D01*
G01X29293Y47234D01*
G01X29283Y47264D01*
G01X29268Y47296D01*
G01X29250Y47332D01*
G01X29228Y47371D01*
G01X29202Y47412D01*
G01X29173Y47454D01*
G01X29141Y47500D01*
G01X29106Y47546D01*
G01X29069Y47595D01*
G01X29029Y47645D01*
G01X28985Y47696D01*
G01X28940Y47747D01*
G01X28893Y47800D01*
G01X28844Y47853D01*
G01X28792Y47906D01*
G01X28740Y47960D01*
G01X28686Y48013D01*
G01X28630Y48065D01*
G01X28263Y48409D01*
G01X28263Y48689D01*
G01X28262Y48787D01*
G01X28258Y48871D01*
G01X28250Y48941D01*
G01X28238Y48999D01*
G01X28219Y49046D01*
G01X28195Y49083D01*
G01X28163Y49112D01*
G01X28121Y49132D01*
G01X28071Y49146D01*
G01X28009Y49155D01*
G01X27935Y49160D01*
G01X27850Y49161D01*
G01X27786Y49160D01*
G01X27724Y49156D01*
G01X27666Y49151D01*
G01X27613Y49144D01*
G01X27567Y49135D01*
G01X27529Y49125D01*
G01X27500Y49114D01*
G01X27481Y49102D01*
G01X27449Y49079D01*
G01X27415Y49075D01*
G01X27376Y49093D01*
G01X27327Y49132D01*
G01X27298Y49163D01*
G01X27264Y49208D01*
G01X27226Y49264D01*
G01X27187Y49328D01*
G01X27148Y49398D01*
G01X27109Y49470D01*
G01X27073Y49541D01*
G01X27041Y49608D01*
G01X27015Y49670D01*
G01X26996Y49722D01*
G01X26985Y49762D01*
G01X26984Y49788D01*
G01X26984Y49812D01*
G01X26974Y49851D01*
G01X26957Y49896D01*
G01X26933Y49944D01*
G01X26915Y49984D01*
G01X26903Y50031D01*
G01X26895Y50087D01*
G01X26890Y50148D01*
G01X26889Y50214D01*
G01X26893Y50285D01*
G01X26899Y50359D01*
G01X26909Y50434D01*
G01X26921Y50510D01*
G01X26936Y50586D01*
G01X26954Y50661D01*
G01X26974Y50733D01*
G01X26995Y50803D01*
G01X27019Y50868D01*
G01X27044Y50927D01*
G01X27070Y50980D01*
G01X27098Y51025D01*
G01X27126Y51062D01*
G01X27155Y51089D01*
G01X27185Y51105D01*
G01X27206Y51116D01*
G01X27220Y51131D01*
G01X27223Y51147D01*
G01X27216Y51162D01*
G37*
G36*
G01X28161Y45729D02*
G01X28149Y45741D01*
G01X28119Y45729D01*
G01X28064Y45696D01*
G01X28029Y45671D01*
G01X28019Y45656D01*
G01X28034Y45649D01*
G01X28077Y45647D01*
G01X28110Y45650D01*
G01X28138Y45661D01*
G01X28156Y45676D01*
G01X28164Y45696D01*
G01X28161Y45729D01*
G37*
G36*
G01X24425Y47469D02*
G01X24409Y47476D01*
G01X24365Y47464D01*
G01X24310Y47432D01*
G01X24251Y47383D01*
G01X24192Y47323D01*
G01X24138Y47257D01*
G01X24093Y47190D01*
G01X24061Y47127D01*
G01X24048Y47073D01*
G01X24044Y46991D01*
G01X24038Y46823D01*
G01X24036Y46739D01*
G01X24035Y46656D01*
G01X24034Y46574D01*
G01X24033Y46494D01*
G01X24034Y46417D01*
G01X24035Y46343D01*
G01X24037Y46273D01*
G01X24039Y46208D01*
G01X24041Y46148D01*
G01X24044Y46093D01*
G01X24048Y46046D01*
G01X24052Y46006D01*
G01X24056Y45973D01*
G01X24061Y45949D01*
G01X24067Y45934D01*
G01X24072Y45929D01*
G01X24078Y45934D01*
G01X24085Y45950D01*
G01X24091Y45976D01*
G01X24098Y46010D01*
G01X24104Y46051D01*
G01X24110Y46098D01*
G01X24116Y46153D01*
G01X24121Y46212D01*
G01X24126Y46276D01*
G01X24131Y46344D01*
G01X24134Y46414D01*
G01X24140Y46562D01*
G01X24143Y46682D01*
G01X24146Y46789D01*
G01X24150Y46883D01*
G01X24154Y46966D01*
G01X24159Y47039D01*
G01X24166Y47101D01*
G01X24174Y47155D01*
G01X24183Y47201D01*
G01X24194Y47240D01*
G01X24207Y47274D01*
G01X24222Y47302D01*
G01X24240Y47326D01*
G01X24261Y47347D01*
G01X24284Y47366D01*
G01X24310Y47383D01*
G01X24340Y47400D01*
G01X24387Y47429D01*
G01X24416Y47453D01*
G01X24425Y47469D01*
G37*
G36*
G01X19852Y45988D02*
G01X19818Y45989D01*
G01X19783Y45985D01*
G01X19766Y45979D01*
G01X19768Y45969D01*
G01X19788Y45959D01*
G01X19816Y45951D01*
G01X19842Y45949D01*
G01X19866Y45953D01*
G01X19883Y45962D01*
G01X19887Y45974D01*
G01X19876Y45983D01*
G01X19852Y45988D01*
G37*
G36*
G01X23515Y47027D02*
G01X23481Y47028D01*
G01X23447Y47025D01*
G01X23429Y47018D01*
G01X23431Y47009D01*
G01X23451Y46998D01*
G01X23479Y46991D01*
G01X23506Y46988D01*
G01X23530Y46993D01*
G01X23546Y47002D01*
G01X23550Y47013D01*
G01X23539Y47022D01*
G01X23515Y47027D01*
G37*
G36*
G01X16684Y47225D02*
G01X16649Y47226D01*
G01X16615Y47223D01*
G01X16598Y47216D01*
G01X16599Y47207D01*
G01X16620Y47196D01*
G01X16647Y47189D01*
G01X16674Y47187D01*
G01X16697Y47191D01*
G01X16714Y47200D01*
G01X16718Y47211D01*
G01X16708Y47220D01*
G01X16684Y47225D01*
G37*
G36*
G01X21400Y47328D02*
G01X21331Y47328D01*
G01X21257Y47313D01*
G01X21213Y47287D01*
G01X21212Y47272D01*
G01X21230Y47264D01*
G01X21263Y47262D01*
G01X21309Y47268D01*
G01X21356Y47279D01*
G01X21395Y47290D01*
G01X21421Y47301D01*
G01X21431Y47310D01*
G01X21400Y47328D01*
G37*
G36*
G01X23064Y49161D02*
G01X22768Y49161D01*
G01X22768Y47373D01*
G01X22928Y47388D01*
G01X23016Y47400D01*
G01X23063Y47426D01*
G01X23079Y47478D01*
G01X23076Y47571D01*
G01X23075Y47641D01*
G01X23083Y47709D01*
G01X23098Y47766D01*
G01X23119Y47806D01*
G01X23143Y47838D01*
G01X23150Y47859D01*
G01X23141Y47870D01*
G01X23116Y47873D01*
G01X23090Y47887D01*
G01X23073Y47927D01*
G01X23066Y47993D01*
G01X23067Y48084D01*
G01X23068Y48116D01*
G01X23069Y48155D01*
G01X23070Y48200D01*
G01X23071Y48249D01*
G01X23072Y48303D01*
G01X23072Y48360D01*
G01X23073Y48420D01*
G01X23073Y48543D01*
G01X23072Y48605D01*
G01X23072Y48667D01*
G01X23071Y48727D01*
G01X23064Y49161D01*
G37*
G36*
G01X25701Y49152D02*
G01X25540Y49167D01*
G01X25532Y48591D01*
G01X25433Y48876D01*
G01X25402Y48963D01*
G01X25375Y49030D01*
G01X25351Y49080D01*
G01X25326Y49115D01*
G01X25300Y49139D01*
G01X25270Y49153D01*
G01X25233Y49159D01*
G01X25189Y49161D01*
G01X25044Y49161D01*
G01X25040Y48690D01*
G01X25039Y48593D01*
G01X25038Y48498D01*
G01X25037Y48407D01*
G01X25036Y48322D01*
G01X25036Y48246D01*
G01X25035Y48182D01*
G01X25035Y47857D01*
G01X25036Y47761D01*
G01X25037Y47678D01*
G01X25039Y47608D01*
G01X25042Y47550D01*
G01X25047Y47503D01*
G01X25054Y47465D01*
G01X25062Y47436D01*
G01X25073Y47414D01*
G01X25086Y47399D01*
G01X25101Y47389D01*
G01X25119Y47383D01*
G01X25140Y47380D01*
G01X25165Y47379D01*
G01X25246Y47379D01*
G01X25285Y47384D01*
G01X25313Y47397D01*
G01X25332Y47424D01*
G01X25343Y47468D01*
G01X25348Y47534D01*
G01X25349Y47627D01*
G01X25348Y47750D01*
G01X25345Y47997D01*
G01X25421Y47828D01*
G01X25449Y47756D01*
G01X25469Y47685D01*
G01X25479Y47623D01*
G01X25477Y47579D01*
G01X25472Y47537D01*
G01X25481Y47498D01*
G01X25501Y47463D01*
G01X25532Y47433D01*
G01X25571Y47410D01*
G01X25617Y47394D01*
G01X25670Y47386D01*
G01X25727Y47388D01*
G01X25861Y47404D01*
G01X25861Y49136D01*
G01X25701Y49152D01*
G37*
G36*
G01X23381Y49161D02*
G01X23213Y49161D01*
G01X23213Y47379D01*
G01X23386Y47379D01*
G01X23453Y47383D01*
G01X23509Y47393D01*
G01X23546Y47409D01*
G01X23560Y47428D01*
G01X23565Y47447D01*
G01X23581Y47463D01*
G01X23605Y47474D01*
G01X23634Y47478D01*
G01X23663Y47474D01*
G01X23686Y47463D01*
G01X23702Y47447D01*
G01X23708Y47428D01*
G01X23722Y47409D01*
G01X23759Y47393D01*
G01X23814Y47383D01*
G01X23881Y47379D01*
G01X24054Y47379D01*
G01X24056Y47614D01*
G01X24056Y47674D01*
G01X24057Y47713D01*
G01X24057Y47757D01*
G01X24058Y47805D01*
G01X24059Y47857D01*
G01X24059Y47914D01*
G01X24060Y47972D01*
G01X24061Y48034D01*
G01X24062Y48098D01*
G01X24064Y48232D01*
G01X24066Y48368D01*
G01X24068Y48437D01*
G01X24069Y48505D01*
G01X24079Y49161D01*
G01X23716Y49161D01*
G01X23716Y48934D01*
G01X23715Y48862D01*
G01X23713Y48803D01*
G01X23709Y48757D01*
G01X23704Y48723D01*
G01X23698Y48702D01*
G01X23690Y48694D01*
G01X23680Y48698D01*
G01X23669Y48716D01*
G01X23656Y48745D01*
G01X23642Y48788D01*
G01X23627Y48843D01*
G01X23610Y48911D01*
G01X23590Y48990D01*
G01X23572Y49051D01*
G01X23554Y49095D01*
G01X23534Y49126D01*
G01X23509Y49145D01*
G01X23477Y49156D01*
G01X23435Y49160D01*
G01X23381Y49161D01*
G37*
G36*
G01X19188Y49387D02*
G01X19170Y49401D01*
G01X19184Y49374D01*
G01X19228Y49300D01*
G01X19273Y49223D01*
G01X19279Y49182D01*
G01X19240Y49163D01*
G01X19149Y49152D01*
G01X19098Y49145D01*
G01X19057Y49135D01*
G01X19024Y49116D01*
G01X18995Y49087D01*
G01X18967Y49043D01*
G01X18939Y48981D01*
G01X18907Y48898D01*
G01X18869Y48789D01*
G01X18844Y48720D01*
G01X18821Y48654D01*
G01X18799Y48593D01*
G01X18780Y48540D01*
G01X18762Y48495D01*
G01X18749Y48461D01*
G01X18739Y48437D01*
G01X18734Y48427D01*
G01X18723Y48436D01*
G01X18706Y48472D01*
G01X18684Y48528D01*
G01X18660Y48600D01*
G01X18634Y48682D01*
G01X18607Y48763D01*
G01X18581Y48835D01*
G01X18560Y48888D01*
G01X18542Y48934D01*
G01X18523Y48984D01*
G01X18505Y49033D01*
G01X18491Y49074D01*
G01X18470Y49112D01*
G01X18433Y49139D01*
G01X18380Y49155D01*
G01X18313Y49161D01*
G01X18256Y49161D01*
G01X18240Y49159D01*
G01X18226Y49156D01*
G01X18213Y49150D01*
G01X18202Y49141D01*
G01X18193Y49128D01*
G01X18184Y49111D01*
G01X18177Y49089D01*
G01X18171Y49061D01*
G01X18166Y49027D01*
G01X18162Y48985D01*
G01X18158Y48937D01*
G01X18156Y48880D01*
G01X18154Y48815D01*
G01X18153Y48740D01*
G01X18153Y48452D01*
G01X18154Y48333D01*
G01X18155Y48202D01*
G01X18157Y48057D01*
G01X18158Y47898D01*
G01X18164Y47379D01*
G01X18460Y47379D01*
G01X18462Y47737D01*
G01X18463Y47854D01*
G01X18465Y47939D01*
G01X18468Y47997D01*
G01X18473Y48028D01*
G01X18482Y48035D01*
G01X18494Y48021D01*
G01X18512Y47987D01*
G01X18534Y47935D01*
G01X18574Y47858D01*
G01X18617Y47809D01*
G01X18669Y47782D01*
G01X18735Y47774D01*
G01X18794Y47780D01*
G01X18840Y47799D01*
G01X18872Y47830D01*
G01X18892Y47873D01*
G01X18920Y47939D01*
G01X18953Y47970D01*
G01X18981Y47962D01*
G01X18992Y47911D01*
G01X18992Y47868D01*
G01X18993Y47798D01*
G01X18994Y47710D01*
G01X18997Y47614D01*
G01X19005Y47482D01*
G01X19025Y47412D01*
G01X19069Y47384D01*
G01X19152Y47379D01*
G01X19298Y47379D01*
G01X19312Y48304D01*
G01X19315Y48453D01*
G01X19316Y48585D01*
G01X19317Y48701D01*
G01X19317Y48895D01*
G01X19316Y48972D01*
G01X19313Y49039D01*
G01X19310Y49097D01*
G01X19306Y49145D01*
G01X19300Y49187D01*
G01X19293Y49221D01*
G01X19285Y49250D01*
G01X19275Y49274D01*
G01X19264Y49295D01*
G01X19252Y49314D01*
G01X19237Y49331D01*
G01X19188Y49387D01*
G37*
G36*
G01X21733Y49153D02*
G01X21644Y49154D01*
G01X21572Y49152D01*
G01X21514Y49147D01*
G01X21469Y49140D01*
G01X21437Y49129D01*
G01X21415Y49115D01*
G01X21404Y49099D01*
G01X21401Y49082D01*
G01X21398Y49052D01*
G01X21395Y49009D01*
G01X21393Y48954D01*
G01X21391Y48888D01*
G01X21390Y48813D01*
G01X21389Y48729D01*
G01X21389Y48540D01*
G01X21390Y48437D01*
G01X21391Y48329D01*
G01X21392Y48218D01*
G01X21406Y47404D01*
G01X21839Y47389D01*
G01X21981Y47385D01*
G01X22087Y47383D01*
G01X22163Y47385D01*
G01X22213Y47391D01*
G01X22243Y47404D01*
G01X22256Y47423D01*
G01X22257Y47451D01*
G01X22251Y47488D01*
G01X22235Y47586D01*
G01X22230Y47630D01*
G01X22227Y47663D01*
G01X22209Y47690D01*
G01X22161Y47709D01*
G01X22083Y47721D01*
G01X21975Y47725D01*
G01X21728Y47725D01*
G01X21728Y47923D01*
G01X21731Y47999D01*
G01X21739Y48061D01*
G01X21751Y48102D01*
G01X21765Y48115D01*
G01X21792Y48114D01*
G01X21838Y48113D01*
G01X21897Y48114D01*
G01X21963Y48115D01*
G01X22051Y48123D01*
G01X22099Y48146D01*
G01X22120Y48198D01*
G01X22124Y48289D01*
G01X22121Y48387D01*
G01X22099Y48434D01*
G01X22040Y48444D01*
G01X21926Y48432D01*
G01X21728Y48405D01*
G01X21728Y48814D01*
G01X22037Y48815D01*
G01X22160Y48818D01*
G01X22244Y48827D01*
G01X22286Y48840D01*
G01X22280Y48857D01*
G01X22256Y48883D01*
G01X22239Y48922D01*
G01X22230Y48969D01*
G01X22231Y49018D01*
G01X22235Y49056D01*
G01X22233Y49085D01*
G01X22219Y49107D01*
G01X22190Y49122D01*
G01X22143Y49133D01*
G01X22071Y49140D01*
G01X21971Y49145D01*
G01X21838Y49151D01*
G01X21733Y49153D01*
G37*
G36*
G01X30216Y49782D02*
G01X30218Y49804D01*
G01X30203Y49782D01*
G01X30169Y49721D01*
G01X30123Y49630D01*
G01X30070Y49520D01*
G01X30042Y49460D01*
G01X30014Y49402D01*
G01X29986Y49345D01*
G01X29960Y49292D01*
G01X29937Y49244D01*
G01X29917Y49202D01*
G01X29888Y49144D01*
G01X29868Y49091D01*
G01X29848Y49013D01*
G01X29829Y48920D01*
G01X29816Y48823D01*
G01X29811Y48765D01*
G01X29810Y48710D01*
G01X29814Y48656D01*
G01X29820Y48604D01*
G01X29831Y48555D01*
G01X29847Y48505D01*
G01X29866Y48458D01*
G01X29890Y48410D01*
G01X29918Y48364D01*
G01X29952Y48317D01*
G01X29990Y48271D01*
G01X30033Y48223D01*
G01X30082Y48176D01*
G01X30136Y48128D01*
G01X30196Y48079D01*
G01X30261Y48028D01*
G01X30329Y47974D01*
G01X30392Y47920D01*
G01X30449Y47866D01*
G01X30500Y47812D01*
G01X30546Y47759D01*
G01X30585Y47707D01*
G01X30618Y47655D01*
G01X30644Y47606D01*
G01X30679Y47532D01*
G01X30709Y47482D01*
G01X30729Y47458D01*
G01X30737Y47467D01*
G01X30733Y47507D01*
G01X30721Y47552D01*
G01X30701Y47602D01*
G01X30675Y47657D01*
G01X30642Y47713D01*
G01X30602Y47773D01*
G01X30558Y47834D01*
G01X30508Y47896D01*
G01X30455Y47958D01*
G01X30397Y48019D01*
G01X30337Y48078D01*
G01X30274Y48135D01*
G01X30210Y48191D01*
G01X30154Y48245D01*
G01X30104Y48298D01*
G01X30059Y48349D01*
G01X30021Y48400D01*
G01X29989Y48449D01*
G01X29962Y48499D01*
G01X29942Y48550D01*
G01X29926Y48600D01*
G01X29917Y48652D01*
G01X29912Y48704D01*
G01X29913Y48758D01*
G01X29918Y48814D01*
G01X29929Y48873D01*
G01X29945Y48933D01*
G01X29965Y48997D01*
G01X29983Y49050D01*
G01X30004Y49112D01*
G01X30026Y49178D01*
G01X30050Y49249D01*
G01X30097Y49390D01*
G01X30119Y49457D01*
G01X30140Y49520D01*
G01X30175Y49630D01*
G01X30201Y49721D01*
G01X30216Y49782D01*
G37*
G36*
G01X28394Y48068D02*
G01X28383Y48072D01*
G01X28375Y48068D01*
G01X28368Y48057D01*
G01X28363Y48042D01*
G01X28362Y48022D01*
G01X28366Y48003D01*
G01X28377Y47987D01*
G01X28394Y47977D01*
G01X28414Y47972D01*
G01X28432Y47977D01*
G01X28442Y47987D01*
G01X28443Y48003D01*
G01X28436Y48022D01*
G01X28422Y48042D01*
G01X28408Y48057D01*
G01X28394Y48068D01*
G37*
G36*
G01X29493Y48458D02*
G01X29451Y48460D01*
G01X29408Y48458D01*
G01X29381Y48453D01*
G01X29375Y48444D01*
G01X29389Y48435D01*
G01X29418Y48427D01*
G01X29451Y48425D01*
G01X29483Y48427D01*
G01X29512Y48435D01*
G01X29526Y48444D01*
G01X29520Y48453D01*
G01X29493Y48458D01*
G37*
G36*
G01X17429Y48876D02*
G01X17387Y48887D01*
G01X17372Y48886D01*
G01X17384Y48868D01*
G01X17419Y48843D01*
G01X17470Y48815D01*
G01X17529Y48786D01*
G01X17590Y48759D01*
G01X17646Y48738D01*
G01X17691Y48725D01*
G01X17719Y48724D01*
G01X17721Y48737D01*
G01X17693Y48760D01*
G01X17640Y48789D01*
G01X17567Y48823D01*
G01X17491Y48853D01*
G01X17429Y48876D01*
G37*
G36*
G01X20531Y49781D02*
G01X20499Y49790D01*
G01X20505Y49772D01*
G01X20547Y49728D01*
G01X20584Y49697D01*
G01X20623Y49675D01*
G01X20659Y49663D01*
G01X20689Y49664D01*
G01X20701Y49677D01*
G01X20690Y49697D01*
G01X20657Y49722D01*
G01X20607Y49748D01*
G01X20531Y49781D01*
G37*
G36*
G01X27179Y49800D02*
G01X27144Y49800D01*
G01X27110Y49797D01*
G01X27093Y49791D01*
G01X27094Y49781D01*
G01X27115Y49770D01*
G01X27142Y49763D01*
G01X27169Y49761D01*
G01X27193Y49765D01*
G01X27210Y49774D01*
G01X27214Y49786D01*
G01X27203Y49794D01*
G01X27179Y49800D01*
G37*
G36*
G01X31025Y50737D02*
G01X31021Y50745D01*
G01X31007Y50742D01*
G01X30992Y50732D01*
G01X30977Y50719D01*
G01X30965Y50702D01*
G01X30938Y50682D01*
G01X30884Y50657D01*
G01X30811Y50630D01*
G01X30726Y50606D01*
G01X30679Y50595D01*
G01X30626Y50582D01*
G01X30568Y50567D01*
G01X30507Y50552D01*
G01X30446Y50536D01*
G01X30387Y50521D01*
G01X30330Y50507D01*
G01X30278Y50494D01*
G01X30222Y50478D01*
G01X30171Y50460D01*
G01X30122Y50439D01*
G01X30078Y50416D01*
G01X30037Y50391D01*
G01X30001Y50364D01*
G01X29970Y50335D01*
G01X29944Y50305D01*
G01X29903Y50251D01*
G01X29831Y50155D01*
G01X29808Y50126D01*
G01X29798Y50097D01*
G01X29799Y50055D01*
G01X29810Y50005D01*
G01X29831Y49953D01*
G01X29895Y49829D01*
G01X29895Y49983D01*
G01X29898Y50027D01*
G01X29905Y50070D01*
G01X29916Y50110D01*
G01X29932Y50148D01*
G01X29953Y50184D01*
G01X29979Y50219D01*
G01X30009Y50251D01*
G01X30045Y50282D01*
G01X30085Y50311D01*
G01X30130Y50339D01*
G01X30180Y50364D01*
G01X30236Y50389D01*
G01X30297Y50411D01*
G01X30363Y50432D01*
G01X30434Y50452D01*
G01X30512Y50470D01*
G01X30591Y50489D01*
G01X30666Y50510D01*
G01X30736Y50532D01*
G01X30799Y50556D01*
G01X30854Y50579D01*
G01X30900Y50602D01*
G01X30937Y50626D01*
G01X30962Y50648D01*
G01X30994Y50686D01*
G01X31015Y50716D01*
G01X31025Y50737D01*
G37*
G36*
G01X22900Y50341D02*
G01X22895Y50349D01*
G01X22881Y50341D01*
G01X22862Y50320D01*
G01X22839Y50288D01*
G01X22817Y50250D01*
G01X22798Y50211D01*
G01X22787Y50180D01*
G01X22783Y50158D01*
G01X22788Y50151D01*
G01X22803Y50158D01*
G01X22822Y50180D01*
G01X22844Y50211D01*
G01X22867Y50250D01*
G01X22885Y50288D01*
G01X22897Y50320D01*
G01X22900Y50341D01*
G37*
G36*
G01X28070Y50691D02*
G01X28036Y50691D01*
G01X28001Y50688D01*
G01X27984Y50682D01*
G01X27986Y50673D01*
G01X28006Y50661D01*
G01X28033Y50654D01*
G01X28060Y50652D01*
G01X28084Y50656D01*
G01X28101Y50665D01*
G01X28105Y50677D01*
G01X28094Y50686D01*
G01X28070Y50691D01*
G37*
G36*
G01X26318Y50939D02*
G01X26310Y50943D01*
G01X26299Y50939D01*
G01X26285Y50929D01*
G01X26271Y50913D01*
G01X26258Y50893D01*
G01X26250Y50874D01*
G01X26251Y50858D01*
G01X26262Y50848D01*
G01X26279Y50844D01*
G01X26300Y50848D01*
G01X26316Y50858D01*
G01X26328Y50874D01*
G01X26332Y50893D01*
G01X26330Y50913D01*
G01X26325Y50929D01*
G01X26318Y50939D01*
G37*
G36*
G01X28075Y51029D02*
G01X28015Y51031D01*
G01X27954Y51029D01*
G01X27918Y51024D01*
G01X27909Y51016D01*
G01X27928Y51008D01*
G01X27969Y51001D01*
G01X28015Y50999D01*
G01X28061Y51001D01*
G01X28102Y51008D01*
G01X28121Y51016D01*
G01X28112Y51024D01*
G01X28075Y51029D01*
G37*

%LPD*%
G36*
G01X19874Y47928D02*
G01X19846Y47930D01*
G01X19815Y47918D01*
G01X19781Y47890D01*
G01X19768Y47862D01*
G01X19757Y47809D01*
G01X19750Y47740D01*
G01X19747Y47662D01*
G01X19751Y47567D01*
G01X19763Y47511D01*
G01X19787Y47490D01*
G01X19826Y47497D01*
G01X19858Y47509D01*
G01X19887Y47518D01*
G01X19911Y47525D01*
G01X19925Y47527D01*
G01X19933Y47543D01*
G01X19940Y47585D01*
G01X19944Y47648D01*
G01X19946Y47725D01*
G01X19943Y47790D01*
G01X19933Y47843D01*
G01X19918Y47884D01*
G01X19898Y47913D01*
G01X19874Y47928D01*
G37*

%LPD*%
G36*
G01X23553Y47999D02*
G01X23541Y48001D01*
G01X23531Y47989D01*
G01X23523Y47963D01*
G01X23518Y47924D01*
G01X23517Y47871D01*
G01X23519Y47803D01*
G01X23531Y47699D01*
G01X23549Y47617D01*
G01X23574Y47563D01*
G01X23604Y47537D01*
G01X23637Y47535D01*
G01X23652Y47562D01*
G01X23652Y47625D01*
G01X23639Y47731D01*
G01X23625Y47805D01*
G01X23611Y47868D01*
G01X23596Y47919D01*
G01X23581Y47958D01*
G01X23566Y47985D01*
G01X23553Y47999D01*
G37*

%LPD*%
G36*
G01X27352Y49011D02*
G01X27343Y49014D01*
G01X27335Y49009D01*
G01X27329Y48994D01*
G01X27322Y48971D01*
G01X27317Y48938D01*
G01X27312Y48897D01*
G01X27308Y48845D01*
G01X27305Y48785D01*
G01X27302Y48715D01*
G01X27300Y48634D01*
G01X27298Y48545D01*
G01X27297Y48445D01*
G01X27297Y48213D01*
G01X27298Y48105D01*
G01X27300Y48010D01*
G01X27303Y47928D01*
G01X27307Y47858D01*
G01X27311Y47798D01*
G01X27317Y47749D01*
G01X27323Y47711D01*
G01X27331Y47681D01*
G01X27341Y47659D01*
G01X27351Y47645D01*
G01X27363Y47637D01*
G01X27375Y47636D01*
G01X27386Y47641D01*
G01X27395Y47654D01*
G01X27403Y47675D01*
G01X27409Y47705D01*
G01X27413Y47746D01*
G01X27416Y47798D01*
G01X27419Y47861D01*
G01X27419Y48027D01*
G01X27418Y48132D01*
G01X27416Y48252D01*
G01X27414Y48338D01*
G01X27412Y48423D01*
G01X27410Y48504D01*
G01X27407Y48581D01*
G01X27404Y48653D01*
G01X27401Y48720D01*
G01X27397Y48780D01*
G01X27394Y48832D01*
G01X27391Y48876D01*
G01X27388Y48911D01*
G01X27385Y48936D01*
G01X27382Y48950D01*
G01X27371Y48979D01*
G01X27361Y48999D01*
G01X27352Y49011D01*
G37*

%LPD*%
G36*
G01X26417Y48810D02*
G01X26400Y48816D01*
G01X26385Y48809D01*
G01X26372Y48790D01*
G01X26361Y48757D01*
G01X26351Y48711D01*
G01X26344Y48650D01*
G01X26339Y48576D01*
G01X26335Y48487D01*
G01X26333Y48384D01*
G01X26332Y48266D01*
G01X26332Y48102D01*
G01X26334Y47975D01*
G01X26339Y47879D01*
G01X26345Y47811D01*
G01X26356Y47767D01*
G01X26371Y47742D01*
G01X26391Y47733D01*
G01X26416Y47734D01*
G01X26440Y47742D01*
G01X26460Y47759D01*
G01X26474Y47788D01*
G01X26485Y47832D01*
G01X26491Y47894D01*
G01X26495Y47979D01*
G01X26496Y48089D01*
G01X26495Y48229D01*
G01X26494Y48326D01*
G01X26491Y48419D01*
G01X26487Y48505D01*
G01X26483Y48583D01*
G01X26477Y48649D01*
G01X26471Y48702D01*
G01X26465Y48741D01*
G01X26458Y48761D01*
G01X26436Y48791D01*
G01X26417Y48810D01*
G37*

%LPD*%
G36*
G01X26926Y48146D02*
G01X26907Y48152D01*
G01X26891Y48145D01*
G01X26880Y48127D01*
G01X26876Y48099D01*
G01X26880Y48070D01*
G01X26891Y48045D01*
G01X26907Y48028D01*
G01X26926Y48022D01*
G01X26945Y48026D01*
G01X26961Y48036D01*
G01X26971Y48051D01*
G01X26975Y48068D01*
G01X26971Y48089D01*
G01X26961Y48111D01*
G01X26945Y48130D01*
G01X26926Y48146D01*
G37*

%LPD*%
G36*
G01X27804Y48607D02*
G01X27761Y48607D01*
G01X27735Y48582D01*
G01X27722Y48522D01*
G01X27718Y48422D01*
G01X27722Y48318D01*
G01X27736Y48257D01*
G01X27767Y48227D01*
G01X27820Y48220D01*
G01X27872Y48227D01*
G01X27901Y48253D01*
G01X27911Y48309D01*
G01X27906Y48405D01*
G01X27895Y48490D01*
G01X27874Y48551D01*
G01X27845Y48589D01*
G01X27804Y48607D01*
G37*

%LPD*%
G36*
G01X19899Y48805D02*
G01X19847Y48814D01*
G01X19808Y48811D01*
G01X19777Y48803D01*
G01X19756Y48791D01*
G01X19749Y48777D01*
G01X19756Y48755D01*
G01X19771Y48723D01*
G01X19795Y48684D01*
G01X19823Y48644D01*
G01X19852Y48602D01*
G01X19874Y48561D01*
G01X19889Y48523D01*
G01X19894Y48495D01*
G01X19888Y48485D01*
G01X19872Y48495D01*
G01X19850Y48523D01*
G01X19822Y48567D01*
G01X19782Y48634D01*
G01X19760Y48647D01*
G01X19752Y48598D01*
G01X19750Y48480D01*
G01X19752Y48372D01*
G01X19766Y48308D01*
G01X19796Y48277D01*
G01X19847Y48270D01*
G01X19899Y48279D01*
G01X19929Y48316D01*
G01X19943Y48399D01*
G01X19946Y48542D01*
G01X19943Y48685D01*
G01X19929Y48768D01*
G01X19899Y48805D01*
G37*

%LPD*%
G36*
G01X27870Y48808D02*
G01X27841Y48814D01*
G01X27813Y48813D01*
G01X27789Y48809D01*
G01X27773Y48803D01*
G01X27767Y48795D01*
G01X27773Y48783D01*
G01X27789Y48764D01*
G01X27813Y48741D01*
G01X27841Y48715D01*
G01X27879Y48688D01*
G01X27901Y48681D01*
G01X27913Y48696D01*
G01X27916Y48734D01*
G01X27910Y48765D01*
G01X27894Y48791D01*
G01X27870Y48808D01*
G37*

%LPD*%
G54D10*
G01X13589Y23914D02*
G01X32131Y23914D01*
G01X32131Y27470D01*
G01X13589Y27470D01*
G01X13589Y23914D01*
G54D20*
G01X36027Y28105D02*
G01X38567Y28105D01*
G01X38567Y17945D01*
G01X36027Y17945D01*
G01X36027Y19850D01*
G54D21*
G01X36027Y28105D02*
G01X36027Y19850D01*
G54D10*
G01X2169Y29349D02*
G01X2804Y29349D01*
G01X2804Y25539D01*
G01X2169Y25539D01*
G01X2169Y22364D01*
G01X8773Y22364D01*
G01X8773Y32524D01*
G01X2169Y32524D01*
G01X2169Y29349D01*
G01X2169Y25539D01*
G01X5979Y25539D02*
G01X7503Y25539D01*
G01X7503Y29349D01*
G01X5979Y29349D01*
G01X5979Y25539D01*
G01X3439Y25539D02*
G01X4963Y25539D01*
G01X4963Y29349D01*
G01X3439Y29349D01*
G01X3439Y25539D01*
G01X3471Y27444D02*
G01X4871Y27444D01*
G01X5971Y27444D02*
G01X7371Y27444D01*
G01X3489Y28884D02*
G01X4889Y28884D01*
G01X3430Y28384D02*
G01X4830Y28384D01*
G01X3430Y27884D02*
G01X4830Y27884D01*
G01X6029Y28884D02*
G01X7429Y28884D01*
G01X5970Y28384D02*
G01X7370Y28384D01*
G01X5970Y27884D02*
G01X7370Y27884D01*
G01X20626Y21857D02*
G01X24585Y21857D01*
G01X13768Y21857D02*
G01X17727Y21857D01*
G01X20701Y9690D02*
G01X16891Y9690D01*
G01X13716Y9690D02*
G01X9906Y9690D01*
G01X24511Y13627D02*
G01X24511Y11595D01*
G01X24511Y11595D02*
G01X19431Y11595D01*
G01X19431Y11595D02*
G01X19431Y13627D01*
G01X19431Y13627D02*
G01X24511Y13627D01*
G01X18034Y17183D02*
G01X18034Y15151D01*
G01X18034Y15151D02*
G01X12954Y15151D01*
G01X12954Y15151D02*
G01X12954Y17183D01*
G01X12954Y17183D02*
G01X18034Y17183D01*
G01X27484Y21857D02*
G01X31443Y21857D01*
G01X28194Y9563D02*
G01X24384Y9563D01*
G01X29591Y17183D02*
G01X29591Y15151D01*
G01X29591Y15151D02*
G01X24511Y15151D01*
G01X24511Y15151D02*
G01X24511Y17183D01*
G01X24511Y17183D02*
G01X29591Y17183D01*
G01X24003Y37503D02*
G01X24003Y35471D01*
G01X24003Y35471D02*
G01X18923Y35471D01*
G01X18923Y35471D02*
G01X18923Y37503D01*
G01X18923Y37503D02*
G01X24003Y37503D01*
G01X21463Y42202D02*
G01X21463Y40170D01*
G01X21463Y40170D02*
G01X16383Y40170D01*
G01X16383Y40170D02*
G01X16383Y42202D01*
G01X16383Y42202D02*
G01X21463Y42202D01*
G01X36322Y9690D02*
G01X32512Y9690D01*
G01X30226Y11595D02*
G01X30226Y13627D01*
G01X30226Y13627D02*
G01X35306Y13627D01*
G01X35306Y13627D02*
G01X35306Y11595D01*
G01X35306Y11595D02*
G01X30226Y11595D01*
G54D22*
G01X34798Y22898D02*
G01X10797Y22898D01*
G54D10*
G01X8346Y34074D02*
G01X2758Y34074D01*
G01X1361Y32677D01*
G01X1361Y21755D01*
G01X2885Y20231D01*
G01X7838Y20231D01*
G01X9743Y22136D01*
G01X9743Y32550D01*
G01X8346Y33947D01*
G01X8346Y34074D01*
G54D22*
G01X10795Y22898D02*
G01X10795Y65898D01*
G01X34798Y65951D02*
G01X10797Y65951D01*
G01X34798Y22898D02*
G01X34798Y65897D01*
G54D10*
G01X6939Y41358D02*
G01X4953Y40297D01*
G01X3302Y41358D01*
G01X3302Y65996D01*
G01X5080Y66713D01*
G01X6812Y65996D01*
G01X6812Y41485D01*
G54D23*
G01X32639Y25257D02*
G01X33469Y25257D01*
G01X33624Y25204D01*
G01X33677Y25153D01*
G01X33728Y25049D01*
G01X33728Y24945D01*
G01X33677Y24841D01*
G01X33624Y24787D01*
G01X33469Y24737D01*
G01X33365Y24737D01*
G01X32898Y25651D02*
G01X32844Y25651D01*
G01X32740Y25702D01*
G01X32689Y25755D01*
G01X32639Y25859D01*
G01X32639Y26068D01*
G01X32689Y26172D01*
G01X32740Y26222D01*
G01X32844Y26273D01*
G01X32948Y26273D01*
G01X33053Y26222D01*
G01X33210Y26118D01*
G01X33728Y25600D01*
G01X33728Y26327D01*
G54D20*
G01X15966Y31534D02*
G01X14028Y31534D01*
G01X15966Y31534D02*
G01X14028Y30794D01*
G01X15966Y30055D02*
G01X14028Y30794D01*
G01X15966Y30055D02*
G01X14028Y30055D01*
G01X15966Y28892D02*
G01X15875Y29169D01*
G01X15598Y29354D01*
G01X15135Y29446D01*
G01X14859Y29446D01*
G01X14396Y29354D01*
G01X14119Y29169D01*
G01X14028Y28892D01*
G01X14028Y28707D01*
G01X14119Y28430D01*
G01X14396Y28244D01*
G01X14859Y28153D01*
G01X15135Y28153D01*
G01X15598Y28244D01*
G01X15875Y28430D01*
G01X15966Y28707D01*
G01X15966Y28892D01*
G01X18506Y31026D02*
G01X16568Y31026D01*
G01X18506Y31026D02*
G01X16568Y30286D01*
G01X18506Y29547D02*
G01X16568Y30286D01*
G01X18506Y29547D02*
G01X16568Y29547D01*
G01X18138Y28938D02*
G01X18229Y28752D01*
G01X18506Y28475D01*
G01X16568Y28475D01*
G01X21046Y31534D02*
G01X19108Y31534D01*
G01X21046Y31534D02*
G01X21046Y30703D01*
G01X20955Y30426D01*
G01X20863Y30332D01*
G01X20678Y30241D01*
G01X20492Y30241D01*
G01X20307Y30332D01*
G01X20215Y30426D01*
G01X20124Y30703D01*
G01X20124Y31534D01*
G01X20124Y30886D02*
G01X19108Y30241D01*
G01X21046Y29631D02*
G01X19108Y28338D01*
G01X21046Y28338D02*
G01X19108Y29631D01*
G01X23586Y30886D02*
G01X21648Y30886D01*
G01X23586Y31534D02*
G01X23586Y30241D01*
G01X23586Y29631D02*
G01X21648Y28338D01*
G01X23586Y28338D02*
G01X21648Y29631D01*
G01X26126Y32826D02*
G01X24188Y33566D01*
G01X26126Y32826D02*
G01X24188Y32087D01*
G01X24833Y33289D02*
G01X24833Y32364D01*
G01X26126Y31478D02*
G01X24742Y31478D01*
G01X24465Y31386D01*
G01X24279Y31201D01*
G01X24188Y30924D01*
G01X24188Y30739D01*
G01X24279Y30462D01*
G01X24465Y30276D01*
G01X24742Y30185D01*
G01X26126Y30185D01*
G01X26126Y29575D02*
G01X24188Y28282D01*
G01X26126Y28282D02*
G01X24188Y29575D01*
G01X28920Y33693D02*
G01X26982Y32953D01*
G01X28920Y32214D02*
G01X26982Y32953D01*
G01X28460Y30220D02*
G01X28643Y30312D01*
G01X28829Y30497D01*
G01X28920Y30683D01*
G01X28920Y31051D01*
G01X28829Y31236D01*
G01X28643Y31419D01*
G01X28460Y31513D01*
G01X28181Y31605D01*
G01X27721Y31605D01*
G01X27444Y31513D01*
G01X27259Y31419D01*
G01X27073Y31236D01*
G01X26982Y31051D01*
G01X26982Y30683D01*
G01X27073Y30497D01*
G01X27259Y30312D01*
G01X27444Y30220D01*
G01X28460Y28224D02*
G01X28643Y28318D01*
G01X28829Y28501D01*
G01X28920Y28686D01*
G01X28920Y29057D01*
G01X28829Y29240D01*
G01X28643Y29425D01*
G01X28460Y29517D01*
G01X28181Y29611D01*
G01X27721Y29611D01*
G01X27444Y29517D01*
G01X27259Y29425D01*
G01X27073Y29240D01*
G01X26982Y29057D01*
G01X26982Y28686D01*
G01X27073Y28501D01*
G01X27259Y28318D01*
G01X27444Y28224D01*
G01X31254Y31927D02*
G01X31437Y32019D01*
G01X31623Y32204D01*
G01X31714Y32387D01*
G01X31714Y32758D01*
G01X31623Y32943D01*
G01X31437Y33126D01*
G01X31254Y33220D01*
G01X30975Y33312D01*
G01X30515Y33312D01*
G01X30238Y33220D01*
G01X30053Y33126D01*
G01X29867Y32943D01*
G01X29776Y32758D01*
G01X29776Y32387D01*
G01X29867Y32204D01*
G01X30053Y32019D01*
G01X30238Y31927D01*
G01X30515Y31927D01*
G01X30515Y32387D02*
G01X30515Y31927D01*
G01X31714Y31318D02*
G01X29776Y31318D01*
G01X31714Y31318D02*
G01X29776Y30022D01*
G01X31714Y30022D02*
G01X29776Y30022D01*
G01X31714Y29413D02*
G01X29776Y29413D01*
G01X31714Y29413D02*
G01X31714Y28768D01*
G01X31623Y28491D01*
G01X31437Y28305D01*
G01X31254Y28214D01*
G01X30975Y28120D01*
G01X30515Y28120D01*
G01X30238Y28214D01*
G01X30053Y28305D01*
G01X29867Y28491D01*
G01X29776Y28768D01*
G01X29776Y29413D01*
G54D23*
G01X34683Y23025D02*
G01X35773Y23025D01*
G01X34683Y23025D02*
G01X34683Y23492D01*
G01X34734Y23647D01*
G01X34785Y23700D01*
G01X34889Y23751D01*
G01X35046Y23751D01*
G01X35151Y23700D01*
G01X35201Y23647D01*
G01X35255Y23492D01*
G01X35255Y23025D01*
G01X34889Y24094D02*
G01X34838Y24198D01*
G01X34683Y24356D01*
G01X35773Y24356D01*
G01X4663Y30490D02*
G01X4559Y30594D01*
G01X4404Y30645D01*
G01X4196Y30645D01*
G01X4041Y30594D01*
G01X3937Y30490D01*
G01X3937Y30386D01*
G01X3987Y30281D01*
G01X4041Y30231D01*
G01X4145Y30177D01*
G01X4457Y30073D01*
G01X4559Y30022D01*
G01X4612Y29969D01*
G01X4663Y29867D01*
G01X4663Y29710D01*
G01X4559Y29606D01*
G01X4404Y29555D01*
G01X4196Y29555D01*
G01X4041Y29606D01*
G01X3937Y29710D01*
G01X5006Y30645D02*
G01X5267Y29555D01*
G01X5527Y30645D02*
G01X5267Y29555D01*
G01X5527Y30645D02*
G01X5786Y29555D01*
G01X6045Y30645D02*
G01X5786Y29555D01*
G01X6441Y30386D02*
G01X6441Y30439D01*
G01X6492Y30540D01*
G01X6545Y30594D01*
G01X6649Y30645D01*
G01X6858Y30645D01*
G01X6959Y30594D01*
G01X7012Y30540D01*
G01X7063Y30439D01*
G01X7063Y30335D01*
G01X7012Y30231D01*
G01X6908Y30073D01*
G01X6388Y29555D01*
G01X7117Y29555D01*
G01X25293Y20289D02*
G01X25343Y20185D01*
G01X25448Y20081D01*
G01X25552Y20027D01*
G01X25707Y19977D01*
G01X25966Y19977D01*
G01X26123Y20027D01*
G01X26227Y20081D01*
G01X26331Y20185D01*
G01X26382Y20289D01*
G01X26382Y20497D01*
G01X26331Y20599D01*
G01X26227Y20703D01*
G01X26123Y20756D01*
G01X25966Y20807D01*
G01X25707Y20807D01*
G01X25552Y20756D01*
G01X25448Y20703D01*
G01X25343Y20599D01*
G01X25293Y20497D01*
G01X25293Y20289D01*
G01X26174Y20444D02*
G01X26486Y20756D01*
G01X25293Y21671D02*
G01X26019Y21150D01*
G01X26019Y21930D01*
G01X25293Y21671D02*
G01X26382Y21671D01*
G01X18435Y20289D02*
G01X18485Y20185D01*
G01X18590Y20081D01*
G01X18694Y20027D01*
G01X18849Y19977D01*
G01X19108Y19977D01*
G01X19265Y20027D01*
G01X19369Y20081D01*
G01X19473Y20185D01*
G01X19524Y20289D01*
G01X19524Y20497D01*
G01X19473Y20599D01*
G01X19369Y20703D01*
G01X19265Y20756D01*
G01X19108Y20807D01*
G01X18849Y20807D01*
G01X18694Y20756D01*
G01X18590Y20703D01*
G01X18485Y20599D01*
G01X18435Y20497D01*
G01X18435Y20289D01*
G01X19316Y20444D02*
G01X19628Y20756D01*
G01X18435Y21775D02*
G01X18435Y21254D01*
G01X18902Y21203D01*
G01X18849Y21254D01*
G01X18798Y21412D01*
G01X18798Y21567D01*
G01X18849Y21722D01*
G01X18953Y21826D01*
G01X19108Y21879D01*
G01X19212Y21879D01*
G01X19369Y21826D01*
G01X19473Y21722D01*
G01X19524Y21567D01*
G01X19524Y21412D01*
G01X19473Y21254D01*
G01X19420Y21203D01*
G01X19316Y21150D01*
G01X16637Y5346D02*
G01X17726Y5346D01*
G01X17726Y5346D02*
G01X17726Y5968D01*
G01X16637Y6311D02*
G01X17726Y6311D01*
G01X16637Y6311D02*
G01X16637Y6987D01*
G01X17155Y6311D02*
G01X17155Y6728D01*
G01X17726Y6311D02*
G01X17726Y6987D01*
G01X16637Y7330D02*
G01X17726Y7330D01*
G01X16637Y7330D02*
G01X16637Y7696D01*
G01X16687Y7851D01*
G01X16791Y7955D01*
G01X16896Y8006D01*
G01X17051Y8059D01*
G01X17310Y8059D01*
G01X17467Y8006D01*
G01X17571Y7955D01*
G01X17675Y7851D01*
G01X17726Y7696D01*
G01X17726Y7330D01*
G01X16637Y8920D02*
G01X17363Y8402D01*
G01X17363Y9182D01*
G01X16637Y8920D02*
G01X17726Y8920D01*
G01X9525Y5527D02*
G01X10614Y5527D01*
G01X10614Y5527D02*
G01X10614Y6149D01*
G01X9525Y6492D02*
G01X10614Y6492D01*
G01X9525Y6492D02*
G01X9525Y7167D01*
G01X10043Y6492D02*
G01X10043Y6908D01*
G01X10614Y6492D02*
G01X10614Y7167D01*
G01X9525Y7510D02*
G01X10614Y7510D01*
G01X9525Y7510D02*
G01X9525Y7876D01*
G01X9575Y8031D01*
G01X9679Y8135D01*
G01X9784Y8186D01*
G01X9939Y8239D01*
G01X10198Y8239D01*
G01X10355Y8186D01*
G01X10459Y8135D01*
G01X10563Y8031D01*
G01X10614Y7876D01*
G01X10614Y7510D01*
G01X9525Y9204D02*
G01X9525Y8686D01*
G01X9992Y8633D01*
G01X9939Y8686D01*
G01X9888Y8841D01*
G01X9888Y8996D01*
G01X9939Y9154D01*
G01X10043Y9258D01*
G01X10198Y9309D01*
G01X10302Y9309D01*
G01X10459Y9258D01*
G01X10563Y9154D01*
G01X10614Y8996D01*
G01X10614Y8841D01*
G01X10563Y8686D01*
G01X10510Y8633D01*
G01X10406Y8582D01*
G01X21971Y11496D02*
G01X21971Y10406D01*
G01X21971Y11496D02*
G01X22438Y11496D01*
G01X22593Y11445D01*
G01X22646Y11394D01*
G01X22697Y11290D01*
G01X22697Y11186D01*
G01X22646Y11082D01*
G01X22593Y11028D01*
G01X22438Y10977D01*
G01X21971Y10977D01*
G01X22334Y10977D02*
G01X22697Y10406D01*
G01X23665Y11341D02*
G01X23611Y11445D01*
G01X23456Y11496D01*
G01X23352Y11496D01*
G01X23197Y11445D01*
G01X23093Y11290D01*
G01X23040Y11028D01*
G01X23040Y10769D01*
G01X23093Y10561D01*
G01X23197Y10457D01*
G01X23352Y10406D01*
G01X23406Y10406D01*
G01X23561Y10457D01*
G01X23665Y10561D01*
G01X23715Y10718D01*
G01X23715Y10769D01*
G01X23665Y10924D01*
G01X23561Y11028D01*
G01X23406Y11082D01*
G01X23352Y11082D01*
G01X23197Y11028D01*
G01X23093Y10924D01*
G01X23040Y10769D01*
G01X15494Y15052D02*
G01X15494Y13962D01*
G01X15494Y15052D02*
G01X15961Y15052D01*
G01X16116Y15001D01*
G01X16169Y14950D01*
G01X16220Y14846D01*
G01X16220Y14742D01*
G01X16169Y14638D01*
G01X16116Y14584D01*
G01X15961Y14533D01*
G01X15494Y14533D01*
G01X15857Y14533D02*
G01X16220Y13962D01*
G01X17292Y15052D02*
G01X16771Y13962D01*
G01X16563Y15052D02*
G01X17292Y15052D01*
G01X32151Y20289D02*
G01X32201Y20185D01*
G01X32306Y20081D01*
G01X32410Y20027D01*
G01X32565Y19977D01*
G01X32824Y19977D01*
G01X32981Y20027D01*
G01X33085Y20081D01*
G01X33189Y20185D01*
G01X33240Y20289D01*
G01X33240Y20497D01*
G01X33189Y20599D01*
G01X33085Y20703D01*
G01X32981Y20756D01*
G01X32824Y20807D01*
G01X32565Y20807D01*
G01X32410Y20756D01*
G01X32306Y20703D01*
G01X32201Y20599D01*
G01X32151Y20497D01*
G01X32151Y20289D01*
G01X33032Y20444D02*
G01X33344Y20756D01*
G01X32306Y21775D02*
G01X32201Y21722D01*
G01X32151Y21567D01*
G01X32151Y21463D01*
G01X32201Y21308D01*
G01X32356Y21203D01*
G01X32618Y21150D01*
G01X32877Y21150D01*
G01X33085Y21203D01*
G01X33189Y21308D01*
G01X33240Y21463D01*
G01X33240Y21513D01*
G01X33189Y21671D01*
G01X33085Y21775D01*
G01X32928Y21826D01*
G01X32877Y21826D01*
G01X32722Y21775D01*
G01X32618Y21671D01*
G01X32565Y21513D01*
G01X32565Y21463D01*
G01X32618Y21308D01*
G01X32722Y21203D01*
G01X32877Y21150D01*
G01X24130Y5196D02*
G01X25219Y5196D01*
G01X25219Y5196D02*
G01X25219Y5819D01*
G01X24130Y6162D02*
G01X25219Y6162D01*
G01X24130Y6162D02*
G01X24130Y6837D01*
G01X24648Y6162D02*
G01X24648Y6578D01*
G01X25219Y6162D02*
G01X25219Y6837D01*
G01X24130Y7180D02*
G01X25219Y7180D01*
G01X24130Y7180D02*
G01X24130Y7546D01*
G01X24180Y7701D01*
G01X24284Y7805D01*
G01X24389Y7856D01*
G01X24544Y7909D01*
G01X24803Y7909D01*
G01X24960Y7856D01*
G01X25064Y7805D01*
G01X25168Y7701D01*
G01X25219Y7546D01*
G01X25219Y7180D01*
G01X24284Y8874D02*
G01X24180Y8823D01*
G01X24130Y8666D01*
G01X24130Y8562D01*
G01X24180Y8407D01*
G01X24335Y8303D01*
G01X24597Y8252D01*
G01X24856Y8252D01*
G01X25064Y8303D01*
G01X25168Y8407D01*
G01X25219Y8562D01*
G01X25219Y8615D01*
G01X25168Y8770D01*
G01X25064Y8874D01*
G01X24907Y8928D01*
G01X24856Y8928D01*
G01X24701Y8874D01*
G01X24597Y8770D01*
G01X24544Y8615D01*
G01X24544Y8562D01*
G01X24597Y8407D01*
G01X24701Y8303D01*
G01X24856Y8252D01*
G01X27051Y15052D02*
G01X27051Y13962D01*
G01X27051Y15052D02*
G01X27518Y15052D01*
G01X27673Y15001D01*
G01X27726Y14950D01*
G01X27777Y14846D01*
G01X27777Y14742D01*
G01X27726Y14638D01*
G01X27673Y14584D01*
G01X27518Y14533D01*
G01X27051Y14533D01*
G01X27414Y14533D02*
G01X27777Y13962D01*
G01X28381Y15052D02*
G01X28224Y15001D01*
G01X28173Y14897D01*
G01X28173Y14792D01*
G01X28224Y14688D01*
G01X28328Y14638D01*
G01X28536Y14584D01*
G01X28691Y14533D01*
G01X28795Y14429D01*
G01X28849Y14325D01*
G01X28849Y14170D01*
G01X28795Y14066D01*
G01X28745Y14013D01*
G01X28587Y13962D01*
G01X28381Y13962D01*
G01X28224Y14013D01*
G01X28173Y14066D01*
G01X28120Y14170D01*
G01X28120Y14325D01*
G01X28173Y14429D01*
G01X28277Y14533D01*
G01X28432Y14584D01*
G01X28641Y14638D01*
G01X28745Y14688D01*
G01X28795Y14792D01*
G01X28795Y14897D01*
G01X28745Y15001D01*
G01X28587Y15052D01*
G01X28381Y15052D01*
G01X21463Y35372D02*
G01X21463Y34282D01*
G01X21463Y35372D02*
G01X21930Y35372D01*
G01X22085Y35321D01*
G01X22138Y35270D01*
G01X22189Y35166D01*
G01X22189Y35062D01*
G01X22138Y34958D01*
G01X22085Y34904D01*
G01X21930Y34853D01*
G01X21463Y34853D01*
G01X21826Y34853D02*
G01X22189Y34282D01*
G01X23207Y35008D02*
G01X23157Y34853D01*
G01X23053Y34749D01*
G01X22898Y34698D01*
G01X22844Y34698D01*
G01X22689Y34749D01*
G01X22585Y34853D01*
G01X22532Y35008D01*
G01X22532Y35062D01*
G01X22585Y35217D01*
G01X22689Y35321D01*
G01X22844Y35372D01*
G01X22898Y35372D01*
G01X23053Y35321D01*
G01X23157Y35217D01*
G01X23207Y35008D01*
G01X23207Y34749D01*
G01X23157Y34490D01*
G01X23053Y34333D01*
G01X22898Y34282D01*
G01X22793Y34282D01*
G01X22636Y34333D01*
G01X22585Y34437D01*
G01X18923Y40071D02*
G01X18923Y38981D01*
G01X18923Y40071D02*
G01X19390Y40071D01*
G01X19545Y40020D01*
G01X19598Y39969D01*
G01X19649Y39865D01*
G01X19649Y39761D01*
G01X19598Y39657D01*
G01X19545Y39603D01*
G01X19390Y39552D01*
G01X18923Y39552D01*
G01X19286Y39552D02*
G01X19649Y38981D01*
G01X19992Y39865D02*
G01X20096Y39916D01*
G01X20253Y40071D01*
G01X20253Y38981D01*
G01X20906Y40071D02*
G01X20751Y40020D01*
G01X20647Y39865D01*
G01X20596Y39603D01*
G01X20596Y39448D01*
G01X20647Y39189D01*
G01X20751Y39032D01*
G01X20906Y38981D01*
G01X21010Y38981D01*
G01X21168Y39032D01*
G01X21272Y39189D01*
G01X21323Y39448D01*
G01X21323Y39603D01*
G01X21272Y39865D01*
G01X21168Y40020D01*
G01X21010Y40071D01*
G01X20906Y40071D01*
G01X32258Y5273D02*
G01X33347Y5273D01*
G01X33347Y5273D02*
G01X33347Y5895D01*
G01X32258Y6238D02*
G01X33347Y6238D01*
G01X32258Y6238D02*
G01X32258Y6913D01*
G01X32776Y6238D02*
G01X32776Y6654D01*
G01X33347Y6238D02*
G01X33347Y6913D01*
G01X32258Y7256D02*
G01X33347Y7256D01*
G01X32258Y7256D02*
G01X32258Y7622D01*
G01X32308Y7777D01*
G01X32412Y7881D01*
G01X32517Y7932D01*
G01X32672Y7985D01*
G01X32931Y7985D01*
G01X33088Y7932D01*
G01X33192Y7881D01*
G01X33296Y7777D01*
G01X33347Y7622D01*
G01X33347Y7256D01*
G01X32258Y9055D02*
G01X33347Y8536D01*
G01X32258Y8328D02*
G01X32258Y9055D01*
G01X32766Y14970D02*
G01X32766Y13881D01*
G01X32766Y14970D02*
G01X33233Y14970D01*
G01X33388Y14919D01*
G01X33441Y14869D01*
G01X33492Y14765D01*
G01X33492Y14660D01*
G01X33441Y14556D01*
G01X33388Y14503D01*
G01X33233Y14452D01*
G01X32766Y14452D01*
G01X33129Y14452D02*
G01X33492Y13881D01*
G01X33835Y14765D02*
G01X33939Y14815D01*
G01X34096Y14970D01*
G01X34096Y13881D01*
G01X34439Y14765D02*
G01X34544Y14815D01*
G01X34698Y14970D01*
G01X34698Y13881D01*
G54D20*
G01X5044Y38011D02*
G01X3106Y38011D01*
G01X5044Y38011D02*
G01X3106Y37271D01*
G01X5044Y36532D02*
G01X3106Y37271D01*
G01X5044Y36532D02*
G01X3106Y36532D01*
G01X4676Y35923D02*
G01X4767Y35737D01*
G01X5044Y35460D01*
G01X3106Y35460D01*
G01X7929Y38011D02*
G01X5991Y38011D01*
G01X7929Y38011D02*
G01X5991Y37271D01*
G01X7929Y36532D02*
G01X5991Y37271D01*
G01X7929Y36532D02*
G01X5991Y36532D01*
G01X7929Y35369D02*
G01X7838Y35646D01*
G01X7561Y35831D01*
G01X7099Y35923D01*
G01X6822Y35923D01*
G01X6360Y35831D01*
G01X6083Y35646D01*
G01X5991Y35369D01*
G01X5991Y35184D01*
G01X6083Y34907D01*
G01X6360Y34721D01*
G01X6822Y34630D01*
G01X7099Y34630D01*
G01X7561Y34721D01*
G01X7838Y34907D01*
G01X7929Y35184D01*
G01X7929Y35369D01*
G01X7457Y21272D02*
G01X7399Y21450D01*
G01X7221Y21569D01*
G01X6926Y21628D01*
G01X6748Y21628D01*
G01X6454Y21569D01*
G01X6276Y21450D01*
G01X6217Y21272D01*
G01X6217Y21155D01*
G01X6276Y20977D01*
G01X6454Y20861D01*
G01X6748Y20800D01*
G01X6926Y20800D01*
G01X7221Y20861D01*
G01X7399Y20977D01*
G01X7457Y21155D01*
G01X7457Y21272D01*
G01X4899Y21272D02*
G01X4841Y21450D01*
G01X4663Y21569D01*
G01X4368Y21628D01*
G01X4191Y21628D01*
G01X3896Y21569D01*
G01X3718Y21450D01*
G01X3660Y21272D01*
G01X3660Y21155D01*
G01X3718Y20977D01*
G01X3896Y20861D01*
G01X4191Y20800D01*
G01X4368Y20800D01*
G01X4663Y20861D01*
G01X4841Y20977D01*
G01X4899Y21155D01*
G01X4899Y21272D01*
G01X4536Y33439D02*
G01X4594Y33319D01*
G01X4772Y33144D01*
G01X3533Y33144D01*
G01X7294Y33439D02*
G01X7353Y33319D01*
G01X7531Y33144D01*
G01X6291Y33144D01*
G01X6060Y65443D02*
G01X4122Y65443D01*
G01X6060Y65443D02*
G01X6060Y64612D01*
G01X5969Y64335D01*
G01X5877Y64241D01*
G01X5692Y64150D01*
G01X5506Y64150D01*
G01X5321Y64241D01*
G01X5229Y64335D01*
G01X5138Y64612D01*
G01X5138Y65443D02*
G01X5138Y64612D01*
G01X5044Y64335D01*
G01X4953Y64241D01*
G01X4767Y64150D01*
G01X4490Y64150D01*
G01X4305Y64241D01*
G01X4213Y64335D01*
G01X4122Y64612D01*
G01X4122Y65443D01*
G01X5415Y63449D02*
G01X4122Y62892D01*
G01X5415Y62339D02*
G01X4122Y62892D01*
G01X3751Y63078D01*
G01X3568Y63263D01*
G01X3474Y63449D01*
G01X3474Y63540D01*
G01X5229Y61638D02*
G01X5138Y61729D01*
G01X5044Y61638D01*
G01X5138Y61544D01*
G01X5229Y61638D01*
G01X4584Y61638D02*
G01X4490Y61729D01*
G01X4399Y61638D01*
G01X4490Y61544D01*
G01X4584Y61638D01*
G01X6060Y58775D02*
G01X4122Y59512D01*
G01X6060Y58775D02*
G01X4122Y58036D01*
G01X4767Y59235D02*
G01X4767Y58313D01*
G01X6060Y57426D02*
G01X4122Y57426D01*
G01X5415Y56502D02*
G01X4490Y57426D01*
G01X4861Y57056D02*
G01X4122Y56410D01*
G01X5415Y54691D02*
G01X4122Y54691D01*
G01X5138Y54691D02*
G01X5321Y54876D01*
G01X5415Y55062D01*
G01X5415Y55338D01*
G01X5321Y55524D01*
G01X5138Y55707D01*
G01X4861Y55801D01*
G01X4676Y55801D01*
G01X4399Y55707D01*
G01X4213Y55524D01*
G01X4122Y55338D01*
G01X4122Y55062D01*
G01X4213Y54876D01*
G01X4399Y54691D01*
G01X5415Y54081D02*
G01X4122Y54081D01*
G01X4861Y54081D02*
G01X5138Y53990D01*
G01X5321Y53804D01*
G01X5415Y53619D01*
G01X5415Y53342D01*
G01X5138Y51716D02*
G01X5321Y51810D01*
G01X5415Y52087D01*
G01X5415Y52364D01*
G01X5321Y52641D01*
G01X5138Y52732D01*
G01X4953Y52641D01*
G01X4861Y52456D01*
G01X4767Y51993D01*
G01X4676Y51810D01*
G01X4490Y51716D01*
G01X4399Y51716D01*
G01X4213Y51810D01*
G01X4122Y52087D01*
G01X4122Y52364D01*
G01X4213Y52641D01*
G01X4399Y52732D01*
G01X6060Y51107D02*
G01X4122Y51107D01*
G01X5044Y51107D02*
G01X5321Y50830D01*
G01X5415Y50647D01*
G01X5415Y50368D01*
G01X5321Y50185D01*
G01X5044Y50091D01*
G01X4122Y50091D01*
G01X6060Y46951D02*
G01X6060Y47876D01*
G01X5229Y47967D01*
G01X5321Y47876D01*
G01X5415Y47599D01*
G01X5415Y47320D01*
G01X5321Y47043D01*
G01X5138Y46860D01*
G01X4861Y46766D01*
G01X4676Y46766D01*
G01X4399Y46860D01*
G01X4213Y47043D01*
G01X4122Y47320D01*
G01X4122Y47599D01*
G01X4213Y47876D01*
G01X4305Y47967D01*
G01X4490Y48059D01*
G01X6431Y44495D02*
G01X3474Y46156D01*
G01X5692Y43886D02*
G01X5783Y43700D01*
G01X6060Y43423D01*
G01X4122Y43423D01*
G01X5415Y41612D02*
G01X5138Y41706D01*
G01X4953Y41889D01*
G01X4861Y42166D01*
G01X4861Y42260D01*
G01X4953Y42537D01*
G01X5138Y42722D01*
G01X5415Y42814D01*
G01X5506Y42814D01*
G01X5783Y42722D01*
G01X5969Y42537D01*
G01X6060Y42260D01*
G01X6060Y42166D01*
G01X5969Y41889D01*
G01X5783Y41706D01*
G01X5415Y41612D01*
G01X4953Y41612D01*
G01X4490Y41706D01*
G01X4213Y41889D01*
G01X4122Y42166D01*
G01X4122Y42351D01*
G01X4213Y42628D01*
G01X4399Y42722D01*
G01X16129Y62671D02*
G01X16129Y58854D01*
G01X16129Y62671D02*
G01X18493Y62671D01*
G01X16129Y60853D02*
G01X17584Y60853D01*
G01X16129Y58854D02*
G01X18493Y58854D01*
G01X20055Y62671D02*
G01X22057Y62671D01*
G01X20965Y61216D01*
G01X21511Y61216D01*
G01X21874Y61036D01*
G01X22057Y60853D01*
G01X22237Y60307D01*
G01X22237Y59944D01*
G01X22057Y59400D01*
G01X21691Y59034D01*
G01X21148Y58854D01*
G01X20601Y58854D01*
G01X20055Y59034D01*
G01X19875Y59217D01*
G01X19692Y59580D01*
G01X23619Y61762D02*
G01X23619Y61945D01*
G01X23802Y62308D01*
G01X23982Y62489D01*
G01X24345Y62671D01*
G01X25074Y62671D01*
G01X25438Y62489D01*
G01X25620Y62308D01*
G01X25801Y61945D01*
G01X25801Y61579D01*
G01X25620Y61216D01*
G01X25255Y60672D01*
G01X23439Y58854D01*
G01X25984Y58854D01*
G01X14859Y57210D02*
G01X14859Y53393D01*
G01X14859Y53393D02*
G01X17040Y53393D01*
G01X19149Y55938D02*
G01X18785Y55755D01*
G01X18422Y55392D01*
G01X18239Y54846D01*
G01X18239Y54483D01*
G01X18422Y53939D01*
G01X18785Y53573D01*
G01X19149Y53393D01*
G01X19695Y53393D01*
G01X20058Y53573D01*
G01X20421Y53939D01*
G01X20604Y54483D01*
G01X20604Y54846D01*
G01X20421Y55392D01*
G01X20058Y55755D01*
G01X19695Y55938D01*
G01X19149Y55938D01*
G01X21803Y57210D02*
G01X21803Y53393D01*
G01X21803Y57210D02*
G01X23441Y57210D01*
G01X23985Y57028D01*
G01X24168Y56847D01*
G01X24350Y56484D01*
G01X24350Y56118D01*
G01X24168Y55755D01*
G01X23985Y55575D01*
G01X23441Y55392D01*
G01X21803Y55392D01*
G01X23075Y55392D02*
G01X24350Y53393D01*
G01X27731Y55938D02*
G01X27731Y53393D01*
G01X27731Y55392D02*
G01X27368Y55755D01*
G01X27005Y55938D01*
G01X26459Y55938D01*
G01X26095Y55755D01*
G01X25732Y55392D01*
G01X25549Y54846D01*
G01X25549Y54483D01*
G01X25732Y53939D01*
G01X26095Y53573D01*
G01X26459Y53393D01*
G01X27005Y53393D01*
G01X27368Y53573D01*
G01X27731Y53939D01*
G01X39875Y19375D02*
G01X39817Y19491D01*
G01X39697Y19611D01*
G01X39580Y19669D01*
G01X39344Y19669D01*
G01X39225Y19611D01*
G01X39108Y19491D01*
G01X39047Y19375D01*
G01X38989Y19197D01*
G01X38989Y18902D01*
G01X39047Y18724D01*
G01X39108Y18605D01*
G01X39225Y18488D01*
G01X39344Y18430D01*
G01X39580Y18430D01*
G01X39697Y18488D01*
G01X39817Y18605D01*
G01X39875Y18724D01*
G01X39875Y18902D01*
G01X39580Y18902D02*
G01X39875Y18902D01*
G01X40266Y19669D02*
G01X40266Y18430D01*
G01X40266Y19669D02*
G01X41092Y18430D01*
G01X41092Y19669D02*
G01X41092Y18430D01*
G01X41483Y19669D02*
G01X41483Y18430D01*
G01X41483Y19669D02*
G01X41897Y19669D01*
G01X42072Y19611D01*
G01X42191Y19491D01*
G01X42250Y19375D01*
G01X42308Y19197D01*
G01X42308Y18902D01*
G01X42250Y18724D01*
G01X42191Y18605D01*
G01X42072Y18488D01*
G01X41897Y18430D01*
G01X41483Y18430D01*
G01X38862Y22298D02*
G01X39334Y21059D01*
G01X39806Y22298D02*
G01X39334Y21059D01*
G01X41084Y22004D02*
G01X41023Y22120D01*
G01X40906Y22240D01*
G01X40787Y22298D01*
G01X40551Y22298D01*
G01X40434Y22240D01*
G01X40314Y22120D01*
G01X40256Y22004D01*
G01X40198Y21826D01*
G01X40198Y21531D01*
G01X40256Y21353D01*
G01X40314Y21234D01*
G01X40434Y21117D01*
G01X40551Y21059D01*
G01X40787Y21059D01*
G01X40906Y21117D01*
G01X41023Y21234D01*
G01X41084Y21353D01*
G01X42359Y22004D02*
G01X42301Y22120D01*
G01X42181Y22240D01*
G01X42064Y22298D01*
G01X41828Y22298D01*
G01X41709Y22240D01*
G01X41592Y22120D01*
G01X41534Y22004D01*
G01X41473Y21826D01*
G01X41473Y21531D01*
G01X41534Y21353D01*
G01X41592Y21234D01*
G01X41709Y21117D01*
G01X41828Y21059D01*
G01X42064Y21059D01*
G01X42181Y21117D01*
G01X42301Y21234D01*
G01X42359Y21353D01*
G01X39403Y24803D02*
G01X39403Y23563D01*
G01X38989Y24803D02*
G01X39817Y24803D01*
G01X40205Y24803D02*
G01X41033Y23563D01*
G01X41033Y24803D02*
G01X40205Y23563D01*
G01X39116Y27543D02*
G01X39116Y26304D01*
G01X39116Y27543D02*
G01X39646Y27543D01*
G01X39824Y27485D01*
G01X39883Y27426D01*
G01X39944Y27307D01*
G01X39944Y27190D01*
G01X39883Y27071D01*
G01X39824Y27012D01*
G01X39646Y26954D01*
G01X39116Y26954D01*
G01X39530Y26954D02*
G01X39944Y26304D01*
G01X40332Y27543D02*
G01X41160Y26304D01*
G01X41160Y27543D02*
G01X40332Y26304D01*
G01X20360Y37068D02*
G01X20185Y37010D01*
G01X20124Y36890D01*
G01X20124Y36774D01*
G01X20185Y36654D01*
G01X20302Y36596D01*
G01X20538Y36537D01*
G01X20716Y36479D01*
G01X20833Y36360D01*
G01X20894Y36240D01*
G01X20894Y36065D01*
G01X20833Y35946D01*
G01X20774Y35887D01*
G01X20596Y35829D01*
G01X20360Y35829D01*
G01X20185Y35887D01*
G01X20124Y35946D01*
G01X20066Y36065D01*
G01X20066Y36240D01*
G01X20124Y36360D01*
G01X20243Y36479D01*
G01X20421Y36537D01*
G01X20657Y36596D01*
G01X20774Y36654D01*
G01X20833Y36774D01*
G01X20833Y36890D01*
G01X20774Y37010D01*
G01X20596Y37068D01*
G01X20360Y37068D01*
G01X21282Y37068D02*
G01X21282Y35829D01*
G01X22110Y37068D02*
G01X21282Y36240D01*
G01X21579Y36537D02*
G01X22110Y35829D01*
G01X17947Y41767D02*
G01X17772Y41709D01*
G01X17711Y41589D01*
G01X17711Y41473D01*
G01X17772Y41353D01*
G01X17889Y41295D01*
G01X18125Y41236D01*
G01X18303Y41178D01*
G01X18420Y41059D01*
G01X18481Y40939D01*
G01X18481Y40764D01*
G01X18420Y40645D01*
G01X18361Y40586D01*
G01X18183Y40528D01*
G01X17947Y40528D01*
G01X17772Y40586D01*
G01X17711Y40645D01*
G01X17653Y40764D01*
G01X17653Y40939D01*
G01X17711Y41059D01*
G01X17830Y41178D01*
G01X18008Y41236D01*
G01X18244Y41295D01*
G01X18361Y41353D01*
G01X18420Y41473D01*
G01X18420Y41589D01*
G01X18361Y41709D01*
G01X18183Y41767D01*
G01X17947Y41767D01*
G01X18869Y41767D02*
G01X18869Y40528D01*
G01X19697Y41767D02*
G01X18869Y40939D01*
G01X19166Y41236D02*
G01X19697Y40528D01*
G01X14224Y16565D02*
G01X14343Y16624D01*
G01X14518Y16802D01*
G01X14518Y15562D01*
G01X15262Y16802D02*
G01X15087Y16743D01*
G01X14968Y16565D01*
G01X14909Y16271D01*
G01X14909Y16093D01*
G01X14968Y15798D01*
G01X15087Y15621D01*
G01X15262Y15562D01*
G01X15382Y15562D01*
G01X15560Y15621D01*
G01X15676Y15798D01*
G01X15737Y16093D01*
G01X15737Y16271D01*
G01X15676Y16565D01*
G01X15560Y16743D01*
G01X15382Y16802D01*
G01X15262Y16802D01*
G01X16482Y16802D02*
G01X16304Y16743D01*
G01X16184Y16565D01*
G01X16126Y16271D01*
G01X16126Y16093D01*
G01X16184Y15798D01*
G01X16304Y15621D01*
G01X16482Y15562D01*
G01X16598Y15562D01*
G01X16776Y15621D01*
G01X16896Y15798D01*
G01X16954Y16093D01*
G01X16954Y16271D01*
G01X16896Y16565D01*
G01X16776Y16743D01*
G01X16598Y16802D01*
G01X16482Y16802D01*
G01X20574Y13083D02*
G01X20693Y13141D01*
G01X20868Y13319D01*
G01X20868Y12080D01*
G01X21612Y13319D02*
G01X21437Y13261D01*
G01X21318Y13083D01*
G01X21259Y12788D01*
G01X21259Y12611D01*
G01X21318Y12316D01*
G01X21437Y12138D01*
G01X21612Y12080D01*
G01X21732Y12080D01*
G01X21910Y12138D01*
G01X22026Y12316D01*
G01X22087Y12611D01*
G01X22087Y12788D01*
G01X22026Y13083D01*
G01X21910Y13261D01*
G01X21732Y13319D01*
G01X21612Y13319D01*
G01X22832Y13319D02*
G01X22654Y13261D01*
G01X22534Y13083D01*
G01X22476Y12788D01*
G01X22476Y12611D01*
G01X22534Y12316D01*
G01X22654Y12138D01*
G01X22832Y12080D01*
G01X22948Y12080D01*
G01X23126Y12138D01*
G01X23246Y12316D01*
G01X23304Y12611D01*
G01X23304Y12788D01*
G01X23246Y13083D01*
G01X23126Y13261D01*
G01X22948Y13319D01*
G01X22832Y13319D01*
G01X25654Y16512D02*
G01X25773Y16570D01*
G01X25948Y16748D01*
G01X25948Y15509D01*
G01X26692Y16748D02*
G01X26517Y16690D01*
G01X26398Y16512D01*
G01X26339Y16217D01*
G01X26339Y16040D01*
G01X26398Y15745D01*
G01X26517Y15567D01*
G01X26692Y15509D01*
G01X26812Y15509D01*
G01X26990Y15567D01*
G01X27106Y15745D01*
G01X27167Y16040D01*
G01X27167Y16217D01*
G01X27106Y16512D01*
G01X26990Y16690D01*
G01X26812Y16748D01*
G01X26692Y16748D01*
G01X27912Y16748D02*
G01X27734Y16690D01*
G01X27614Y16512D01*
G01X27556Y16217D01*
G01X27556Y16040D01*
G01X27614Y15745D01*
G01X27734Y15567D01*
G01X27912Y15509D01*
G01X28028Y15509D01*
G01X28206Y15567D01*
G01X28326Y15745D01*
G01X28384Y16040D01*
G01X28384Y16217D01*
G01X28326Y16512D01*
G01X28206Y16690D01*
G01X28028Y16748D01*
G01X27912Y16748D01*
G01X31877Y13083D02*
G01X31996Y13141D01*
G01X32171Y13319D01*
G01X32171Y12080D01*
G01X32562Y13319D02*
G01X32562Y12080D01*
G01X33154Y12905D02*
G01X32562Y12316D01*
G01X32799Y12552D02*
G01X33213Y12080D01*
G01X8509Y3431D02*
G01X8509Y1493D01*
G01X8509Y3431D02*
G01X9339Y3431D01*
G01X9616Y3340D01*
G01X9710Y3248D01*
G01X9801Y3063D01*
G01X9801Y2877D01*
G01X9710Y2692D01*
G01X9616Y2600D01*
G01X9339Y2509D01*
G01X8509Y2509D01*
G01X9156Y2509D02*
G01X9801Y1493D01*
G01X10411Y3431D02*
G01X11704Y1493D01*
G01X11704Y3431D02*
G01X10411Y1493D01*
G01X12313Y3431D02*
G01X12313Y1493D01*
G01X12313Y3431D02*
G01X12961Y3431D01*
G01X13238Y3340D01*
G01X13423Y3154D01*
G01X13515Y2971D01*
G01X13606Y2692D01*
G01X13606Y2232D01*
G01X13515Y1955D01*
G01X13423Y1770D01*
G01X13238Y1584D01*
G01X12961Y1493D01*
G01X12313Y1493D01*
G01X16776Y3431D02*
G01X16776Y1493D01*
G01X16129Y3431D02*
G01X17421Y3431D01*
G01X18031Y3431D02*
G01X19324Y1493D01*
G01X19324Y3431D02*
G01X18031Y1493D01*
G01X19933Y3431D02*
G01X19933Y1493D01*
G01X19933Y3431D02*
G01X20581Y3431D01*
G01X20858Y3340D01*
G01X21043Y3154D01*
G01X21135Y2971D01*
G01X21226Y2692D01*
G01X21226Y2232D01*
G01X21135Y1955D01*
G01X21043Y1770D01*
G01X20858Y1584D01*
G01X20581Y1493D01*
G01X19933Y1493D01*
G01X23114Y3431D02*
G01X23114Y1493D01*
G01X23114Y3431D02*
G01X23944Y3431D01*
G01X24221Y3340D01*
G01X24315Y3248D01*
G01X24406Y3063D01*
G01X24406Y2877D01*
G01X24315Y2692D01*
G01X24221Y2600D01*
G01X23944Y2509D01*
G01X23114Y2509D02*
G01X23944Y2509D01*
G01X24221Y2415D01*
G01X24315Y2324D01*
G01X24406Y2138D01*
G01X24406Y1861D01*
G01X24315Y1676D01*
G01X24221Y1584D01*
G01X23944Y1493D01*
G01X23114Y1493D01*
G01X25016Y3431D02*
G01X25016Y2047D01*
G01X25107Y1770D01*
G01X25293Y1584D01*
G01X25570Y1493D01*
G01X25755Y1493D01*
G01X26032Y1584D01*
G01X26217Y1770D01*
G01X26309Y2047D01*
G01X26309Y3431D01*
G01X28211Y3154D02*
G01X28028Y3340D01*
G01X27749Y3431D01*
G01X27381Y3431D01*
G01X27104Y3340D01*
G01X26918Y3154D01*
G01X26918Y2971D01*
G01X27012Y2786D01*
G01X27104Y2692D01*
G01X27289Y2600D01*
G01X27843Y2415D01*
G01X28028Y2324D01*
G01X28120Y2232D01*
G01X28211Y2047D01*
G01X28211Y1770D01*
G01X28028Y1584D01*
G01X27749Y1493D01*
G01X27381Y1493D01*
G01X27104Y1584D01*
G01X26918Y1770D01*
G01X28821Y3431D02*
G01X29560Y2509D01*
G01X29560Y1493D01*
G01X30299Y3431D02*
G01X29560Y2509D01*
G01X31750Y3431D02*
G01X31750Y1493D01*
G01X31750Y3431D02*
G01X32580Y3431D01*
G01X32857Y3340D01*
G01X32951Y3248D01*
G01X33042Y3063D01*
G01X33042Y2786D01*
G01X32951Y2600D01*
G01X32857Y2509D01*
G01X32580Y2415D01*
G01X31750Y2415D01*
G01X34206Y3431D02*
G01X34023Y3340D01*
G01X33837Y3154D01*
G01X33743Y2971D01*
G01X33652Y2692D01*
G01X33652Y2232D01*
G01X33743Y1955D01*
G01X33837Y1770D01*
G01X34023Y1584D01*
G01X34206Y1493D01*
G01X34577Y1493D01*
G01X34759Y1584D01*
G01X34945Y1770D01*
G01X35039Y1955D01*
G01X35130Y2232D01*
G01X35130Y2692D01*
G01X35039Y2971D01*
G01X34945Y3154D01*
G01X34759Y3340D01*
G01X34577Y3431D01*
G01X34206Y3431D01*
G01X35740Y3431D02*
G01X36202Y1493D01*
G01X36664Y3431D02*
G01X36202Y1493D01*
G01X36664Y3431D02*
G01X37124Y1493D01*
G01X37586Y3431D02*
G01X37124Y1493D01*
G01X38196Y3431D02*
G01X38196Y1493D01*
G01X38196Y3431D02*
G01X39397Y3431D01*
G01X38196Y2509D02*
G01X38935Y2509D01*
G01X38196Y1493D02*
G01X39397Y1493D01*
G01X40007Y3431D02*
G01X40007Y1493D01*
G01X40007Y3431D02*
G01X40838Y3431D01*
G01X41114Y3340D01*
G01X41208Y3248D01*
G01X41300Y3063D01*
G01X41300Y2877D01*
G01X41208Y2692D01*
G01X41114Y2600D01*
G01X40838Y2509D01*
G01X40007Y2509D01*
G01X40652Y2509D02*
G01X41300Y1493D01*
G54D10*
G75*
G01X20625Y21859D02*
G03X24587Y21859I1981J-1498D01*
G01*
G75*
G01X13767Y21859D02*
G03X17729Y21859I1981J-1498D01*
G01*
G75*
G01X20701Y9690D02*
G02X16891Y9690I-1905J-2540D01*
G01*
G75*
G01X13716Y9690D02*
G02X9906Y9690I-1905J-2540D01*
G01*
G75*
G01X27483Y21859D02*
G03X31445Y21859I1981J-1498D01*
G01*
G75*
G01X28194Y9563D02*
G02X24384Y9563I-1905J-2540D01*
G01*
G75*
G01X36322Y9690D02*
G02X32512Y9690I-1905J-2540D01*
G01*
G75*
G01X21336Y7150D02*
G03X21336Y7150I-2540J0D01*
G01*
G75*
G01X14351Y7150D02*
G03X14351Y7150I-2540J0D01*
G01*
G75*
G01X28829Y7023D02*
G03X28829Y7023I-2540J0D01*
G01*
G75*
G01X36957Y7150D02*
G03X36957Y7150I-2540J0D01*
G01*
G36*
G01X27337Y68942D02*
G01X31336Y68942D01*
G01X31336Y61942D01*
G01X27337Y61942D01*
G01X27337Y68942D01*
G37*
M00*
M02*
