G04 Layer: BottomSilkLayer*
G04 EasyEDA v6.1.41, Thu, 16 May 2019 15:27:20 GMT*
G04 2d326a8386664dfebb0799a9ee8975a2,41c397309db345c68939c290f9bc7d8a,10*
G04 Gerber Generator version 0.2*
G04 Scale: 100 percent, Rotated: No, Reflected: No *
G04 Dimensions in millimeters *
G04 leading zeros omitted , absolute positions ,3 integer and 3 decimal *
%FSLAX33Y33*%
%MOMM*%
G90*
G71D02*

%ADD20C,0.203200*%
%ADD24C,0.299999*%

%LPD*%

%LPD*%
G36*
G01X29536Y47112D02*
G01X29515Y47133D01*
G01X29501Y47128D01*
G01X29469Y47112D01*
G01X29421Y47089D01*
G01X29359Y47057D01*
G01X29286Y47019D01*
G01X29202Y46975D01*
G01X29111Y46927D01*
G01X29013Y46875D01*
G01X28893Y46811D01*
G01X28833Y46781D01*
G01X28774Y46752D01*
G01X28715Y46724D01*
G01X28657Y46697D01*
G01X28598Y46671D01*
G01X28541Y46646D01*
G01X28483Y46622D01*
G01X28426Y46598D01*
G01X28368Y46576D01*
G01X28311Y46555D01*
G01X28253Y46534D01*
G01X28196Y46515D01*
G01X28138Y46495D01*
G01X28080Y46477D01*
G01X28022Y46460D01*
G01X27963Y46443D01*
G01X27903Y46427D01*
G01X27843Y46412D01*
G01X27783Y46398D01*
G01X27722Y46384D01*
G01X27660Y46371D01*
G01X27597Y46358D01*
G01X27534Y46346D01*
G01X27404Y46324D01*
G01X27337Y46314D01*
G01X27269Y46304D01*
G01X27200Y46295D01*
G01X27130Y46286D01*
G01X27059Y46278D01*
G01X26995Y46272D01*
G01X26930Y46266D01*
G01X26802Y46256D01*
G01X26738Y46252D01*
G01X26674Y46249D01*
G01X26546Y46245D01*
G01X26355Y46245D01*
G01X26291Y46247D01*
G01X26228Y46249D01*
G01X26164Y46251D01*
G01X26101Y46255D01*
G01X26038Y46260D01*
G01X25975Y46264D01*
G01X25849Y46276D01*
G01X25787Y46283D01*
G01X25724Y46291D01*
G01X25600Y46309D01*
G01X25538Y46319D01*
G01X25414Y46341D01*
G01X25353Y46353D01*
G01X25231Y46379D01*
G01X25170Y46394D01*
G01X25110Y46408D01*
G01X24990Y46440D01*
G01X24871Y46474D01*
G01X24812Y46493D01*
G01X24695Y46531D01*
G01X24579Y46573D01*
G01X24465Y46617D01*
G01X24408Y46640D01*
G01X24351Y46664D01*
G01X24295Y46688D01*
G01X24240Y46713D01*
G01X24184Y46739D01*
G01X24130Y46765D01*
G01X24075Y46792D01*
G01X24021Y46820D01*
G01X23967Y46849D01*
G01X23914Y46878D01*
G01X23843Y46916D01*
G01X23776Y46951D01*
G01X23713Y46983D01*
G01X23655Y47011D01*
G01X23605Y47035D01*
G01X23563Y47052D01*
G01X23533Y47063D01*
G01X23514Y47067D01*
G01X23493Y47057D01*
G01X23462Y47029D01*
G01X23424Y46987D01*
G01X23380Y46933D01*
G01X23333Y46872D01*
G01X23286Y46805D01*
G01X23239Y46736D01*
G01X23196Y46668D01*
G01X23159Y46605D01*
G01X23130Y46550D01*
G01X23111Y46505D01*
G01X23104Y46475D01*
G01X23108Y46465D01*
G01X23121Y46453D01*
G01X23140Y46437D01*
G01X23167Y46418D01*
G01X23201Y46397D01*
G01X23241Y46373D01*
G01X23286Y46347D01*
G01X23337Y46319D01*
G01X23391Y46289D01*
G01X23451Y46258D01*
G01X23513Y46226D01*
G01X23579Y46193D01*
G01X23648Y46159D01*
G01X23719Y46125D01*
G01X23791Y46090D01*
G01X23864Y46056D01*
G01X23938Y46021D01*
G01X24012Y45988D01*
G01X24086Y45954D01*
G01X24158Y45922D01*
G01X24230Y45891D01*
G01X24300Y45862D01*
G01X24367Y45834D01*
G01X24431Y45808D01*
G01X24492Y45784D01*
G01X24549Y45763D01*
G01X24602Y45744D01*
G01X24650Y45728D01*
G01X24702Y45712D01*
G01X24754Y45697D01*
G01X24807Y45682D01*
G01X24862Y45668D01*
G01X24916Y45654D01*
G01X24973Y45641D01*
G01X25030Y45629D01*
G01X25088Y45616D01*
G01X25206Y45594D01*
G01X25266Y45583D01*
G01X25327Y45573D01*
G01X25388Y45564D01*
G01X25450Y45555D01*
G01X25576Y45539D01*
G01X25640Y45532D01*
G01X25704Y45524D01*
G01X25768Y45518D01*
G01X25898Y45508D01*
G01X25964Y45503D01*
G01X26029Y45499D01*
G01X26095Y45495D01*
G01X26162Y45492D01*
G01X26294Y45488D01*
G01X26360Y45487D01*
G01X26427Y45486D01*
G01X26559Y45486D01*
G01X26625Y45487D01*
G01X26757Y45491D01*
G01X26822Y45493D01*
G01X26888Y45496D01*
G01X26953Y45501D01*
G01X27017Y45505D01*
G01X27082Y45510D01*
G01X27209Y45521D01*
G01X27272Y45527D01*
G01X27396Y45543D01*
G01X27518Y45559D01*
G01X27578Y45569D01*
G01X27696Y45589D01*
G01X27810Y45613D01*
G01X27865Y45625D01*
G01X27921Y45638D01*
G01X27978Y45653D01*
G01X28039Y45670D01*
G01X28101Y45689D01*
G01X28166Y45708D01*
G01X28232Y45730D01*
G01X28300Y45753D01*
G01X28369Y45777D01*
G01X28439Y45802D01*
G01X28509Y45828D01*
G01X28581Y45855D01*
G01X28653Y45883D01*
G01X28725Y45912D01*
G01X28797Y45940D01*
G01X28869Y45970D01*
G01X28940Y46000D01*
G01X29078Y46060D01*
G01X29146Y46091D01*
G01X29212Y46121D01*
G01X29276Y46151D01*
G01X29339Y46181D01*
G01X29398Y46211D01*
G01X29455Y46240D01*
G01X29510Y46269D01*
G01X29562Y46296D01*
G01X29610Y46324D01*
G01X29655Y46349D01*
G01X29696Y46374D01*
G01X29733Y46398D01*
G01X29766Y46421D01*
G01X29794Y46442D01*
G01X29818Y46462D01*
G01X29836Y46480D01*
G01X29850Y46497D01*
G01X29858Y46512D01*
G01X29862Y46537D01*
G01X29859Y46571D01*
G01X29848Y46612D01*
G01X29831Y46658D01*
G01X29809Y46709D01*
G01X29782Y46762D01*
G01X29750Y46817D01*
G01X29714Y46871D01*
G01X29643Y46973D01*
G01X29581Y47056D01*
G01X29536Y47112D01*
G37*

%LPD*%
G36*
G01X28860Y48099D02*
G01X28840Y48119D01*
G01X28826Y48114D01*
G01X28795Y48101D01*
G01X28748Y48080D01*
G01X28687Y48052D01*
G01X28614Y48019D01*
G01X28532Y47980D01*
G01X28442Y47937D01*
G01X28346Y47891D01*
G01X28286Y47862D01*
G01X28168Y47808D01*
G01X28110Y47782D01*
G01X28052Y47758D01*
G01X27995Y47735D01*
G01X27938Y47713D01*
G01X27883Y47692D01*
G01X27771Y47652D01*
G01X27716Y47635D01*
G01X27661Y47617D01*
G01X27606Y47602D01*
G01X27551Y47586D01*
G01X27496Y47572D01*
G01X27441Y47559D01*
G01X27385Y47547D01*
G01X27330Y47535D01*
G01X27218Y47515D01*
G01X27161Y47506D01*
G01X27104Y47499D01*
G01X27047Y47491D01*
G01X26989Y47485D01*
G01X26871Y47475D01*
G01X26810Y47471D01*
G01X26749Y47468D01*
G01X26687Y47465D01*
G01X26624Y47464D01*
G01X26560Y47463D01*
G01X26495Y47462D01*
G01X26428Y47463D01*
G01X26363Y47464D01*
G01X26299Y47466D01*
G01X26235Y47469D01*
G01X26173Y47472D01*
G01X26111Y47476D01*
G01X25989Y47486D01*
G01X25930Y47492D01*
G01X25871Y47499D01*
G01X25755Y47515D01*
G01X25641Y47535D01*
G01X25529Y47557D01*
G01X25474Y47570D01*
G01X25418Y47584D01*
G01X25363Y47598D01*
G01X25309Y47613D01*
G01X25254Y47629D01*
G01X25199Y47646D01*
G01X25145Y47664D01*
G01X25090Y47683D01*
G01X25036Y47702D01*
G01X24981Y47723D01*
G01X24927Y47744D01*
G01X24817Y47790D01*
G01X24761Y47814D01*
G01X24706Y47840D01*
G01X24650Y47866D01*
G01X24204Y48079D01*
G01X24049Y47898D01*
G01X23989Y47821D01*
G01X23939Y47742D01*
G01X23905Y47672D01*
G01X23893Y47619D01*
G01X23897Y47603D01*
G01X23910Y47583D01*
G01X23929Y47562D01*
G01X23956Y47538D01*
G01X23989Y47513D01*
G01X24028Y47485D01*
G01X24073Y47457D01*
G01X24123Y47427D01*
G01X24178Y47396D01*
G01X24238Y47364D01*
G01X24301Y47332D01*
G01X24368Y47299D01*
G01X24437Y47266D01*
G01X24510Y47234D01*
G01X24584Y47201D01*
G01X24660Y47169D01*
G01X24738Y47138D01*
G01X24894Y47078D01*
G01X24972Y47050D01*
G01X25050Y47024D01*
G01X25127Y47000D01*
G01X25202Y46977D01*
G01X25275Y46956D01*
G01X25320Y46945D01*
G01X25368Y46934D01*
G01X25418Y46924D01*
G01X25469Y46914D01*
G01X25522Y46905D01*
G01X25634Y46889D01*
G01X25752Y46875D01*
G01X25813Y46869D01*
G01X25875Y46864D01*
G01X25938Y46858D01*
G01X26002Y46854D01*
G01X26067Y46851D01*
G01X26132Y46847D01*
G01X26198Y46845D01*
G01X26265Y46843D01*
G01X26399Y46841D01*
G01X26466Y46841D01*
G01X26534Y46842D01*
G01X26668Y46844D01*
G01X26735Y46847D01*
G01X26802Y46849D01*
G01X26868Y46853D01*
G01X26998Y46861D01*
G01X27124Y46873D01*
G01X27186Y46879D01*
G01X27247Y46886D01*
G01X27306Y46894D01*
G01X27364Y46902D01*
G01X27420Y46911D01*
G01X27475Y46920D01*
G01X27529Y46931D01*
G01X27580Y46941D01*
G01X27629Y46952D01*
G01X27676Y46964D01*
G01X27727Y46978D01*
G01X27781Y46994D01*
G01X27837Y47012D01*
G01X27896Y47032D01*
G01X27957Y47053D01*
G01X28020Y47075D01*
G01X28084Y47100D01*
G01X28149Y47125D01*
G01X28281Y47179D01*
G01X28348Y47207D01*
G01X28414Y47236D01*
G01X28481Y47265D01*
G01X28546Y47295D01*
G01X28672Y47355D01*
G01X28732Y47385D01*
G01X28791Y47415D01*
G01X28847Y47444D01*
G01X28901Y47473D01*
G01X28951Y47502D01*
G01X28998Y47529D01*
G01X29041Y47556D01*
G01X29080Y47582D01*
G01X29118Y47622D01*
G01X29121Y47677D01*
G01X29088Y47759D01*
G01X29015Y47880D01*
G01X28953Y47972D01*
G01X28900Y48048D01*
G01X28860Y48099D01*
G37*

%LPD*%
G36*
G01X28265Y48938D02*
G01X28163Y49095D01*
G01X27745Y48906D01*
G01X27685Y48879D01*
G01X27625Y48853D01*
G01X27565Y48829D01*
G01X27506Y48807D01*
G01X27446Y48785D01*
G01X27387Y48764D01*
G01X27269Y48728D01*
G01X27211Y48711D01*
G01X27152Y48696D01*
G01X27094Y48682D01*
G01X27035Y48669D01*
G01X26977Y48658D01*
G01X26918Y48647D01*
G01X26860Y48638D01*
G01X26744Y48624D01*
G01X26686Y48619D01*
G01X26628Y48615D01*
G01X26512Y48611D01*
G01X26454Y48611D01*
G01X26396Y48612D01*
G01X26338Y48615D01*
G01X26279Y48618D01*
G01X26221Y48623D01*
G01X26163Y48629D01*
G01X26105Y48637D01*
G01X26046Y48646D01*
G01X25988Y48656D01*
G01X25929Y48667D01*
G01X25811Y48693D01*
G01X25753Y48709D01*
G01X25693Y48725D01*
G01X25634Y48743D01*
G01X25574Y48761D01*
G01X25515Y48782D01*
G01X25455Y48803D01*
G01X25394Y48825D01*
G01X25274Y48875D01*
G01X25213Y48901D01*
G01X25152Y48929D01*
G01X24865Y49063D01*
G01X24742Y48904D01*
G01X24695Y48838D01*
G01X24655Y48776D01*
G01X24629Y48725D01*
G01X24619Y48692D01*
G01X24623Y48677D01*
G01X24635Y48659D01*
G01X24657Y48639D01*
G01X24685Y48618D01*
G01X24721Y48595D01*
G01X24763Y48571D01*
G01X24811Y48546D01*
G01X24864Y48519D01*
G01X24922Y48492D01*
G01X24984Y48465D01*
G01X25050Y48438D01*
G01X25119Y48410D01*
G01X25190Y48383D01*
G01X25263Y48357D01*
G01X25337Y48330D01*
G01X25412Y48305D01*
G01X25488Y48281D01*
G01X25563Y48258D01*
G01X25637Y48238D01*
G01X25709Y48218D01*
G01X25779Y48201D01*
G01X25847Y48186D01*
G01X25911Y48174D01*
G01X25972Y48163D01*
G01X26035Y48155D01*
G01X26099Y48148D01*
G01X26163Y48142D01*
G01X26228Y48137D01*
G01X26358Y48131D01*
G01X26423Y48129D01*
G01X26488Y48129D01*
G01X26554Y48130D01*
G01X26619Y48133D01*
G01X26685Y48136D01*
G01X26815Y48146D01*
G01X26880Y48153D01*
G01X26945Y48161D01*
G01X27010Y48170D01*
G01X27074Y48180D01*
G01X27138Y48191D01*
G01X27264Y48217D01*
G01X27326Y48231D01*
G01X27448Y48263D01*
G01X27568Y48299D01*
G01X27626Y48319D01*
G01X27684Y48340D01*
G01X27740Y48361D01*
G01X27796Y48384D01*
G01X27851Y48407D01*
G01X27904Y48432D01*
G01X27956Y48458D01*
G01X28039Y48501D01*
G01X28116Y48543D01*
G01X28185Y48584D01*
G01X28246Y48622D01*
G01X28297Y48656D01*
G01X28335Y48685D01*
G01X28359Y48708D01*
G01X28367Y48724D01*
G01X28359Y48759D01*
G01X28337Y48811D01*
G01X28304Y48873D01*
G01X28265Y48938D01*
G37*

%LPD*%
G36*
G01X26630Y53949D02*
G01X26568Y53949D01*
G01X26505Y53948D01*
G01X26442Y53945D01*
G01X26378Y53940D01*
G01X26313Y53935D01*
G01X26249Y53928D01*
G01X26184Y53920D01*
G01X26119Y53910D01*
G01X26055Y53900D01*
G01X25991Y53888D01*
G01X25928Y53875D01*
G01X25865Y53861D01*
G01X25804Y53845D01*
G01X25744Y53829D01*
G01X25685Y53811D01*
G01X25628Y53792D01*
G01X25572Y53772D01*
G01X25512Y53748D01*
G01X25453Y53723D01*
G01X25394Y53696D01*
G01X25338Y53667D01*
G01X25282Y53636D01*
G01X25227Y53604D01*
G01X25173Y53570D01*
G01X25120Y53534D01*
G01X25068Y53496D01*
G01X25018Y53457D01*
G01X24969Y53416D01*
G01X24921Y53374D01*
G01X24874Y53329D01*
G01X24829Y53284D01*
G01X24785Y53236D01*
G01X24742Y53188D01*
G01X24700Y53137D01*
G01X24660Y53086D01*
G01X24621Y53032D01*
G01X24584Y52977D01*
G01X24548Y52921D01*
G01X24513Y52864D01*
G01X24480Y52805D01*
G01X24448Y52744D01*
G01X24417Y52681D01*
G01X24389Y52624D01*
G01X24365Y52569D01*
G01X24343Y52518D01*
G01X24325Y52468D01*
G01X24309Y52418D01*
G01X24296Y52368D01*
G01X24285Y52315D01*
G01X24277Y52258D01*
G01X24270Y52198D01*
G01X24265Y52131D01*
G01X24261Y52058D01*
G01X24258Y51977D01*
G01X24257Y51886D01*
G01X24255Y51785D01*
G01X24255Y51559D01*
G01X24257Y51458D01*
G01X24258Y51368D01*
G01X24261Y51287D01*
G01X24265Y51213D01*
G01X24270Y51147D01*
G01X24277Y51086D01*
G01X24285Y51030D01*
G01X24296Y50977D01*
G01X24309Y50926D01*
G01X24325Y50876D01*
G01X24343Y50826D01*
G01X24365Y50775D01*
G01X24389Y50721D01*
G01X24417Y50663D01*
G01X24449Y50600D01*
G01X24476Y50547D01*
G01X24507Y50493D01*
G01X24539Y50440D01*
G01X24572Y50388D01*
G01X24608Y50336D01*
G01X24645Y50284D01*
G01X24683Y50234D01*
G01X24723Y50184D01*
G01X24763Y50136D01*
G01X24805Y50088D01*
G01X24848Y50042D01*
G01X24892Y49997D01*
G01X24936Y49954D01*
G01X24981Y49912D01*
G01X25027Y49871D01*
G01X25073Y49833D01*
G01X25119Y49796D01*
G01X25166Y49762D01*
G01X25212Y49730D01*
G01X25259Y49699D01*
G01X25305Y49671D01*
G01X25351Y49646D01*
G01X25397Y49623D01*
G01X25443Y49603D01*
G01X25503Y49579D01*
G01X25563Y49556D01*
G01X25624Y49535D01*
G01X25684Y49514D01*
G01X25744Y49496D01*
G01X25805Y49479D01*
G01X25866Y49463D01*
G01X25927Y49449D01*
G01X25987Y49437D01*
G01X26048Y49425D01*
G01X26109Y49416D01*
G01X26169Y49407D01*
G01X26230Y49400D01*
G01X26290Y49394D01*
G01X26350Y49390D01*
G01X26410Y49387D01*
G01X26530Y49385D01*
G01X26589Y49386D01*
G01X26707Y49392D01*
G01X26765Y49397D01*
G01X26881Y49411D01*
G01X26938Y49420D01*
G01X26995Y49430D01*
G01X27052Y49441D01*
G01X27107Y49454D01*
G01X27163Y49468D01*
G01X27218Y49483D01*
G01X27272Y49499D01*
G01X27325Y49516D01*
G01X27379Y49535D01*
G01X27431Y49555D01*
G01X27483Y49576D01*
G01X27534Y49598D01*
G01X27585Y49621D01*
G01X27635Y49645D01*
G01X27683Y49671D01*
G01X27732Y49698D01*
G01X27779Y49726D01*
G01X27826Y49755D01*
G01X27872Y49785D01*
G01X27917Y49816D01*
G01X27961Y49848D01*
G01X28004Y49881D01*
G01X28046Y49916D01*
G01X28087Y49951D01*
G01X28127Y49987D01*
G01X28167Y50025D01*
G01X28205Y50063D01*
G01X28242Y50103D01*
G01X28278Y50143D01*
G01X28313Y50185D01*
G01X28346Y50227D01*
G01X28379Y50271D01*
G01X28410Y50315D01*
G01X28441Y50360D01*
G01X28470Y50406D01*
G01X28524Y50502D01*
G01X28549Y50551D01*
G01X28572Y50601D01*
G01X28595Y50652D01*
G01X28616Y50703D01*
G01X28635Y50756D01*
G01X28653Y50810D01*
G01X28670Y50864D01*
G01X28683Y50912D01*
G01X28695Y50963D01*
G01X28706Y51015D01*
G01X28716Y51070D01*
G01X28724Y51127D01*
G01X28732Y51186D01*
G01X28739Y51246D01*
G01X28745Y51308D01*
G01X28749Y51370D01*
G01X28753Y51434D01*
G01X28755Y51499D01*
G01X28756Y51564D01*
G01X28757Y51630D01*
G01X28755Y51762D01*
G01X28753Y51828D01*
G01X28749Y51893D01*
G01X28745Y51959D01*
G01X28740Y52023D01*
G01X28733Y52087D01*
G01X28726Y52150D01*
G01X28718Y52212D01*
G01X28709Y52272D01*
G01X28699Y52331D01*
G01X28688Y52388D01*
G01X28676Y52443D01*
G01X28663Y52497D01*
G01X28650Y52548D01*
G01X28635Y52596D01*
G01X28620Y52642D01*
G01X28604Y52685D01*
G01X28587Y52725D01*
G01X28561Y52779D01*
G01X28533Y52833D01*
G01X28504Y52886D01*
G01X28472Y52938D01*
G01X28439Y52989D01*
G01X28405Y53039D01*
G01X28368Y53088D01*
G01X28330Y53136D01*
G01X28291Y53183D01*
G01X28249Y53229D01*
G01X28207Y53273D01*
G01X28162Y53317D01*
G01X28116Y53360D01*
G01X28070Y53401D01*
G01X28021Y53441D01*
G01X27971Y53480D01*
G01X27920Y53517D01*
G01X27867Y53554D01*
G01X27814Y53589D01*
G01X27759Y53622D01*
G01X27702Y53655D01*
G01X27645Y53685D01*
G01X27587Y53715D01*
G01X27528Y53743D01*
G01X27467Y53770D01*
G01X27406Y53795D01*
G01X27343Y53818D01*
G01X27280Y53840D01*
G01X27216Y53860D01*
G01X27151Y53879D01*
G01X27085Y53896D01*
G01X27018Y53912D01*
G01X26969Y53921D01*
G01X26917Y53929D01*
G01X26863Y53936D01*
G01X26807Y53941D01*
G01X26749Y53946D01*
G01X26690Y53948D01*
G01X26630Y53949D01*
G37*

%LPC*%
G36*
G01X26598Y52908D02*
G01X26539Y52910D01*
G01X26480Y52907D01*
G01X26420Y52901D01*
G01X26360Y52890D01*
G01X26299Y52875D01*
G01X26238Y52856D01*
G01X26178Y52832D01*
G01X26117Y52805D01*
G01X26061Y52775D01*
G01X26008Y52743D01*
G01X25959Y52708D01*
G01X25913Y52670D01*
G01X25870Y52630D01*
G01X25830Y52588D01*
G01X25794Y52541D01*
G01X25760Y52492D01*
G01X25730Y52439D01*
G01X25702Y52383D01*
G01X25676Y52324D01*
G01X25654Y52260D01*
G01X25634Y52193D01*
G01X25616Y52122D01*
G01X25601Y52046D01*
G01X25590Y51981D01*
G01X25582Y51914D01*
G01X25576Y51845D01*
G01X25572Y51775D01*
G01X25570Y51704D01*
G01X25571Y51632D01*
G01X25574Y51559D01*
G01X25578Y51488D01*
G01X25585Y51416D01*
G01X25593Y51346D01*
G01X25604Y51276D01*
G01X25616Y51208D01*
G01X25630Y51142D01*
G01X25646Y51078D01*
G01X25663Y51017D01*
G01X25682Y50960D01*
G01X25703Y50906D01*
G01X25725Y50855D01*
G01X25748Y50809D01*
G01X25773Y50767D01*
G01X25804Y50725D01*
G01X25839Y50685D01*
G01X25879Y50648D01*
G01X25922Y50614D01*
G01X25967Y50583D01*
G01X26017Y50555D01*
G01X26069Y50530D01*
G01X26122Y50508D01*
G01X26179Y50489D01*
G01X26237Y50473D01*
G01X26296Y50461D01*
G01X26356Y50451D01*
G01X26417Y50445D01*
G01X26478Y50442D01*
G01X26540Y50442D01*
G01X26601Y50446D01*
G01X26662Y50454D01*
G01X26722Y50464D01*
G01X26781Y50478D01*
G01X26838Y50496D01*
G01X26894Y50517D01*
G01X26947Y50542D01*
G01X26998Y50571D01*
G01X27045Y50603D01*
G01X27091Y50637D01*
G01X27133Y50674D01*
G01X27172Y50711D01*
G01X27207Y50749D01*
G01X27240Y50789D01*
G01X27271Y50832D01*
G01X27298Y50876D01*
G01X27323Y50922D01*
G01X27345Y50971D01*
G01X27364Y51023D01*
G01X27381Y51078D01*
G01X27395Y51136D01*
G01X27408Y51197D01*
G01X27418Y51262D01*
G01X27425Y51331D01*
G01X27431Y51404D01*
G01X27434Y51480D01*
G01X27436Y51562D01*
G01X27435Y51647D01*
G01X27433Y51738D01*
G01X27428Y51848D01*
G01X27423Y51945D01*
G01X27417Y52030D01*
G01X27409Y52106D01*
G01X27399Y52174D01*
G01X27387Y52234D01*
G01X27373Y52288D01*
G01X27356Y52338D01*
G01X27337Y52384D01*
G01X27313Y52429D01*
G01X27286Y52473D01*
G01X27256Y52518D01*
G01X27215Y52571D01*
G01X27173Y52621D01*
G01X27128Y52666D01*
G01X27082Y52708D01*
G01X27034Y52746D01*
G01X26984Y52780D01*
G01X26933Y52811D01*
G01X26880Y52837D01*
G01X26825Y52859D01*
G01X26771Y52877D01*
G01X26714Y52891D01*
G01X26657Y52902D01*
G01X26598Y52908D01*
G37*

%LPD*%
G36*
G01X16199Y53950D02*
G01X16136Y53950D01*
G01X16073Y53949D01*
G01X16008Y53947D01*
G01X15943Y53944D01*
G01X15878Y53940D01*
G01X15812Y53935D01*
G01X15746Y53929D01*
G01X15680Y53922D01*
G01X15615Y53915D01*
G01X15551Y53906D01*
G01X15487Y53896D01*
G01X15424Y53886D01*
G01X15363Y53875D01*
G01X15302Y53863D01*
G01X15244Y53850D01*
G01X15188Y53836D01*
G01X15133Y53822D01*
G01X15082Y53806D01*
G01X15032Y53791D01*
G01X14985Y53774D01*
G01X14919Y53748D01*
G01X14856Y53719D01*
G01X14796Y53687D01*
G01X14737Y53653D01*
G01X14681Y53617D01*
G01X14628Y53579D01*
G01X14578Y53538D01*
G01X14530Y53494D01*
G01X14485Y53449D01*
G01X14443Y53402D01*
G01X14404Y53353D01*
G01X14368Y53302D01*
G01X14335Y53249D01*
G01X14305Y53195D01*
G01X14278Y53138D01*
G01X14254Y53080D01*
G01X14234Y53021D01*
G01X14217Y52961D01*
G01X14203Y52898D01*
G01X14193Y52835D01*
G01X14191Y52816D01*
G01X14189Y52792D01*
G01X14186Y52764D01*
G01X14184Y52731D01*
G01X14182Y52694D01*
G01X14180Y52653D01*
G01X14178Y52607D01*
G01X14176Y52558D01*
G01X14174Y52505D01*
G01X14171Y52449D01*
G01X14169Y52389D01*
G01X14167Y52326D01*
G01X14165Y52261D01*
G01X14163Y52191D01*
G01X14161Y52120D01*
G01X14159Y52047D01*
G01X14157Y51970D01*
G01X14155Y51892D01*
G01X14153Y51812D01*
G01X14151Y51730D01*
G01X14150Y51646D01*
G01X14148Y51562D01*
G01X14147Y51475D01*
G01X14145Y51388D01*
G01X14143Y51210D01*
G01X14141Y51031D01*
G01X14124Y49501D01*
G01X14697Y49501D01*
G01X14815Y49502D01*
G01X14917Y49503D01*
G01X15003Y49505D01*
G01X15076Y49510D01*
G01X15136Y49515D01*
G01X15186Y49523D01*
G01X15227Y49534D01*
G01X15259Y49547D01*
G01X15286Y49564D01*
G01X15307Y49583D01*
G01X15325Y49607D01*
G01X15342Y49634D01*
G01X15365Y49692D01*
G01X15378Y49752D01*
G01X15379Y49806D01*
G01X15366Y49848D01*
G01X15360Y49868D01*
G01X15380Y49864D01*
G01X15420Y49837D01*
G01X15478Y49789D01*
G01X15519Y49754D01*
G01X15563Y49721D01*
G01X15607Y49689D01*
G01X15653Y49659D01*
G01X15700Y49630D01*
G01X15749Y49603D01*
G01X15799Y49577D01*
G01X15851Y49553D01*
G01X15903Y49531D01*
G01X15956Y49510D01*
G01X16011Y49491D01*
G01X16067Y49474D01*
G01X16122Y49458D01*
G01X16180Y49444D01*
G01X16237Y49431D01*
G01X16296Y49421D01*
G01X16355Y49412D01*
G01X16415Y49405D01*
G01X16474Y49400D01*
G01X16534Y49396D01*
G01X16595Y49395D01*
G01X16656Y49395D01*
G01X16717Y49397D01*
G01X16778Y49401D01*
G01X16839Y49407D01*
G01X16900Y49415D01*
G01X16961Y49424D01*
G01X17022Y49436D01*
G01X17078Y49449D01*
G01X17134Y49464D01*
G01X17189Y49481D01*
G01X17242Y49500D01*
G01X17293Y49520D01*
G01X17343Y49543D01*
G01X17391Y49567D01*
G01X17439Y49592D01*
G01X17484Y49620D01*
G01X17528Y49649D01*
G01X17570Y49679D01*
G01X17611Y49711D01*
G01X17650Y49745D01*
G01X17688Y49779D01*
G01X17724Y49816D01*
G01X17758Y49853D01*
G01X17791Y49891D01*
G01X17822Y49930D01*
G01X17851Y49971D01*
G01X17879Y50012D01*
G01X17929Y50098D01*
G01X17951Y50142D01*
G01X17972Y50187D01*
G01X17991Y50233D01*
G01X18009Y50279D01*
G01X18024Y50327D01*
G01X18038Y50374D01*
G01X18049Y50422D01*
G01X18059Y50471D01*
G01X18068Y50520D01*
G01X18074Y50569D01*
G01X18078Y50619D01*
G01X18081Y50669D01*
G01X18082Y50719D01*
G01X18080Y50770D01*
G01X18077Y50820D01*
G01X18072Y50870D01*
G01X18065Y50920D01*
G01X18056Y50971D01*
G01X18045Y51021D01*
G01X18031Y51071D01*
G01X18016Y51121D01*
G01X17999Y51170D01*
G01X17980Y51219D01*
G01X17959Y51267D01*
G01X17935Y51316D01*
G01X17910Y51363D01*
G01X17883Y51411D01*
G01X17853Y51457D01*
G01X17821Y51503D01*
G01X17787Y51548D01*
G01X17751Y51592D01*
G01X17713Y51636D01*
G01X17672Y51678D01*
G01X17630Y51720D01*
G01X17605Y51742D01*
G01X17575Y51765D01*
G01X17543Y51788D01*
G01X17506Y51810D01*
G01X17467Y51834D01*
G01X17424Y51857D01*
G01X17379Y51881D01*
G01X17330Y51904D01*
G01X17279Y51928D01*
G01X17225Y51951D01*
G01X17169Y51975D01*
G01X17111Y51997D01*
G01X17052Y52020D01*
G01X16990Y52043D01*
G01X16927Y52064D01*
G01X16863Y52086D01*
G01X16797Y52107D01*
G01X16729Y52127D01*
G01X16662Y52147D01*
G01X16593Y52167D01*
G01X16525Y52185D01*
G01X16455Y52202D01*
G01X16386Y52218D01*
G01X16316Y52234D01*
G01X16178Y52262D01*
G01X16109Y52274D01*
G01X16042Y52285D01*
G01X15505Y52368D01*
G01X15484Y52586D01*
G01X15481Y52644D01*
G01X15482Y52698D01*
G01X15487Y52748D01*
G01X15498Y52794D01*
G01X15513Y52837D01*
G01X15533Y52875D01*
G01X15558Y52910D01*
G01X15588Y52941D01*
G01X15623Y52968D01*
G01X15662Y52991D01*
G01X15707Y53010D01*
G01X15757Y53026D01*
G01X15812Y53038D01*
G01X15872Y53047D01*
G01X15938Y53052D01*
G01X16009Y53054D01*
G01X16094Y53050D01*
G01X16174Y53041D01*
G01X16248Y53026D01*
G01X16316Y53004D01*
G01X16377Y52977D01*
G01X16432Y52945D01*
G01X16479Y52908D01*
G01X16518Y52866D01*
G01X16549Y52820D01*
G01X16572Y52770D01*
G01X16586Y52715D01*
G01X16591Y52657D01*
G01X16592Y52627D01*
G01X16596Y52603D01*
G01X16606Y52583D01*
G01X16622Y52566D01*
G01X16648Y52554D01*
G01X16684Y52545D01*
G01X16733Y52539D01*
G01X16796Y52535D01*
G01X16876Y52534D01*
G01X16974Y52535D01*
G01X17092Y52538D01*
G01X17232Y52541D01*
G01X17873Y52560D01*
G01X17852Y52791D01*
G01X17844Y52849D01*
G01X17834Y52907D01*
G01X17821Y52963D01*
G01X17804Y53018D01*
G01X17786Y53072D01*
G01X17764Y53126D01*
G01X17739Y53177D01*
G01X17711Y53227D01*
G01X17681Y53277D01*
G01X17648Y53324D01*
G01X17612Y53370D01*
G01X17574Y53415D01*
G01X17533Y53459D01*
G01X17489Y53501D01*
G01X17443Y53541D01*
G01X17395Y53580D01*
G01X17344Y53617D01*
G01X17291Y53652D01*
G01X17235Y53686D01*
G01X17177Y53718D01*
G01X17117Y53749D01*
G01X17054Y53778D01*
G01X16989Y53805D01*
G01X16922Y53830D01*
G01X16853Y53853D01*
G01X16782Y53874D01*
G01X16709Y53893D01*
G01X16633Y53910D01*
G01X16587Y53920D01*
G01X16538Y53927D01*
G01X16487Y53934D01*
G01X16433Y53939D01*
G01X16377Y53944D01*
G01X16320Y53947D01*
G01X16260Y53949D01*
G01X16199Y53950D01*
G37*

%LPC*%
G36*
G01X15556Y51527D02*
G01X15512Y51534D01*
G01X15502Y51527D01*
G01X15493Y51507D01*
G01X15486Y51473D01*
G01X15482Y51427D01*
G01X15481Y51373D01*
G01X15482Y51309D01*
G01X15486Y51238D01*
G01X15492Y51162D01*
G01X15502Y51089D01*
G01X15514Y51019D01*
G01X15529Y50954D01*
G01X15546Y50892D01*
G01X15567Y50835D01*
G01X15591Y50781D01*
G01X15617Y50730D01*
G01X15647Y50684D01*
G01X15679Y50642D01*
G01X15715Y50603D01*
G01X15753Y50569D01*
G01X15795Y50538D01*
G01X15839Y50510D01*
G01X15888Y50487D01*
G01X15939Y50467D01*
G01X15993Y50451D01*
G01X16050Y50438D01*
G01X16111Y50429D01*
G01X16174Y50424D01*
G01X16241Y50422D01*
G01X16313Y50425D01*
G01X16380Y50432D01*
G01X16443Y50443D01*
G01X16501Y50458D01*
G01X16555Y50477D01*
G01X16603Y50500D01*
G01X16646Y50527D01*
G01X16684Y50556D01*
G01X16717Y50589D01*
G01X16744Y50624D01*
G01X16765Y50661D01*
G01X16780Y50701D01*
G01X16790Y50743D01*
G01X16793Y50787D01*
G01X16790Y50833D01*
G01X16780Y50879D01*
G01X16764Y50927D01*
G01X16741Y50975D01*
G01X16710Y51025D01*
G01X16673Y51074D01*
G01X16654Y51093D01*
G01X16625Y51114D01*
G01X16588Y51137D01*
G01X16543Y51163D01*
G01X16490Y51190D01*
G01X16432Y51218D01*
G01X16369Y51247D01*
G01X16302Y51277D01*
G01X16231Y51306D01*
G01X16158Y51335D01*
G01X16084Y51364D01*
G01X16010Y51392D01*
G01X15936Y51418D01*
G01X15863Y51443D01*
G01X15794Y51465D01*
G01X15727Y51486D01*
G01X15665Y51503D01*
G01X15607Y51517D01*
G01X15556Y51527D01*
G37*

%LPD*%
G36*
G01X32405Y55281D02*
G01X32306Y55281D01*
G01X32195Y55279D01*
G01X32069Y55277D01*
G01X31360Y55258D01*
G01X31326Y50820D01*
G01X29190Y50784D01*
G01X29171Y50142D01*
G01X29152Y49499D01*
G01X30980Y49517D01*
G01X32808Y49534D01*
G01X32825Y52330D01*
G01X32826Y52435D01*
G01X32826Y52538D01*
G01X32827Y52641D01*
G01X32827Y52844D01*
G01X32828Y52943D01*
G01X32828Y53139D01*
G01X32829Y53235D01*
G01X32829Y53422D01*
G01X32830Y53514D01*
G01X32830Y53779D01*
G01X32829Y53863D01*
G01X32829Y54027D01*
G01X32828Y54106D01*
G01X32828Y54257D01*
G01X32827Y54330D01*
G01X32827Y54467D01*
G01X32826Y54532D01*
G01X32826Y54595D01*
G01X32825Y54655D01*
G01X32825Y54713D01*
G01X32824Y54767D01*
G01X32823Y54819D01*
G01X32822Y54868D01*
G01X32822Y54914D01*
G01X32821Y54957D01*
G01X32820Y54997D01*
G01X32819Y55034D01*
G01X32818Y55067D01*
G01X32817Y55098D01*
G01X32816Y55125D01*
G01X32815Y55148D01*
G01X32814Y55168D01*
G01X32813Y55184D01*
G01X32812Y55197D01*
G01X32811Y55205D01*
G01X32810Y55210D01*
G01X32800Y55226D01*
G01X32783Y55238D01*
G01X32758Y55250D01*
G01X32725Y55259D01*
G01X32682Y55266D01*
G01X32629Y55272D01*
G01X32566Y55277D01*
G01X32491Y55280D01*
G01X32405Y55281D01*
G37*

%LPD*%
G36*
G01X22832Y55285D02*
G01X22567Y55285D01*
G01X22466Y55284D01*
G01X22358Y55283D01*
G01X22242Y55282D01*
G01X22120Y55281D01*
G01X21990Y55279D01*
G01X21852Y55277D01*
G01X21706Y55275D01*
G01X21574Y55273D01*
G01X21448Y55271D01*
G01X21327Y55268D01*
G01X21211Y55266D01*
G01X21100Y55263D01*
G01X20994Y55261D01*
G01X20892Y55258D01*
G01X20795Y55255D01*
G01X20703Y55252D01*
G01X20614Y55248D01*
G01X20529Y55243D01*
G01X20449Y55239D01*
G01X20371Y55235D01*
G01X20298Y55229D01*
G01X20228Y55224D01*
G01X20162Y55218D01*
G01X20099Y55211D01*
G01X20038Y55204D01*
G01X19981Y55197D01*
G01X19926Y55188D01*
G01X19873Y55179D01*
G01X19824Y55170D01*
G01X19776Y55160D01*
G01X19731Y55149D01*
G01X19688Y55137D01*
G01X19647Y55125D01*
G01X19607Y55112D01*
G01X19569Y55098D01*
G01X19533Y55083D01*
G01X19497Y55067D01*
G01X19463Y55051D01*
G01X19397Y55015D01*
G01X19335Y54975D01*
G01X19304Y54953D01*
G01X19274Y54931D01*
G01X19244Y54907D01*
G01X19213Y54882D01*
G01X19183Y54855D01*
G01X19152Y54828D01*
G01X19121Y54800D01*
G01X19089Y54770D01*
G01X19057Y54739D01*
G01X19017Y54699D01*
G01X18979Y54659D01*
G01X18943Y54617D01*
G01X18909Y54572D01*
G01X18876Y54527D01*
G01X18845Y54480D01*
G01X18815Y54432D01*
G01X18787Y54382D01*
G01X18760Y54331D01*
G01X18736Y54279D01*
G01X18712Y54225D01*
G01X18690Y54170D01*
G01X18671Y54114D01*
G01X18652Y54056D01*
G01X18636Y53997D01*
G01X18621Y53937D01*
G01X18608Y53876D01*
G01X18596Y53814D01*
G01X18587Y53751D01*
G01X18579Y53687D01*
G01X18572Y53621D01*
G01X18568Y53555D01*
G01X18565Y53488D01*
G01X18564Y53420D01*
G01X18565Y53350D01*
G01X18568Y53281D01*
G01X18572Y53215D01*
G01X18578Y53150D01*
G01X18586Y53087D01*
G01X18596Y53025D01*
G01X18608Y52965D01*
G01X18621Y52907D01*
G01X18636Y52850D01*
G01X18653Y52794D01*
G01X18673Y52741D01*
G01X18694Y52688D01*
G01X18717Y52636D01*
G01X18743Y52587D01*
G01X18770Y52537D01*
G01X18800Y52490D01*
G01X18832Y52443D01*
G01X18865Y52397D01*
G01X18901Y52352D01*
G01X18940Y52308D01*
G01X18980Y52265D01*
G01X19023Y52223D01*
G01X19068Y52181D01*
G01X19116Y52140D01*
G01X19166Y52100D01*
G01X19218Y52060D01*
G01X19273Y52021D01*
G01X19330Y51983D01*
G01X19672Y51758D01*
G01X19506Y51468D01*
G01X19466Y51398D01*
G01X19384Y51256D01*
G01X19343Y51184D01*
G01X19301Y51111D01*
G01X19178Y50892D01*
G01X19136Y50819D01*
G01X19095Y50747D01*
G01X19015Y50603D01*
G01X18976Y50533D01*
G01X18937Y50464D01*
G01X18899Y50396D01*
G01X18862Y50329D01*
G01X18825Y50264D01*
G01X18790Y50200D01*
G01X18756Y50139D01*
G01X18723Y50079D01*
G01X18691Y50021D01*
G01X18661Y49966D01*
G01X18632Y49914D01*
G01X18605Y49864D01*
G01X18579Y49817D01*
G01X18555Y49773D01*
G01X18533Y49732D01*
G01X18513Y49694D01*
G01X18495Y49660D01*
G01X18479Y49630D01*
G01X18465Y49604D01*
G01X18454Y49581D01*
G01X18438Y49549D01*
G01X18434Y49539D01*
G01X18433Y49535D01*
G01X18440Y49530D01*
G01X18462Y49525D01*
G01X18497Y49521D01*
G01X18545Y49518D01*
G01X18604Y49514D01*
G01X18673Y49511D01*
G01X18752Y49508D01*
G01X18839Y49506D01*
G01X18934Y49504D01*
G01X19034Y49503D01*
G01X19140Y49502D01*
G01X19251Y49501D01*
G01X20070Y49501D01*
G01X20616Y50520D01*
G01X21163Y51539D01*
G01X21573Y51540D01*
G01X21982Y51541D01*
G01X22000Y50537D01*
G01X22018Y49534D01*
G01X23466Y49534D01*
G01X23483Y52330D01*
G01X23484Y52435D01*
G01X23484Y52538D01*
G01X23485Y52641D01*
G01X23485Y52844D01*
G01X23486Y52943D01*
G01X23486Y53139D01*
G01X23487Y53235D01*
G01X23487Y53947D01*
G01X23486Y54028D01*
G01X23486Y54184D01*
G01X23485Y54258D01*
G01X23485Y54401D01*
G01X23484Y54468D01*
G01X23484Y54534D01*
G01X23483Y54596D01*
G01X23483Y54657D01*
G01X23482Y54714D01*
G01X23481Y54769D01*
G01X23481Y54821D01*
G01X23480Y54870D01*
G01X23479Y54916D01*
G01X23478Y54960D01*
G01X23477Y54999D01*
G01X23476Y55036D01*
G01X23475Y55070D01*
G01X23474Y55100D01*
G01X23473Y55127D01*
G01X23472Y55151D01*
G01X23471Y55171D01*
G01X23470Y55187D01*
G01X23469Y55200D01*
G01X23468Y55209D01*
G01X23467Y55214D01*
G01X23462Y55222D01*
G01X23455Y55228D01*
G01X23446Y55235D01*
G01X23434Y55241D01*
G01X23418Y55247D01*
G01X23399Y55252D01*
G01X23377Y55257D01*
G01X23350Y55261D01*
G01X23320Y55265D01*
G01X23285Y55269D01*
G01X23246Y55272D01*
G01X23202Y55275D01*
G01X23154Y55278D01*
G01X23100Y55280D01*
G01X23042Y55281D01*
G01X22977Y55283D01*
G01X22908Y55284D01*
G01X22832Y55285D01*
G37*

%LPC*%
G36*
G01X21986Y52692D02*
G01X21986Y54117D01*
G01X21157Y54095D01*
G01X21020Y54091D01*
G01X20898Y54088D01*
G01X20790Y54084D01*
G01X20696Y54080D01*
G01X20615Y54075D01*
G01X20545Y54069D01*
G01X20484Y54062D01*
G01X20433Y54054D01*
G01X20389Y54044D01*
G01X20352Y54033D01*
G01X20320Y54020D01*
G01X20293Y54004D01*
G01X20269Y53987D01*
G01X20246Y53967D01*
G01X20225Y53944D01*
G01X20203Y53918D01*
G01X20172Y53873D01*
G01X20145Y53821D01*
G01X20122Y53763D01*
G01X20104Y53699D01*
G01X20090Y53632D01*
G01X20080Y53561D01*
G01X20074Y53488D01*
G01X20073Y53414D01*
G01X20076Y53340D01*
G01X20082Y53267D01*
G01X20093Y53195D01*
G01X20109Y53127D01*
G01X20128Y53062D01*
G01X20151Y53003D01*
G01X20179Y52949D01*
G01X20211Y52902D01*
G01X20234Y52873D01*
G01X20257Y52848D01*
G01X20279Y52825D01*
G01X20303Y52806D01*
G01X20330Y52789D01*
G01X20361Y52775D01*
G01X20397Y52763D01*
G01X20439Y52753D01*
G01X20490Y52745D01*
G01X20549Y52738D01*
G01X20619Y52732D01*
G01X20700Y52727D01*
G01X20794Y52723D01*
G01X20902Y52719D01*
G01X21025Y52716D01*
G01X21165Y52712D01*
G01X21986Y52692D01*
G37*

%LPD*%
G36*
G01X13563Y54023D02*
G01X13546Y54029D01*
G01X13527Y54025D01*
G01X13505Y54011D01*
G01X13482Y53987D01*
G01X13457Y53953D01*
G01X13431Y53909D01*
G01X13402Y53855D01*
G01X13372Y53790D01*
G01X13331Y53704D01*
G01X13296Y53643D01*
G01X13265Y53606D01*
G01X13236Y53593D01*
G01X13206Y53605D01*
G01X13175Y53641D01*
G01X13140Y53702D01*
G01X13099Y53787D01*
G01X13073Y53842D01*
G01X13048Y53889D01*
G01X13025Y53927D01*
G01X13003Y53955D01*
G01X12982Y53975D01*
G01X12964Y53986D01*
G01X12946Y53987D01*
G01X12930Y53980D01*
G01X12916Y53964D01*
G01X12903Y53938D01*
G01X12891Y53904D01*
G01X12881Y53861D01*
G01X12872Y53808D01*
G01X12865Y53747D01*
G01X12859Y53676D01*
G01X12854Y53597D01*
G01X12851Y53521D01*
G01X12851Y53452D01*
G01X12854Y53391D01*
G01X12858Y53337D01*
G01X12865Y53290D01*
G01X12873Y53252D01*
G01X12883Y53221D01*
G01X12895Y53198D01*
G01X12908Y53183D01*
G01X12923Y53177D01*
G01X12938Y53180D01*
G01X12955Y53192D01*
G01X12973Y53213D01*
G01X12992Y53243D01*
G01X13011Y53283D01*
G01X13031Y53332D01*
G01X13086Y53479D01*
G01X13132Y53332D01*
G01X13158Y53266D01*
G01X13186Y53221D01*
G01X13217Y53197D01*
G01X13250Y53195D01*
G01X13286Y53214D01*
G01X13323Y53254D01*
G01X13363Y53316D01*
G01X13445Y53482D01*
G01X13474Y53524D01*
G01X13489Y53524D01*
G01X13492Y53481D01*
G01X13488Y53342D01*
G01X13497Y53251D01*
G01X13522Y53200D01*
G01X13565Y53186D01*
G01X13578Y53194D01*
G01X13591Y53219D01*
G01X13602Y53258D01*
G01X13611Y53310D01*
G01X13619Y53374D01*
G01X13625Y53448D01*
G01X13629Y53529D01*
G01X13630Y53618D01*
G01X13629Y53704D01*
G01X13626Y53779D01*
G01X13621Y53844D01*
G01X13613Y53900D01*
G01X13604Y53946D01*
G01X13592Y53982D01*
G01X13579Y54008D01*
G01X13563Y54023D01*
G37*

%LPD*%
G36*
G01X14095Y54037D02*
G01X13981Y54041D01*
G01X13848Y54035D01*
G01X13760Y54019D01*
G01X13711Y53988D01*
G01X13696Y53942D01*
G01X13704Y53904D01*
G01X13724Y53872D01*
G01X13754Y53851D01*
G01X13791Y53843D01*
G01X13835Y53826D01*
G01X13868Y53770D01*
G01X13892Y53675D01*
G01X13907Y53536D01*
G01X13913Y53458D01*
G01X13922Y53391D01*
G01X13934Y53333D01*
G01X13947Y53285D01*
G01X13962Y53248D01*
G01X13977Y53220D01*
G01X13993Y53202D01*
G01X14009Y53195D01*
G01X14025Y53198D01*
G01X14040Y53210D01*
G01X14054Y53234D01*
G01X14066Y53268D01*
G01X14076Y53312D01*
G01X14084Y53367D01*
G01X14089Y53432D01*
G01X14091Y53509D01*
G01X14092Y53607D01*
G01X14095Y53684D01*
G01X14102Y53742D01*
G01X14114Y53785D01*
G01X14131Y53814D01*
G01X14153Y53832D01*
G01X14184Y53841D01*
G01X14222Y53843D01*
G01X14303Y53856D01*
G01X14346Y53889D01*
G01X14350Y53937D01*
G01X14310Y53997D01*
G01X14271Y54014D01*
G01X14196Y54028D01*
G01X14095Y54037D01*
G37*

%LPD*%
G36*
G01X26684Y55187D02*
G01X26620Y55188D01*
G01X26556Y55187D01*
G01X26491Y55186D01*
G01X26361Y55180D01*
G01X26231Y55170D01*
G01X26103Y55156D01*
G01X26039Y55147D01*
G01X25977Y55138D01*
G01X25915Y55128D01*
G01X25854Y55116D01*
G01X25795Y55104D01*
G01X25736Y55091D01*
G01X25680Y55077D01*
G01X25625Y55062D01*
G01X25571Y55046D01*
G01X25496Y55021D01*
G01X25417Y54994D01*
G01X25337Y54964D01*
G01X25256Y54932D01*
G01X25175Y54898D01*
G01X25097Y54864D01*
G01X25020Y54828D01*
G01X24947Y54793D01*
G01X24878Y54759D01*
G01X24815Y54726D01*
G01X24759Y54695D01*
G01X24712Y54666D01*
G01X24673Y54640D01*
G01X24643Y54617D01*
G01X24625Y54597D01*
G01X24619Y54582D01*
G01X24630Y54552D01*
G01X24658Y54504D01*
G01X24698Y54445D01*
G01X24748Y54382D01*
G01X24874Y54231D01*
G01X25227Y54393D01*
G01X25291Y54422D01*
G01X25354Y54449D01*
G01X25414Y54475D01*
G01X25472Y54499D01*
G01X25529Y54521D01*
G01X25585Y54542D01*
G01X25639Y54561D01*
G01X25693Y54579D01*
G01X25745Y54595D01*
G01X25797Y54610D01*
G01X25849Y54623D01*
G01X25901Y54635D01*
G01X25953Y54646D01*
G01X26005Y54656D01*
G01X26058Y54664D01*
G01X26111Y54671D01*
G01X26166Y54678D01*
G01X26221Y54683D01*
G01X26278Y54688D01*
G01X26337Y54691D01*
G01X26397Y54693D01*
G01X26459Y54695D01*
G01X26524Y54696D01*
G01X26591Y54696D01*
G01X26648Y54695D01*
G01X26703Y54694D01*
G01X26756Y54692D01*
G01X26808Y54690D01*
G01X26908Y54682D01*
G01X26957Y54676D01*
G01X27005Y54669D01*
G01X27054Y54662D01*
G01X27102Y54653D01*
G01X27152Y54643D01*
G01X27201Y54631D01*
G01X27252Y54618D01*
G01X27304Y54604D01*
G01X27357Y54588D01*
G01X27413Y54570D01*
G01X27470Y54551D01*
G01X27530Y54530D01*
G01X27592Y54507D01*
G01X27657Y54483D01*
G01X27725Y54457D01*
G01X27797Y54428D01*
G01X27872Y54398D01*
G01X27952Y54365D01*
G01X28017Y54339D01*
G01X28070Y54321D01*
G01X28113Y54314D01*
G01X28149Y54316D01*
G01X28182Y54329D01*
G01X28214Y54353D01*
G01X28250Y54390D01*
G01X28291Y54439D01*
G01X28344Y54515D01*
G01X28373Y54579D01*
G01X28378Y54633D01*
G01X28358Y54677D01*
G01X28341Y54693D01*
G01X28317Y54712D01*
G01X28287Y54732D01*
G01X28251Y54753D01*
G01X28209Y54776D01*
G01X28163Y54799D01*
G01X28112Y54823D01*
G01X28057Y54847D01*
G01X27998Y54872D01*
G01X27937Y54897D01*
G01X27874Y54922D01*
G01X27808Y54947D01*
G01X27741Y54971D01*
G01X27673Y54995D01*
G01X27605Y55018D01*
G01X27537Y55040D01*
G01X27469Y55061D01*
G01X27402Y55080D01*
G01X27337Y55098D01*
G01X27274Y55114D01*
G01X27213Y55129D01*
G01X27156Y55141D01*
G01X27101Y55152D01*
G01X27052Y55160D01*
G01X26993Y55167D01*
G01X26933Y55173D01*
G01X26873Y55178D01*
G01X26811Y55182D01*
G01X26748Y55185D01*
G01X26684Y55187D01*
G37*

%LPD*%
G36*
G01X26724Y56509D02*
G01X26599Y56510D01*
G01X26536Y56509D01*
G01X26410Y56505D01*
G01X26346Y56502D01*
G01X26220Y56494D01*
G01X26157Y56489D01*
G01X26093Y56482D01*
G01X26030Y56475D01*
G01X25968Y56468D01*
G01X25905Y56460D01*
G01X25719Y56430D01*
G01X25597Y56406D01*
G01X25537Y56394D01*
G01X25477Y56380D01*
G01X25418Y56366D01*
G01X25359Y56350D01*
G01X25301Y56335D01*
G01X25244Y56318D01*
G01X25188Y56301D01*
G01X25118Y56279D01*
G01X25046Y56254D01*
G01X24974Y56228D01*
G01X24901Y56201D01*
G01X24827Y56173D01*
G01X24754Y56143D01*
G01X24680Y56113D01*
G01X24608Y56082D01*
G01X24537Y56051D01*
G01X24467Y56019D01*
G01X24400Y55987D01*
G01X24335Y55956D01*
G01X24272Y55925D01*
G01X24213Y55895D01*
G01X24158Y55865D01*
G01X24107Y55836D01*
G01X24060Y55809D01*
G01X24018Y55783D01*
G01X23982Y55758D01*
G01X23951Y55736D01*
G01X23926Y55715D01*
G01X23909Y55696D01*
G01X23897Y55680D01*
G01X23893Y55667D01*
G01X23905Y55628D01*
G01X23938Y55563D01*
G01X23986Y55480D01*
G01X24045Y55389D01*
G01X24197Y55166D01*
G01X24473Y55331D01*
G01X24523Y55360D01*
G01X24572Y55388D01*
G01X24623Y55415D01*
G01X24675Y55442D01*
G01X24727Y55468D01*
G01X24780Y55492D01*
G01X24834Y55517D01*
G01X24888Y55540D01*
G01X24944Y55563D01*
G01X24999Y55585D01*
G01X25113Y55627D01*
G01X25229Y55665D01*
G01X25347Y55701D01*
G01X25407Y55717D01*
G01X25468Y55733D01*
G01X25529Y55747D01*
G01X25591Y55762D01*
G01X25652Y55775D01*
G01X25778Y55799D01*
G01X25841Y55809D01*
G01X25905Y55820D01*
G01X25969Y55829D01*
G01X26033Y55837D01*
G01X26099Y55844D01*
G01X26164Y55851D01*
G01X26229Y55856D01*
G01X26295Y55861D01*
G01X26361Y55865D01*
G01X26432Y55868D01*
G01X26502Y55870D01*
G01X26570Y55872D01*
G01X26637Y55873D01*
G01X26703Y55873D01*
G01X26767Y55872D01*
G01X26831Y55870D01*
G01X26893Y55867D01*
G01X26954Y55863D01*
G01X27014Y55858D01*
G01X27074Y55852D01*
G01X27134Y55845D01*
G01X27193Y55837D01*
G01X27251Y55828D01*
G01X27309Y55818D01*
G01X27425Y55794D01*
G01X27541Y55766D01*
G01X27599Y55750D01*
G01X27658Y55733D01*
G01X27716Y55714D01*
G01X27776Y55695D01*
G01X27896Y55651D01*
G01X27958Y55628D01*
G01X28020Y55603D01*
G01X28084Y55576D01*
G01X28149Y55549D01*
G01X28214Y55519D01*
G01X28281Y55489D01*
G01X28350Y55457D01*
G01X28826Y55232D01*
G01X28992Y55448D01*
G01X29056Y55536D01*
G01X29108Y55613D01*
G01X29143Y55673D01*
G01X29157Y55705D01*
G01X29150Y55720D01*
G01X29132Y55740D01*
G01X29102Y55765D01*
G01X29063Y55793D01*
G01X29015Y55825D01*
G01X28959Y55860D01*
G01X28897Y55897D01*
G01X28829Y55935D01*
G01X28757Y55974D01*
G01X28681Y56014D01*
G01X28603Y56054D01*
G01X28524Y56092D01*
G01X28445Y56129D01*
G01X28367Y56164D01*
G01X28292Y56196D01*
G01X28219Y56225D01*
G01X28168Y56244D01*
G01X28110Y56264D01*
G01X28046Y56284D01*
G01X27977Y56305D01*
G01X27905Y56325D01*
G01X27830Y56345D01*
G01X27754Y56365D01*
G01X27676Y56384D01*
G01X27599Y56402D01*
G01X27523Y56418D01*
G01X27450Y56434D01*
G01X27380Y56447D01*
G01X27324Y56457D01*
G01X27208Y56473D01*
G01X27150Y56480D01*
G01X27090Y56487D01*
G01X27030Y56493D01*
G01X26970Y56498D01*
G01X26909Y56501D01*
G01X26848Y56505D01*
G01X26724Y56509D01*
G37*

%LPD*%
G36*
G01X26625Y57859D02*
G01X26563Y57859D01*
G01X26437Y57857D01*
G01X26374Y57855D01*
G01X26248Y57849D01*
G01X26185Y57845D01*
G01X26122Y57840D01*
G01X26058Y57835D01*
G01X25995Y57830D01*
G01X25931Y57823D01*
G01X25868Y57816D01*
G01X25804Y57808D01*
G01X25741Y57800D01*
G01X25678Y57791D01*
G01X25614Y57781D01*
G01X25488Y57761D01*
G01X25424Y57749D01*
G01X25361Y57737D01*
G01X25235Y57711D01*
G01X25173Y57697D01*
G01X25047Y57667D01*
G01X24923Y57635D01*
G01X24861Y57618D01*
G01X24800Y57600D01*
G01X24738Y57582D01*
G01X24677Y57563D01*
G01X24555Y57523D01*
G01X24494Y57502D01*
G01X24432Y57480D01*
G01X24366Y57455D01*
G01X24299Y57428D01*
G01X24229Y57399D01*
G01X24158Y57369D01*
G01X24014Y57305D01*
G01X23942Y57271D01*
G01X23869Y57237D01*
G01X23798Y57202D01*
G01X23728Y57168D01*
G01X23660Y57133D01*
G01X23594Y57098D01*
G01X23530Y57064D01*
G01X23469Y57031D01*
G01X23412Y56999D01*
G01X23359Y56968D01*
G01X23311Y56938D01*
G01X23267Y56910D01*
G01X23228Y56884D01*
G01X23195Y56859D01*
G01X23169Y56838D01*
G01X23149Y56819D01*
G01X23136Y56803D01*
G01X23135Y56758D01*
G01X23162Y56685D01*
G01X23211Y56593D01*
G01X23279Y56492D01*
G01X23351Y56394D01*
G01X23412Y56310D01*
G01X23457Y56248D01*
G01X23478Y56219D01*
G01X23492Y56219D01*
G01X23528Y56231D01*
G01X23581Y56252D01*
G01X23650Y56281D01*
G01X23733Y56319D01*
G01X23827Y56363D01*
G01X23930Y56413D01*
G01X24040Y56467D01*
G01X24170Y56532D01*
G01X24234Y56562D01*
G01X24297Y56592D01*
G01X24359Y56620D01*
G01X24420Y56647D01*
G01X24480Y56673D01*
G01X24539Y56698D01*
G01X24599Y56722D01*
G01X24657Y56744D01*
G01X24716Y56766D01*
G01X24774Y56787D01*
G01X24832Y56807D01*
G01X24889Y56826D01*
G01X24947Y56844D01*
G01X25005Y56861D01*
G01X25063Y56877D01*
G01X25121Y56892D01*
G01X25180Y56907D01*
G01X25238Y56921D01*
G01X25297Y56934D01*
G01X25357Y56946D01*
G01X25479Y56968D01*
G01X25541Y56978D01*
G01X25604Y56987D01*
G01X25668Y56996D01*
G01X25732Y57004D01*
G01X25798Y57012D01*
G01X25866Y57018D01*
G01X25934Y57025D01*
G01X26004Y57031D01*
G01X26075Y57036D01*
G01X26148Y57040D01*
G01X26223Y57044D01*
G01X26299Y57048D01*
G01X26370Y57051D01*
G01X26512Y57055D01*
G01X26720Y57055D01*
G01X26856Y57051D01*
G01X26924Y57048D01*
G01X27058Y57040D01*
G01X27124Y57035D01*
G01X27255Y57023D01*
G01X27320Y57015D01*
G01X27385Y57008D01*
G01X27449Y56999D01*
G01X27512Y56989D01*
G01X27575Y56980D01*
G01X27638Y56969D01*
G01X27762Y56945D01*
G01X27824Y56932D01*
G01X27885Y56918D01*
G01X27945Y56904D01*
G01X28006Y56888D01*
G01X28065Y56873D01*
G01X28183Y56839D01*
G01X28242Y56820D01*
G01X28300Y56802D01*
G01X28358Y56782D01*
G01X28415Y56762D01*
G01X28472Y56741D01*
G01X28528Y56719D01*
G01X28585Y56696D01*
G01X28641Y56674D01*
G01X28696Y56649D01*
G01X28751Y56625D01*
G01X28859Y56573D01*
G01X28967Y56519D01*
G01X29020Y56490D01*
G01X29072Y56461D01*
G01X29125Y56431D01*
G01X29176Y56401D01*
G01X29228Y56369D01*
G01X29325Y56316D01*
G01X29413Y56279D01*
G01X29484Y56262D01*
G01X29528Y56267D01*
G01X29557Y56291D01*
G01X29591Y56327D01*
G01X29628Y56371D01*
G01X29667Y56421D01*
G01X29706Y56476D01*
G01X29744Y56533D01*
G01X29780Y56591D01*
G01X29813Y56647D01*
G01X29840Y56699D01*
G01X29862Y56746D01*
G01X29875Y56785D01*
G01X29880Y56814D01*
G01X29878Y56830D01*
G01X29871Y56848D01*
G01X29861Y56866D01*
G01X29846Y56885D01*
G01X29827Y56906D01*
G01X29804Y56927D01*
G01X29777Y56949D01*
G01X29747Y56972D01*
G01X29713Y56996D01*
G01X29676Y57019D01*
G01X29636Y57044D01*
G01X29593Y57070D01*
G01X29547Y57096D01*
G01X29498Y57122D01*
G01X29445Y57148D01*
G01X29391Y57175D01*
G01X29334Y57203D01*
G01X29274Y57230D01*
G01X29213Y57258D01*
G01X29149Y57286D01*
G01X29083Y57314D01*
G01X29015Y57341D01*
G01X28946Y57369D01*
G01X28875Y57396D01*
G01X28802Y57423D01*
G01X28728Y57451D01*
G01X28653Y57478D01*
G01X28577Y57504D01*
G01X28499Y57530D01*
G01X28421Y57555D01*
G01X28342Y57580D01*
G01X28262Y57605D01*
G01X28182Y57629D01*
G01X28101Y57652D01*
G01X28020Y57674D01*
G01X27940Y57696D01*
G01X27883Y57710D01*
G01X27827Y57724D01*
G01X27770Y57736D01*
G01X27712Y57749D01*
G01X27597Y57771D01*
G01X27479Y57791D01*
G01X27420Y57800D01*
G01X27360Y57809D01*
G01X27300Y57817D01*
G01X27240Y57824D01*
G01X27180Y57830D01*
G01X27119Y57836D01*
G01X27058Y57841D01*
G01X26936Y57849D01*
G01X26812Y57855D01*
G01X26750Y57857D01*
G01X26688Y57858D01*
G01X26625Y57859D01*
G37*

%LPD*%
G36*
G01X23351Y25047D02*
G01X23146Y25047D01*
G01X23055Y25041D01*
G01X22991Y25022D01*
G01X22953Y24988D01*
G01X22941Y24941D01*
G01X22937Y24887D01*
G01X22917Y24869D01*
G01X22871Y24887D01*
G01X22790Y24941D01*
G01X22743Y24970D01*
G01X22692Y24994D01*
G01X22637Y25013D01*
G01X22579Y25028D01*
G01X22520Y25038D01*
G01X22459Y25043D01*
G01X22397Y25044D01*
G01X22336Y25039D01*
G01X22276Y25030D01*
G01X22218Y25016D01*
G01X22163Y24997D01*
G01X22111Y24973D01*
G01X22034Y24928D01*
G01X22009Y24888D01*
G01X22039Y24833D01*
G01X22123Y24740D01*
G01X22164Y24698D01*
G01X22205Y24665D01*
G01X22245Y24640D01*
G01X22286Y24621D01*
G01X22330Y24610D01*
G01X22378Y24604D01*
G01X22430Y24605D01*
G01X22488Y24612D01*
G01X22541Y24619D01*
G01X22590Y24623D01*
G01X22635Y24625D01*
G01X22675Y24623D01*
G01X22711Y24617D01*
G01X22744Y24607D01*
G01X22773Y24592D01*
G01X22799Y24572D01*
G01X22821Y24546D01*
G01X22841Y24513D01*
G01X22858Y24474D01*
G01X22873Y24428D01*
G01X22886Y24373D01*
G01X22898Y24311D01*
G01X22907Y24239D01*
G01X22916Y24159D01*
G01X22923Y24069D01*
G01X22930Y23969D01*
G01X22936Y23858D01*
G01X22941Y23736D01*
G01X22975Y22965D01*
G01X23163Y22944D01*
G01X23351Y22922D01*
G01X23351Y25047D01*
G37*

%LPD*%
G36*
G01X27446Y28324D02*
G01X27242Y28324D01*
G01X27162Y28318D01*
G01X27097Y28303D01*
G01X27053Y28280D01*
G01X27037Y28253D01*
G01X27029Y28226D01*
G01X27005Y28216D01*
G01X26964Y28226D01*
G01X26905Y28253D01*
G01X26852Y28276D01*
G01X26790Y28295D01*
G01X26722Y28308D01*
G01X26649Y28317D01*
G01X26573Y28321D01*
G01X26495Y28321D01*
G01X26419Y28315D01*
G01X26344Y28306D01*
G01X26273Y28292D01*
G01X26209Y28273D01*
G01X26152Y28251D01*
G01X26106Y28224D01*
G01X26072Y28199D01*
G01X26041Y28171D01*
G01X26011Y28141D01*
G01X25984Y28109D01*
G01X25959Y28074D01*
G01X25936Y28037D01*
G01X25915Y27996D01*
G01X25896Y27953D01*
G01X25880Y27907D01*
G01X25865Y27858D01*
G01X25852Y27806D01*
G01X25841Y27750D01*
G01X25832Y27691D01*
G01X25825Y27629D01*
G01X25819Y27562D01*
G01X25816Y27492D01*
G01X25814Y27418D01*
G01X25814Y27340D01*
G01X25815Y27257D01*
G01X25818Y27171D01*
G01X25824Y27063D01*
G01X25830Y26969D01*
G01X25837Y26886D01*
G01X25846Y26814D01*
G01X25856Y26751D01*
G01X25868Y26696D01*
G01X25883Y26647D01*
G01X25900Y26603D01*
G01X25921Y26564D01*
G01X25945Y26527D01*
G01X25973Y26491D01*
G01X26005Y26455D01*
G01X26046Y26414D01*
G01X26087Y26378D01*
G01X26131Y26346D01*
G01X26175Y26317D01*
G01X26220Y26294D01*
G01X26267Y26273D01*
G01X26315Y26258D01*
G01X26364Y26246D01*
G01X26414Y26238D01*
G01X26465Y26235D01*
G01X26517Y26236D01*
G01X26570Y26241D01*
G01X26624Y26250D01*
G01X26679Y26264D01*
G01X26735Y26281D01*
G01X26791Y26303D01*
G01X27037Y26405D01*
G01X27037Y25479D01*
G01X27036Y25361D01*
G01X27036Y25258D01*
G01X27034Y25170D01*
G01X27032Y25096D01*
G01X27029Y25034D01*
G01X27025Y24985D01*
G01X27020Y24947D01*
G01X27013Y24919D01*
G01X27004Y24900D01*
G01X26994Y24890D01*
G01X26982Y24887D01*
G01X26968Y24891D01*
G01X26952Y24901D01*
G01X26933Y24915D01*
G01X26912Y24934D01*
G01X26881Y24957D01*
G01X26843Y24978D01*
G01X26799Y24998D01*
G01X26749Y25014D01*
G01X26695Y25028D01*
G01X26641Y25038D01*
G01X26585Y25045D01*
G01X26530Y25047D01*
G01X26458Y25045D01*
G01X26394Y25036D01*
G01X26334Y25022D01*
G01X26277Y24999D01*
G01X26221Y24968D01*
G01X26164Y24927D01*
G01X26104Y24876D01*
G01X26038Y24813D01*
G01X25804Y24579D01*
G01X25842Y22965D01*
G01X26024Y22944D01*
G01X26206Y22924D01*
G01X26229Y23683D01*
G01X26233Y23801D01*
G01X26237Y23906D01*
G01X26241Y24000D01*
G01X26245Y24083D01*
G01X26250Y24157D01*
G01X26256Y24222D01*
G01X26263Y24279D01*
G01X26271Y24328D01*
G01X26280Y24370D01*
G01X26290Y24406D01*
G01X26302Y24437D01*
G01X26314Y24464D01*
G01X26329Y24487D01*
G01X26345Y24507D01*
G01X26364Y24525D01*
G01X26385Y24541D01*
G01X26447Y24579D01*
G01X26519Y24609D01*
G01X26592Y24629D01*
G01X26657Y24636D01*
G01X26702Y24635D01*
G01X26742Y24633D01*
G01X26778Y24628D01*
G01X26811Y24620D01*
G01X26841Y24609D01*
G01X26868Y24594D01*
G01X26891Y24575D01*
G01X26913Y24552D01*
G01X26932Y24523D01*
G01X26948Y24489D01*
G01X26963Y24449D01*
G01X26976Y24402D01*
G01X26987Y24348D01*
G01X26997Y24287D01*
G01X27006Y24218D01*
G01X27013Y24140D01*
G01X27020Y24054D01*
G01X27026Y23958D01*
G01X27032Y23852D01*
G01X27037Y23736D01*
G01X27071Y22965D01*
G01X27259Y22944D01*
G01X27446Y22922D01*
G01X27446Y28324D01*
G37*

%LPC*%
G36*
G01X26736Y27909D02*
G01X26673Y27915D01*
G01X26609Y27913D01*
G01X26546Y27905D01*
G01X26487Y27890D01*
G01X26432Y27868D01*
G01X26385Y27839D01*
G01X26347Y27803D01*
G01X26323Y27766D01*
G01X26303Y27718D01*
G01X26286Y27660D01*
G01X26272Y27594D01*
G01X26263Y27521D01*
G01X26256Y27445D01*
G01X26252Y27365D01*
G01X26252Y27283D01*
G01X26255Y27202D01*
G01X26262Y27123D01*
G01X26272Y27047D01*
G01X26284Y26977D01*
G01X26300Y26914D01*
G01X26319Y26858D01*
G01X26341Y26814D01*
G01X26366Y26781D01*
G01X26407Y26747D01*
G01X26453Y26719D01*
G01X26504Y26698D01*
G01X26558Y26683D01*
G01X26614Y26675D01*
G01X26670Y26673D01*
G01X26725Y26677D01*
G01X26779Y26687D01*
G01X26829Y26705D01*
G01X26874Y26727D01*
G01X26914Y26757D01*
G01X26946Y26792D01*
G01X26965Y26825D01*
G01X26982Y26869D01*
G01X26997Y26922D01*
G01X27009Y26982D01*
G01X27019Y27049D01*
G01X27026Y27121D01*
G01X27032Y27195D01*
G01X27034Y27272D01*
G01X27035Y27349D01*
G01X27033Y27425D01*
G01X27028Y27499D01*
G01X27021Y27569D01*
G01X27011Y27634D01*
G01X26999Y27692D01*
G01X26984Y27741D01*
G01X26966Y27782D01*
G01X26938Y27821D01*
G01X26899Y27853D01*
G01X26850Y27878D01*
G01X26795Y27897D01*
G01X26736Y27909D01*
G37*

%LPD*%
G36*
G01X12732Y25047D02*
G01X12666Y25049D01*
G01X12601Y25046D01*
G01X12536Y25039D01*
G01X12472Y25027D01*
G01X12410Y25010D01*
G01X12351Y24990D01*
G01X12294Y24964D01*
G01X12241Y24934D01*
G01X12192Y24899D01*
G01X12150Y24864D01*
G01X12110Y24825D01*
G01X12073Y24784D01*
G01X12037Y24739D01*
G01X12004Y24691D01*
G01X11973Y24642D01*
G01X11944Y24589D01*
G01X11918Y24535D01*
G01X11895Y24480D01*
G01X11875Y24422D01*
G01X11857Y24364D01*
G01X11842Y24304D01*
G01X11830Y24243D01*
G01X11822Y24182D01*
G01X11817Y24121D01*
G01X11815Y24060D01*
G01X11815Y23819D01*
G01X12464Y23819D01*
G01X12588Y23818D01*
G01X12696Y23817D01*
G01X12789Y23815D01*
G01X12868Y23810D01*
G01X12933Y23805D01*
G01X12987Y23799D01*
G01X13029Y23790D01*
G01X13062Y23780D01*
G01X13086Y23768D01*
G01X13101Y23753D01*
G01X13109Y23736D01*
G01X13112Y23716D01*
G01X13107Y23673D01*
G01X13095Y23632D01*
G01X13075Y23593D01*
G01X13048Y23554D01*
G01X13016Y23519D01*
G01X12978Y23486D01*
G01X12936Y23455D01*
G01X12889Y23427D01*
G01X12841Y23403D01*
G01X12789Y23382D01*
G01X12736Y23364D01*
G01X12682Y23351D01*
G01X12628Y23342D01*
G01X12575Y23338D01*
G01X12523Y23338D01*
G01X12472Y23344D01*
G01X12425Y23354D01*
G01X12381Y23371D01*
G01X12342Y23393D01*
G01X12308Y23421D01*
G01X12261Y23455D01*
G01X12208Y23465D01*
G01X12141Y23450D01*
G01X12054Y23409D01*
G01X12005Y23380D01*
G01X11965Y23352D01*
G01X11936Y23325D01*
G01X11918Y23298D01*
G01X11911Y23270D01*
G01X11914Y23243D01*
G01X11927Y23215D01*
G01X11952Y23185D01*
G01X11987Y23154D01*
G01X12034Y23122D01*
G01X12091Y23088D01*
G01X12161Y23051D01*
G01X12213Y23025D01*
G01X12266Y23003D01*
G01X12318Y22983D01*
G01X12370Y22967D01*
G01X12422Y22953D01*
G01X12473Y22942D01*
G01X12523Y22934D01*
G01X12573Y22928D01*
G01X12622Y22926D01*
G01X12671Y22926D01*
G01X12719Y22928D01*
G01X12766Y22933D01*
G01X12812Y22941D01*
G01X12857Y22951D01*
G01X12901Y22963D01*
G01X12944Y22978D01*
G01X12987Y22996D01*
G01X13028Y23015D01*
G01X13067Y23038D01*
G01X13106Y23062D01*
G01X13143Y23089D01*
G01X13179Y23118D01*
G01X13213Y23149D01*
G01X13246Y23182D01*
G01X13277Y23217D01*
G01X13307Y23254D01*
G01X13335Y23293D01*
G01X13361Y23334D01*
G01X13385Y23378D01*
G01X13408Y23422D01*
G01X13429Y23469D01*
G01X13448Y23518D01*
G01X13465Y23569D01*
G01X13479Y23621D01*
G01X13492Y23675D01*
G01X13503Y23730D01*
G01X13511Y23788D01*
G01X13517Y23847D01*
G01X13520Y23906D01*
G01X13521Y23968D01*
G01X13520Y24051D01*
G01X13516Y24129D01*
G01X13509Y24203D01*
G01X13500Y24274D01*
G01X13487Y24341D01*
G01X13472Y24406D01*
G01X13453Y24467D01*
G01X13432Y24525D01*
G01X13407Y24580D01*
G01X13379Y24633D01*
G01X13347Y24684D01*
G01X13313Y24731D01*
G01X13274Y24778D01*
G01X13232Y24822D01*
G01X13187Y24864D01*
G01X13138Y24905D01*
G01X13090Y24939D01*
G01X13037Y24968D01*
G01X12980Y24993D01*
G01X12921Y25013D01*
G01X12860Y25029D01*
G01X12796Y25040D01*
G01X12732Y25047D01*
G37*

%LPC*%
G36*
G01X12722Y24627D02*
G01X12667Y24630D01*
G01X12614Y24627D01*
G01X12561Y24619D01*
G01X12510Y24604D01*
G01X12462Y24584D01*
G01X12418Y24557D01*
G01X12378Y24523D01*
G01X12344Y24484D01*
G01X12315Y24437D01*
G01X12286Y24368D01*
G01X12267Y24303D01*
G01X12260Y24249D01*
G01X12267Y24215D01*
G01X12282Y24204D01*
G01X12312Y24194D01*
G01X12356Y24184D01*
G01X12410Y24176D01*
G01X12474Y24169D01*
G01X12546Y24164D01*
G01X12624Y24161D01*
G01X12707Y24160D01*
G01X12819Y24161D01*
G01X12910Y24165D01*
G01X12981Y24171D01*
G01X13034Y24182D01*
G01X13071Y24197D01*
G01X13096Y24216D01*
G01X13108Y24242D01*
G01X13112Y24274D01*
G01X13107Y24328D01*
G01X13094Y24377D01*
G01X13073Y24423D01*
G01X13045Y24464D01*
G01X13011Y24502D01*
G01X12971Y24535D01*
G01X12927Y24563D01*
G01X12879Y24587D01*
G01X12829Y24605D01*
G01X12776Y24619D01*
G01X12722Y24627D01*
G37*

%LPD*%
G36*
G01X24770Y25039D02*
G01X24696Y25041D01*
G01X24623Y25040D01*
G01X24550Y25036D01*
G01X24478Y25030D01*
G01X24410Y25020D01*
G01X24345Y25007D01*
G01X24284Y24991D01*
G01X24229Y24972D01*
G01X24180Y24950D01*
G01X24145Y24931D01*
G01X24113Y24911D01*
G01X24082Y24889D01*
G01X24054Y24867D01*
G01X24028Y24842D01*
G01X24004Y24815D01*
G01X23982Y24786D01*
G01X23961Y24755D01*
G01X23943Y24721D01*
G01X23925Y24684D01*
G01X23910Y24644D01*
G01X23896Y24600D01*
G01X23884Y24552D01*
G01X23873Y24501D01*
G01X23864Y24445D01*
G01X23856Y24385D01*
G01X23849Y24320D01*
G01X23843Y24250D01*
G01X23838Y24175D01*
G01X23835Y24094D01*
G01X23832Y24008D01*
G01X23830Y23916D01*
G01X23829Y23818D01*
G01X23829Y22931D01*
G01X24028Y22931D01*
G01X24107Y22937D01*
G01X24176Y22954D01*
G01X24227Y22979D01*
G01X24253Y23009D01*
G01X24273Y23042D01*
G01X24305Y23053D01*
G01X24355Y23042D01*
G01X24425Y23009D01*
G01X24477Y22984D01*
G01X24533Y22964D01*
G01X24590Y22949D01*
G01X24649Y22938D01*
G01X24709Y22933D01*
G01X24770Y22931D01*
G01X24832Y22934D01*
G01X24893Y22941D01*
G01X24953Y22951D01*
G01X25012Y22967D01*
G01X25070Y22985D01*
G01X25126Y23008D01*
G01X25180Y23034D01*
G01X25231Y23063D01*
G01X25279Y23096D01*
G01X25323Y23132D01*
G01X25363Y23171D01*
G01X25398Y23213D01*
G01X25428Y23257D01*
G01X25454Y23305D01*
G01X25481Y23369D01*
G01X25503Y23429D01*
G01X25518Y23486D01*
G01X25527Y23539D01*
G01X25529Y23591D01*
G01X25525Y23640D01*
G01X25514Y23690D01*
G01X25497Y23739D01*
G01X25473Y23789D01*
G01X25442Y23840D01*
G01X25404Y23893D01*
G01X25358Y23950D01*
G01X25320Y23995D01*
G01X25284Y24033D01*
G01X25250Y24064D01*
G01X25217Y24091D01*
G01X25181Y24112D01*
G01X25141Y24128D01*
G01X25097Y24140D01*
G01X25046Y24149D01*
G01X24987Y24154D01*
G01X24918Y24158D01*
G01X24837Y24159D01*
G01X24742Y24160D01*
G01X24658Y24161D01*
G01X24582Y24165D01*
G01X24514Y24171D01*
G01X24453Y24179D01*
G01X24400Y24190D01*
G01X24354Y24204D01*
G01X24315Y24220D01*
G01X24283Y24239D01*
G01X24260Y24261D01*
G01X24242Y24285D01*
G01X24232Y24312D01*
G01X24229Y24342D01*
G01X24233Y24376D01*
G01X24244Y24412D01*
G01X24262Y24451D01*
G01X24285Y24493D01*
G01X24314Y24524D01*
G01X24359Y24551D01*
G01X24417Y24575D01*
G01X24485Y24595D01*
G01X24559Y24611D01*
G01X24637Y24623D01*
G01X24715Y24630D01*
G01X24791Y24631D01*
G01X24862Y24627D01*
G01X24923Y24617D01*
G01X24973Y24601D01*
G01X25008Y24578D01*
G01X25047Y24555D01*
G01X25099Y24554D01*
G01X25162Y24574D01*
G01X25237Y24616D01*
G01X25306Y24664D01*
G01X25353Y24707D01*
G01X25381Y24746D01*
G01X25388Y24782D01*
G01X25375Y24819D01*
G01X25342Y24856D01*
G01X25287Y24896D01*
G01X25211Y24940D01*
G01X25162Y24963D01*
G01X25108Y24983D01*
G01X25047Y25000D01*
G01X24983Y25014D01*
G01X24914Y25025D01*
G01X24843Y25034D01*
G01X24770Y25039D01*
G37*

%LPC*%
G36*
G01X24695Y23817D02*
G01X24605Y23819D01*
G01X24501Y23818D01*
G01X24418Y23814D01*
G01X24354Y23807D01*
G01X24306Y23796D01*
G01X24273Y23780D01*
G01X24252Y23758D01*
G01X24241Y23730D01*
G01X24238Y23695D01*
G01X24242Y23635D01*
G01X24251Y23581D01*
G01X24268Y23533D01*
G01X24291Y23489D01*
G01X24321Y23452D01*
G01X24357Y23421D01*
G01X24399Y23395D01*
G01X24449Y23376D01*
G01X24504Y23361D01*
G01X24567Y23353D01*
G01X24636Y23350D01*
G01X24712Y23353D01*
G01X24793Y23362D01*
G01X24867Y23376D01*
G01X24932Y23395D01*
G01X24988Y23418D01*
G01X25034Y23445D01*
G01X25070Y23475D01*
G01X25097Y23509D01*
G01X25112Y23545D01*
G01X25118Y23584D01*
G01X25111Y23625D01*
G01X25093Y23667D01*
G01X25062Y23710D01*
G01X25035Y23736D01*
G01X25000Y23759D01*
G01X24957Y23777D01*
G01X24905Y23792D01*
G01X24844Y23804D01*
G01X24774Y23812D01*
G01X24695Y23817D01*
G37*

%LPD*%
G36*
G01X14955Y25047D02*
G01X14750Y25047D01*
G01X14659Y25041D01*
G01X14595Y25022D01*
G01X14558Y24988D01*
G01X14546Y24941D01*
G01X14541Y24887D01*
G01X14521Y24869D01*
G01X14475Y24887D01*
G01X14394Y24941D01*
G01X14348Y24968D01*
G01X14294Y24991D01*
G01X14232Y25010D01*
G01X14166Y25025D01*
G01X14097Y25036D01*
G01X14026Y25042D01*
G01X13955Y25044D01*
G01X13886Y25042D01*
G01X13822Y25036D01*
G01X13762Y25024D01*
G01X13710Y25008D01*
G01X13668Y24986D01*
G01X13626Y24950D01*
G01X13614Y24906D01*
G01X13635Y24845D01*
G01X13688Y24755D01*
G01X13723Y24706D01*
G01X13756Y24667D01*
G01X13790Y24640D01*
G01X13828Y24620D01*
G01X13871Y24610D01*
G01X13923Y24607D01*
G01X13985Y24610D01*
G01X14061Y24618D01*
G01X14110Y24624D01*
G01X14155Y24627D01*
G01X14198Y24627D01*
G01X14237Y24624D01*
G01X14273Y24619D01*
G01X14306Y24610D01*
G01X14337Y24597D01*
G01X14365Y24580D01*
G01X14391Y24560D01*
G01X14415Y24535D01*
G01X14435Y24506D01*
G01X14454Y24472D01*
G01X14471Y24434D01*
G01X14485Y24390D01*
G01X14498Y24341D01*
G01X14509Y24287D01*
G01X14519Y24228D01*
G01X14526Y24162D01*
G01X14532Y24090D01*
G01X14537Y24012D01*
G01X14541Y23927D01*
G01X14544Y23836D01*
G01X14545Y23738D01*
G01X14546Y23633D01*
G01X14546Y22931D01*
G01X14955Y22931D01*
G01X14955Y25047D01*
G37*

%LPD*%
G36*
G01X16345Y25045D02*
G01X16239Y25047D01*
G01X16155Y25046D01*
G01X16082Y25045D01*
G01X16018Y25041D01*
G01X15961Y25035D01*
G01X15912Y25026D01*
G01X15867Y25013D01*
G01X15826Y24998D01*
G01X15788Y24978D01*
G01X15751Y24953D01*
G01X15713Y24924D01*
G01X15674Y24888D01*
G01X15632Y24848D01*
G01X15597Y24812D01*
G01X15567Y24780D01*
G01X15540Y24750D01*
G01X15517Y24719D01*
G01X15498Y24687D01*
G01X15482Y24652D01*
G01X15469Y24612D01*
G01X15458Y24566D01*
G01X15450Y24512D01*
G01X15443Y24449D01*
G01X15439Y24375D01*
G01X15436Y24289D01*
G01X15434Y24189D01*
G01X15433Y24073D01*
G01X15433Y22931D01*
G01X15638Y22931D01*
G01X15717Y22936D01*
G01X15782Y22950D01*
G01X15826Y22971D01*
G01X15842Y22996D01*
G01X15857Y23017D01*
G01X15900Y23023D01*
G01X15966Y23013D01*
G01X16052Y22988D01*
G01X16115Y22968D01*
G01X16178Y22953D01*
G01X16241Y22943D01*
G01X16303Y22937D01*
G01X16364Y22935D01*
G01X16424Y22938D01*
G01X16483Y22945D01*
G01X16540Y22956D01*
G01X16596Y22970D01*
G01X16650Y22988D01*
G01X16702Y23010D01*
G01X16751Y23035D01*
G01X16798Y23064D01*
G01X16841Y23096D01*
G01X16882Y23130D01*
G01X16919Y23168D01*
G01X16953Y23208D01*
G01X16983Y23252D01*
G01X17009Y23298D01*
G01X17031Y23346D01*
G01X17048Y23396D01*
G01X17061Y23449D01*
G01X17068Y23504D01*
G01X17071Y23561D01*
G01X17069Y23623D01*
G01X17064Y23681D01*
G01X17056Y23736D01*
G01X17043Y23787D01*
G01X17027Y23835D01*
G01X17007Y23879D01*
G01X16983Y23919D01*
G01X16956Y23956D01*
G01X16924Y23990D01*
G01X16888Y24021D01*
G01X16848Y24048D01*
G01X16804Y24072D01*
G01X16755Y24093D01*
G01X16702Y24111D01*
G01X16645Y24126D01*
G01X16582Y24139D01*
G01X16515Y24148D01*
G01X16443Y24155D01*
G01X16367Y24158D01*
G01X16285Y24160D01*
G01X15834Y24160D01*
G01X15855Y24381D01*
G01X15877Y24603D01*
G01X16334Y24603D01*
G01X16433Y24605D01*
G01X16524Y24609D01*
G01X16606Y24615D01*
G01X16678Y24624D01*
G01X16740Y24635D01*
G01X16794Y24649D01*
G01X16838Y24665D01*
G01X16873Y24683D01*
G01X16898Y24705D01*
G01X16913Y24727D01*
G01X16920Y24753D01*
G01X16916Y24781D01*
G01X16904Y24811D01*
G01X16881Y24844D01*
G01X16849Y24879D01*
G01X16808Y24915D01*
G01X16761Y24949D01*
G01X16711Y24977D01*
G01X16655Y25000D01*
G01X16591Y25018D01*
G01X16520Y25031D01*
G01X16438Y25040D01*
G01X16345Y25045D01*
G37*

%LPC*%
G36*
G01X16315Y23817D02*
G01X16215Y23819D01*
G01X16101Y23818D01*
G01X16012Y23815D01*
G01X15946Y23807D01*
G01X15900Y23794D01*
G01X15870Y23775D01*
G01X15852Y23747D01*
G01X15845Y23710D01*
G01X15842Y23662D01*
G01X15845Y23607D01*
G01X15853Y23558D01*
G01X15867Y23514D01*
G01X15888Y23476D01*
G01X15914Y23443D01*
G01X15947Y23415D01*
G01X15987Y23391D01*
G01X16034Y23373D01*
G01X16088Y23358D01*
G01X16149Y23349D01*
G01X16219Y23343D01*
G01X16296Y23341D01*
G01X16374Y23344D01*
G01X16444Y23352D01*
G01X16505Y23366D01*
G01X16559Y23386D01*
G01X16603Y23411D01*
G01X16640Y23440D01*
G01X16666Y23473D01*
G01X16684Y23511D01*
G01X16691Y23552D01*
G01X16689Y23597D01*
G01X16676Y23646D01*
G01X16653Y23697D01*
G01X16632Y23729D01*
G01X16604Y23756D01*
G01X16568Y23777D01*
G01X16523Y23793D01*
G01X16467Y23805D01*
G01X16398Y23813D01*
G01X16315Y23817D01*
G37*

%LPD*%
G36*
G01X20757Y25866D02*
G01X20347Y25866D01*
G01X20347Y22931D01*
G01X20520Y22931D01*
G01X20590Y22939D01*
G01X20653Y22959D01*
G01X20702Y22989D01*
G01X20729Y23026D01*
G01X20756Y23071D01*
G01X20797Y23085D01*
G01X20864Y23068D01*
G01X20970Y23019D01*
G01X21021Y22997D01*
G01X21072Y22979D01*
G01X21125Y22966D01*
G01X21179Y22957D01*
G01X21233Y22951D01*
G01X21288Y22951D01*
G01X21343Y22955D01*
G01X21397Y22963D01*
G01X21450Y22975D01*
G01X21503Y22991D01*
G01X21554Y23011D01*
G01X21604Y23035D01*
G01X21651Y23062D01*
G01X21697Y23094D01*
G01X21739Y23129D01*
G01X21779Y23168D01*
G01X21812Y23205D01*
G01X21840Y23241D01*
G01X21863Y23278D01*
G01X21883Y23318D01*
G01X21898Y23363D01*
G01X21911Y23416D01*
G01X21920Y23478D01*
G01X21927Y23551D01*
G01X21931Y23638D01*
G01X21934Y23740D01*
G01X21935Y23860D01*
G01X21936Y23999D01*
G01X21936Y24115D01*
G01X21935Y24217D01*
G01X21934Y24306D01*
G01X21932Y24384D01*
G01X21929Y24451D01*
G01X21924Y24509D01*
G01X21918Y24559D01*
G01X21909Y24602D01*
G01X21897Y24641D01*
G01X21883Y24674D01*
G01X21865Y24705D01*
G01X21845Y24734D01*
G01X21820Y24761D01*
G01X21792Y24790D01*
G01X21759Y24821D01*
G01X21721Y24855D01*
G01X21674Y24894D01*
G01X21626Y24929D01*
G01X21575Y24959D01*
G01X21524Y24984D01*
G01X21472Y25006D01*
G01X21419Y25023D01*
G01X21366Y25035D01*
G01X21313Y25043D01*
G01X21259Y25047D01*
G01X21206Y25045D01*
G01X21154Y25040D01*
G01X21102Y25029D01*
G01X21052Y25014D01*
G01X21002Y24995D01*
G01X20955Y24970D01*
G01X20909Y24941D01*
G01X20757Y24835D01*
G01X20757Y25866D01*
G37*

%LPC*%
G36*
G01X21204Y24634D02*
G01X21149Y24634D01*
G01X21094Y24629D01*
G01X21040Y24619D01*
G01X20990Y24604D01*
G01X20942Y24585D01*
G01X20900Y24560D01*
G01X20864Y24530D01*
G01X20843Y24503D01*
G01X20823Y24468D01*
G01X20807Y24426D01*
G01X20792Y24377D01*
G01X20780Y24324D01*
G01X20770Y24266D01*
G01X20762Y24204D01*
G01X20756Y24139D01*
G01X20753Y24072D01*
G01X20752Y24005D01*
G01X20754Y23937D01*
G01X20758Y23870D01*
G01X20764Y23805D01*
G01X20772Y23742D01*
G01X20783Y23682D01*
G01X20796Y23627D01*
G01X20811Y23577D01*
G01X20829Y23533D01*
G01X20848Y23495D01*
G01X20870Y23466D01*
G01X20907Y23430D01*
G01X20947Y23401D01*
G01X20991Y23378D01*
G01X21037Y23361D01*
G01X21085Y23350D01*
G01X21133Y23346D01*
G01X21182Y23347D01*
G01X21230Y23355D01*
G01X21277Y23369D01*
G01X21321Y23389D01*
G01X21362Y23415D01*
G01X21401Y23448D01*
G01X21419Y23473D01*
G01X21437Y23508D01*
G01X21452Y23551D01*
G01X21466Y23602D01*
G01X21478Y23659D01*
G01X21488Y23722D01*
G01X21497Y23789D01*
G01X21503Y23859D01*
G01X21507Y23931D01*
G01X21510Y24004D01*
G01X21511Y24077D01*
G01X21510Y24149D01*
G01X21506Y24219D01*
G01X21501Y24286D01*
G01X21494Y24348D01*
G01X21484Y24405D01*
G01X21473Y24455D01*
G01X21459Y24498D01*
G01X21444Y24532D01*
G01X21426Y24556D01*
G01X21393Y24582D01*
G01X21353Y24603D01*
G01X21307Y24619D01*
G01X21257Y24629D01*
G01X21204Y24634D01*
G37*

%LPD*%
G36*
G01X17492Y25041D02*
G01X17374Y25047D01*
G01X17300Y25046D01*
G01X17244Y25043D01*
G01X17203Y25035D01*
G01X17177Y25023D01*
G01X17162Y25003D01*
G01X17159Y24976D01*
G01X17164Y24940D01*
G01X17178Y24894D01*
G01X17225Y24739D01*
G01X17270Y24592D01*
G01X17313Y24454D01*
G01X17353Y24324D01*
G01X17391Y24202D01*
G01X17426Y24087D01*
G01X17460Y23980D01*
G01X17491Y23880D01*
G01X17521Y23786D01*
G01X17549Y23699D01*
G01X17575Y23618D01*
G01X17600Y23544D01*
G01X17623Y23476D01*
G01X17645Y23412D01*
G01X17666Y23355D01*
G01X17685Y23302D01*
G01X17703Y23255D01*
G01X17720Y23212D01*
G01X17737Y23173D01*
G01X17752Y23138D01*
G01X17767Y23107D01*
G01X17782Y23080D01*
G01X17795Y23057D01*
G01X17809Y23036D01*
G01X17822Y23019D01*
G01X17835Y23003D01*
G01X17848Y22991D01*
G01X17861Y22980D01*
G01X17874Y22972D01*
G01X17888Y22965D01*
G01X17902Y22959D01*
G01X17916Y22955D01*
G01X17931Y22951D01*
G01X17946Y22949D01*
G01X17962Y22946D01*
G01X17979Y22944D01*
G01X18001Y22942D01*
G01X18021Y22940D01*
G01X18040Y22939D01*
G01X18057Y22940D01*
G01X18074Y22944D01*
G01X18090Y22950D01*
G01X18105Y22961D01*
G01X18120Y22975D01*
G01X18136Y22995D01*
G01X18151Y23020D01*
G01X18168Y23050D01*
G01X18185Y23088D01*
G01X18204Y23132D01*
G01X18223Y23184D01*
G01X18245Y23245D01*
G01X18268Y23314D01*
G01X18293Y23393D01*
G01X18321Y23482D01*
G01X18352Y23582D01*
G01X18385Y23693D01*
G01X18422Y23816D01*
G01X18462Y23952D01*
G01X18505Y24100D01*
G01X18553Y24262D01*
G01X18593Y24399D01*
G01X18646Y24262D01*
G01X18653Y24241D01*
G01X18664Y24210D01*
G01X18677Y24170D01*
G01X18692Y24123D01*
G01X18709Y24070D01*
G01X18728Y24010D01*
G01X18748Y23945D01*
G01X18770Y23876D01*
G01X18792Y23803D01*
G01X18815Y23728D01*
G01X18838Y23650D01*
G01X18862Y23573D01*
G01X18908Y23417D01*
G01X18930Y23341D01*
G01X18952Y23267D01*
G01X18972Y23196D01*
G01X18992Y23130D01*
G01X19009Y23068D01*
G01X19025Y23012D01*
G01X19048Y22977D01*
G01X19094Y22953D01*
G01X19157Y22941D01*
G01X19234Y22944D01*
G01X19259Y22947D01*
G01X19282Y22952D01*
G01X19303Y22958D01*
G01X19323Y22967D01*
G01X19343Y22978D01*
G01X19361Y22993D01*
G01X19379Y23012D01*
G01X19397Y23036D01*
G01X19416Y23065D01*
G01X19434Y23099D01*
G01X19454Y23140D01*
G01X19474Y23188D01*
G01X19497Y23243D01*
G01X19520Y23306D01*
G01X19545Y23378D01*
G01X19573Y23459D01*
G01X19604Y23550D01*
G01X19637Y23651D01*
G01X19673Y23763D01*
G01X19712Y23887D01*
G01X19742Y23981D01*
G01X19772Y24074D01*
G01X19801Y24166D01*
G01X19830Y24254D01*
G01X19857Y24340D01*
G01X19883Y24422D01*
G01X19908Y24499D01*
G01X19932Y24573D01*
G01X19953Y24641D01*
G01X19974Y24703D01*
G01X19991Y24759D01*
G01X20007Y24809D01*
G01X20021Y24851D01*
G01X20031Y24885D01*
G01X20040Y24911D01*
G01X20045Y24928D01*
G01X20055Y24987D01*
G01X20035Y25024D01*
G01X19978Y25042D01*
G01X19879Y25047D01*
G01X19834Y25047D01*
G01X19796Y25046D01*
G01X19762Y25044D01*
G01X19733Y25039D01*
G01X19706Y25030D01*
G01X19683Y25017D01*
G01X19662Y24998D01*
G01X19642Y24971D01*
G01X19623Y24938D01*
G01X19605Y24895D01*
G01X19585Y24843D01*
G01X19565Y24779D01*
G01X19543Y24705D01*
G01X19519Y24617D01*
G01X19491Y24515D01*
G01X19460Y24398D01*
G01X19437Y24314D01*
G01X19416Y24236D01*
G01X19396Y24164D01*
G01X19378Y24097D01*
G01X19360Y24038D01*
G01X19344Y23984D01*
G01X19328Y23937D01*
G01X19313Y23896D01*
G01X19298Y23861D01*
G01X19285Y23832D01*
G01X19271Y23809D01*
G01X19258Y23793D01*
G01X19245Y23783D01*
G01X19232Y23778D01*
G01X19219Y23780D01*
G01X19205Y23788D01*
G01X19191Y23802D01*
G01X19177Y23822D01*
G01X19162Y23849D01*
G01X19147Y23881D01*
G01X19130Y23919D01*
G01X19112Y23963D01*
G01X19094Y24013D01*
G01X19073Y24070D01*
G01X19052Y24132D01*
G01X19030Y24200D01*
G01X19005Y24274D01*
G01X18979Y24355D01*
G01X18933Y24495D01*
G01X18892Y24616D01*
G01X18855Y24718D01*
G01X18823Y24803D01*
G01X18793Y24872D01*
G01X18766Y24928D01*
G01X18740Y24970D01*
G01X18714Y25002D01*
G01X18688Y25024D01*
G01X18661Y25038D01*
G01X18632Y25045D01*
G01X18601Y25047D01*
G01X18577Y25046D01*
G01X18554Y25042D01*
G01X18533Y25035D01*
G01X18513Y25023D01*
G01X18493Y25007D01*
G01X18473Y24985D01*
G01X18454Y24957D01*
G01X18434Y24922D01*
G01X18413Y24879D01*
G01X18391Y24829D01*
G01X18367Y24769D01*
G01X18342Y24700D01*
G01X18314Y24620D01*
G01X18283Y24530D01*
G01X18250Y24428D01*
G01X18213Y24313D01*
G01X17978Y23580D01*
G01X17892Y23887D01*
G01X17880Y23931D01*
G01X17866Y23979D01*
G01X17852Y24030D01*
G01X17836Y24083D01*
G01X17820Y24138D01*
G01X17804Y24192D01*
G01X17788Y24248D01*
G01X17771Y24302D01*
G01X17755Y24355D01*
G01X17740Y24405D01*
G01X17725Y24453D01*
G01X17712Y24496D01*
G01X17693Y24559D01*
G01X17675Y24623D01*
G01X17659Y24686D01*
G01X17645Y24746D01*
G01X17633Y24802D01*
G01X17625Y24851D01*
G01X17619Y24892D01*
G01X17617Y24923D01*
G01X17606Y24983D01*
G01X17567Y25022D01*
G01X17492Y25041D01*
G37*

%LPD*%
G36*
G01X15296Y28324D02*
G01X14887Y28324D01*
G01X14887Y26276D01*
G01X15086Y26276D01*
G01X15165Y26281D01*
G01X15233Y26297D01*
G01X15284Y26319D01*
G01X15309Y26347D01*
G01X15334Y26369D01*
G01X15387Y26369D01*
G01X15463Y26347D01*
G01X15561Y26304D01*
G01X15627Y26273D01*
G01X15687Y26249D01*
G01X15742Y26234D01*
G01X15795Y26227D01*
G01X15850Y26227D01*
G01X15909Y26234D01*
G01X15976Y26248D01*
G01X16052Y26269D01*
G01X16103Y26285D01*
G01X16150Y26302D01*
G01X16194Y26318D01*
G01X16234Y26337D01*
G01X16270Y26357D01*
G01X16304Y26378D01*
G01X16334Y26402D01*
G01X16362Y26428D01*
G01X16387Y26457D01*
G01X16409Y26489D01*
G01X16429Y26525D01*
G01X16447Y26565D01*
G01X16462Y26610D01*
G01X16475Y26659D01*
G01X16487Y26713D01*
G01X16496Y26772D01*
G01X16504Y26838D01*
G01X16511Y26909D01*
G01X16516Y26986D01*
G01X16519Y27071D01*
G01X16522Y27163D01*
G01X16524Y27263D01*
G01X16525Y27370D01*
G01X16525Y28324D01*
G01X16115Y28324D01*
G01X16115Y27465D01*
G01X16114Y27359D01*
G01X16112Y27262D01*
G01X16108Y27175D01*
G01X16103Y27097D01*
G01X16096Y27027D01*
G01X16088Y26964D01*
G01X16078Y26910D01*
G01X16066Y26862D01*
G01X16051Y26821D01*
G01X16033Y26786D01*
G01X16013Y26756D01*
G01X15989Y26732D01*
G01X15963Y26712D01*
G01X15933Y26697D01*
G01X15900Y26686D01*
G01X15863Y26677D01*
G01X15822Y26672D01*
G01X15776Y26670D01*
G01X15727Y26668D01*
G01X15678Y26670D01*
G01X15634Y26675D01*
G01X15592Y26684D01*
G01X15553Y26697D01*
G01X15518Y26715D01*
G01X15486Y26736D01*
G01X15457Y26763D01*
G01X15431Y26794D01*
G01X15407Y26831D01*
G01X15386Y26873D01*
G01X15368Y26921D01*
G01X15352Y26975D01*
G01X15338Y27035D01*
G01X15326Y27101D01*
G01X15317Y27174D01*
G01X15309Y27254D01*
G01X15304Y27342D01*
G01X15299Y27436D01*
G01X15297Y27539D01*
G01X15296Y27648D01*
G01X15296Y28324D01*
G37*

%LPD*%
G36*
G01X17822Y28321D02*
G01X17752Y28324D01*
G01X17692Y28322D01*
G01X17634Y28318D01*
G01X17579Y28312D01*
G01X17526Y28303D01*
G01X17476Y28292D01*
G01X17427Y28277D01*
G01X17382Y28261D01*
G01X17339Y28241D01*
G01X17298Y28219D01*
G01X17259Y28194D01*
G01X17223Y28166D01*
G01X17189Y28135D01*
G01X17158Y28101D01*
G01X17128Y28064D01*
G01X17101Y28025D01*
G01X17075Y27982D01*
G01X17053Y27937D01*
G01X17032Y27888D01*
G01X17013Y27836D01*
G01X16996Y27782D01*
G01X16981Y27724D01*
G01X16969Y27663D01*
G01X16958Y27599D01*
G01X16950Y27531D01*
G01X16943Y27460D01*
G01X16938Y27386D01*
G01X16935Y27309D01*
G01X16935Y27121D01*
G01X16936Y27030D01*
G01X16940Y26952D01*
G01X16946Y26885D01*
G01X16955Y26828D01*
G01X16967Y26778D01*
G01X16984Y26733D01*
G01X17007Y26691D01*
G01X17035Y26651D01*
G01X17070Y26609D01*
G01X17111Y26564D01*
G01X17161Y26514D01*
G01X17214Y26463D01*
G01X17268Y26418D01*
G01X17324Y26377D01*
G01X17381Y26342D01*
G01X17438Y26311D01*
G01X17497Y26285D01*
G01X17555Y26265D01*
G01X17615Y26248D01*
G01X17676Y26237D01*
G01X17737Y26231D01*
G01X17799Y26230D01*
G01X17861Y26234D01*
G01X17924Y26242D01*
G01X17987Y26256D01*
G01X18050Y26275D01*
G01X18113Y26299D01*
G01X18170Y26325D01*
G01X18224Y26354D01*
G01X18274Y26385D01*
G01X18320Y26418D01*
G01X18362Y26455D01*
G01X18401Y26495D01*
G01X18436Y26538D01*
G01X18468Y26585D01*
G01X18497Y26635D01*
G01X18522Y26689D01*
G01X18545Y26747D01*
G01X18565Y26810D01*
G01X18582Y26877D01*
G01X18597Y26949D01*
G01X18609Y27025D01*
G01X18619Y27107D01*
G01X18625Y27184D01*
G01X18629Y27260D01*
G01X18631Y27333D01*
G01X18630Y27405D01*
G01X18626Y27474D01*
G01X18620Y27540D01*
G01X18611Y27605D01*
G01X18600Y27667D01*
G01X18586Y27726D01*
G01X18570Y27783D01*
G01X18551Y27837D01*
G01X18530Y27889D01*
G01X18507Y27937D01*
G01X18481Y27983D01*
G01X18453Y28025D01*
G01X18423Y28064D01*
G01X18390Y28101D01*
G01X18356Y28134D01*
G01X18318Y28164D01*
G01X18279Y28190D01*
G01X18227Y28219D01*
G01X18168Y28245D01*
G01X18104Y28267D01*
G01X18036Y28286D01*
G01X17966Y28302D01*
G01X17894Y28314D01*
G01X17822Y28321D01*
G37*

%LPC*%
G36*
G01X17841Y27912D02*
G01X17788Y27914D01*
G01X17730Y27912D01*
G01X17677Y27905D01*
G01X17630Y27894D01*
G01X17586Y27878D01*
G01X17547Y27857D01*
G01X17512Y27831D01*
G01X17480Y27799D01*
G01X17450Y27762D01*
G01X17431Y27731D01*
G01X17414Y27694D01*
G01X17399Y27651D01*
G01X17385Y27604D01*
G01X17373Y27553D01*
G01X17363Y27499D01*
G01X17356Y27443D01*
G01X17350Y27384D01*
G01X17347Y27323D01*
G01X17346Y27262D01*
G01X17346Y27201D01*
G01X17350Y27140D01*
G01X17355Y27080D01*
G01X17363Y27022D01*
G01X17373Y26965D01*
G01X17386Y26912D01*
G01X17403Y26868D01*
G01X17429Y26828D01*
G01X17463Y26791D01*
G01X17504Y26758D01*
G01X17551Y26729D01*
G01X17602Y26706D01*
G01X17657Y26687D01*
G01X17713Y26675D01*
G01X17770Y26668D01*
G01X17828Y26668D01*
G01X17884Y26676D01*
G01X17937Y26691D01*
G01X17986Y26712D01*
G01X18029Y26739D01*
G01X18069Y26770D01*
G01X18104Y26807D01*
G01X18134Y26850D01*
G01X18160Y26898D01*
G01X18182Y26952D01*
G01X18200Y27012D01*
G01X18214Y27078D01*
G01X18223Y27151D01*
G01X18230Y27229D01*
G01X18232Y27314D01*
G01X18230Y27387D01*
G01X18225Y27455D01*
G01X18216Y27518D01*
G01X18204Y27577D01*
G01X18188Y27631D01*
G01X18169Y27679D01*
G01X18146Y27724D01*
G01X18120Y27764D01*
G01X18091Y27799D01*
G01X18058Y27830D01*
G01X18022Y27856D01*
G01X17982Y27877D01*
G01X17939Y27893D01*
G01X17892Y27905D01*
G01X17841Y27912D01*
G37*

%LPD*%
G36*
G01X28744Y28321D02*
G01X28673Y28324D01*
G01X28613Y28322D01*
G01X28555Y28318D01*
G01X28500Y28312D01*
G01X28448Y28303D01*
G01X28397Y28292D01*
G01X28349Y28277D01*
G01X28304Y28261D01*
G01X28261Y28241D01*
G01X28219Y28219D01*
G01X28181Y28194D01*
G01X28145Y28166D01*
G01X28111Y28135D01*
G01X28079Y28101D01*
G01X28050Y28064D01*
G01X28022Y28025D01*
G01X27997Y27982D01*
G01X27974Y27937D01*
G01X27953Y27888D01*
G01X27934Y27836D01*
G01X27918Y27782D01*
G01X27903Y27724D01*
G01X27890Y27663D01*
G01X27880Y27599D01*
G01X27871Y27531D01*
G01X27864Y27460D01*
G01X27860Y27386D01*
G01X27857Y27309D01*
G01X27856Y27228D01*
G01X27856Y27121D01*
G01X27858Y27030D01*
G01X27861Y26952D01*
G01X27867Y26885D01*
G01X27876Y26828D01*
G01X27889Y26778D01*
G01X27906Y26733D01*
G01X27929Y26691D01*
G01X27957Y26651D01*
G01X27991Y26609D01*
G01X28033Y26564D01*
G01X28083Y26514D01*
G01X28136Y26463D01*
G01X28190Y26418D01*
G01X28246Y26377D01*
G01X28302Y26342D01*
G01X28360Y26311D01*
G01X28418Y26285D01*
G01X28477Y26265D01*
G01X28537Y26248D01*
G01X28598Y26237D01*
G01X28659Y26231D01*
G01X28721Y26230D01*
G01X28783Y26234D01*
G01X28845Y26242D01*
G01X28908Y26256D01*
G01X28971Y26275D01*
G01X29034Y26299D01*
G01X29092Y26325D01*
G01X29145Y26354D01*
G01X29195Y26385D01*
G01X29241Y26418D01*
G01X29283Y26455D01*
G01X29322Y26495D01*
G01X29357Y26538D01*
G01X29389Y26585D01*
G01X29418Y26635D01*
G01X29444Y26689D01*
G01X29467Y26747D01*
G01X29486Y26810D01*
G01X29504Y26877D01*
G01X29518Y26949D01*
G01X29531Y27025D01*
G01X29540Y27107D01*
G01X29547Y27184D01*
G01X29551Y27260D01*
G01X29552Y27333D01*
G01X29551Y27405D01*
G01X29548Y27474D01*
G01X29541Y27540D01*
G01X29533Y27605D01*
G01X29521Y27667D01*
G01X29508Y27726D01*
G01X29491Y27783D01*
G01X29473Y27837D01*
G01X29452Y27889D01*
G01X29428Y27937D01*
G01X29403Y27983D01*
G01X29375Y28025D01*
G01X29345Y28064D01*
G01X29312Y28101D01*
G01X29277Y28134D01*
G01X29240Y28164D01*
G01X29201Y28190D01*
G01X29148Y28219D01*
G01X29089Y28245D01*
G01X29025Y28267D01*
G01X28958Y28286D01*
G01X28887Y28302D01*
G01X28816Y28314D01*
G01X28744Y28321D01*
G37*

%LPC*%
G36*
G01X28820Y27909D02*
G01X28757Y27915D01*
G01X28693Y27914D01*
G01X28628Y27906D01*
G01X28566Y27891D01*
G01X28507Y27869D01*
G01X28455Y27840D01*
G01X28409Y27804D01*
G01X28372Y27762D01*
G01X28344Y27716D01*
G01X28321Y27662D01*
G01X28301Y27602D01*
G01X28285Y27537D01*
G01X28274Y27468D01*
G01X28266Y27395D01*
G01X28263Y27322D01*
G01X28263Y27249D01*
G01X28267Y27176D01*
G01X28275Y27105D01*
G01X28286Y27038D01*
G01X28302Y26975D01*
G01X28321Y26917D01*
G01X28343Y26867D01*
G01X28370Y26823D01*
G01X28400Y26790D01*
G01X28450Y26751D01*
G01X28502Y26720D01*
G01X28558Y26696D01*
G01X28615Y26681D01*
G01X28673Y26673D01*
G01X28730Y26673D01*
G01X28788Y26680D01*
G01X28844Y26695D01*
G01X28898Y26717D01*
G01X28948Y26747D01*
G01X28995Y26785D01*
G01X29036Y26830D01*
G01X29071Y26877D01*
G01X29099Y26925D01*
G01X29120Y26975D01*
G01X29134Y27031D01*
G01X29143Y27094D01*
G01X29146Y27166D01*
G01X29144Y27249D01*
G01X29138Y27346D01*
G01X29130Y27420D01*
G01X29119Y27492D01*
G01X29106Y27563D01*
G01X29091Y27628D01*
G01X29074Y27688D01*
G01X29057Y27738D01*
G01X29038Y27779D01*
G01X29020Y27807D01*
G01X28981Y27845D01*
G01X28934Y27873D01*
G01X28879Y27895D01*
G01X28820Y27909D01*
G37*

%LPD*%
G36*
G01X24672Y28324D02*
G01X24602Y28325D01*
G01X24533Y28322D01*
G01X24466Y28314D01*
G01X24401Y28303D01*
G01X24340Y28288D01*
G01X24283Y28269D01*
G01X24231Y28245D01*
G01X24185Y28217D01*
G01X24145Y28187D01*
G01X24107Y28153D01*
G01X24072Y28117D01*
G01X24038Y28077D01*
G01X24007Y28034D01*
G01X23977Y27989D01*
G01X23950Y27942D01*
G01X23926Y27892D01*
G01X23903Y27840D01*
G01X23884Y27787D01*
G01X23868Y27732D01*
G01X23854Y27675D01*
G01X23843Y27617D01*
G01X23835Y27559D01*
G01X23830Y27500D01*
G01X23829Y27440D01*
G01X23829Y27163D01*
G01X24525Y27163D01*
G01X24608Y27161D01*
G01X24686Y27158D01*
G01X24759Y27154D01*
G01X24826Y27149D01*
G01X24888Y27143D01*
G01X24943Y27136D01*
G01X24991Y27129D01*
G01X25030Y27121D01*
G01X25061Y27111D01*
G01X25082Y27102D01*
G01X25093Y27092D01*
G01X25105Y27061D01*
G01X25105Y27023D01*
G01X25095Y26981D01*
G01X25076Y26937D01*
G01X25050Y26890D01*
G01X25017Y26844D01*
G01X24978Y26799D01*
G01X24935Y26756D01*
G01X24889Y26718D01*
G01X24841Y26686D01*
G01X24791Y26660D01*
G01X24742Y26643D01*
G01X24700Y26635D01*
G01X24653Y26632D01*
G01X24604Y26634D01*
G01X24552Y26641D01*
G01X24499Y26651D01*
G01X24445Y26665D01*
G01X24392Y26684D01*
G01X24340Y26706D01*
G01X24269Y26739D01*
G01X24212Y26762D01*
G01X24167Y26775D01*
G01X24130Y26778D01*
G01X24097Y26769D01*
G01X24065Y26750D01*
G01X24031Y26719D01*
G01X23991Y26676D01*
G01X23951Y26631D01*
G01X23924Y26596D01*
G01X23909Y26566D01*
G01X23906Y26540D01*
G01X23917Y26514D01*
G01X23942Y26486D01*
G01X23981Y26453D01*
G01X24035Y26412D01*
G01X24082Y26378D01*
G01X24133Y26348D01*
G01X24185Y26321D01*
G01X24239Y26298D01*
G01X24295Y26278D01*
G01X24352Y26262D01*
G01X24410Y26248D01*
G01X24469Y26239D01*
G01X24529Y26233D01*
G01X24590Y26230D01*
G01X24650Y26231D01*
G01X24711Y26235D01*
G01X24771Y26242D01*
G01X24832Y26253D01*
G01X24891Y26268D01*
G01X24949Y26286D01*
G01X25007Y26308D01*
G01X25063Y26333D01*
G01X25118Y26361D01*
G01X25171Y26393D01*
G01X25203Y26418D01*
G01X25237Y26452D01*
G01X25272Y26493D01*
G01X25307Y26540D01*
G01X25341Y26592D01*
G01X25374Y26647D01*
G01X25402Y26703D01*
G01X25427Y26759D01*
G01X25452Y26825D01*
G01X25473Y26893D01*
G01X25491Y26960D01*
G01X25506Y27027D01*
G01X25517Y27095D01*
G01X25525Y27163D01*
G01X25531Y27230D01*
G01X25533Y27297D01*
G01X25531Y27363D01*
G01X25527Y27429D01*
G01X25519Y27494D01*
G01X25509Y27557D01*
G01X25496Y27620D01*
G01X25479Y27681D01*
G01X25460Y27740D01*
G01X25438Y27798D01*
G01X25413Y27854D01*
G01X25385Y27907D01*
G01X25354Y27959D01*
G01X25320Y28008D01*
G01X25284Y28054D01*
G01X25245Y28097D01*
G01X25203Y28138D01*
G01X25159Y28176D01*
G01X25113Y28208D01*
G01X25061Y28236D01*
G01X25004Y28260D01*
G01X24942Y28280D01*
G01X24878Y28297D01*
G01X24811Y28310D01*
G01X24742Y28319D01*
G01X24672Y28324D01*
G37*

%LPC*%
G36*
G01X24739Y27967D02*
G01X24699Y27973D01*
G01X24658Y27971D01*
G01X24616Y27961D01*
G01X24572Y27943D01*
G01X24525Y27917D01*
G01X24474Y27883D01*
G01X24418Y27841D01*
G01X24365Y27797D01*
G01X24320Y27757D01*
G01X24284Y27720D01*
G01X24258Y27686D01*
G01X24241Y27655D01*
G01X24234Y27628D01*
G01X24235Y27603D01*
G01X24246Y27581D01*
G01X24267Y27563D01*
G01X24297Y27547D01*
G01X24336Y27534D01*
G01X24386Y27523D01*
G01X24445Y27515D01*
G01X24514Y27509D01*
G01X24593Y27506D01*
G01X24682Y27505D01*
G01X24769Y27505D01*
G01X24845Y27507D01*
G01X24911Y27511D01*
G01X24967Y27517D01*
G01X25014Y27524D01*
G01X25052Y27535D01*
G01X25080Y27547D01*
G01X25100Y27563D01*
G01X25111Y27581D01*
G01X25113Y27603D01*
G01X25107Y27629D01*
G01X25093Y27658D01*
G01X25070Y27690D01*
G01X25040Y27727D01*
G01X25003Y27769D01*
G01X24958Y27815D01*
G01X24909Y27862D01*
G01X24863Y27900D01*
G01X24820Y27931D01*
G01X24779Y27953D01*
G01X24739Y27967D01*
G37*

%LPD*%
G36*
G01X19870Y28314D02*
G01X19798Y28317D01*
G01X19724Y28316D01*
G01X19648Y28314D01*
G01X19574Y28309D01*
G01X19501Y28302D01*
G01X19429Y28293D01*
G01X19361Y28281D01*
G01X19297Y28268D01*
G01X19238Y28252D01*
G01X19185Y28235D01*
G01X19139Y28215D01*
G01X19101Y28194D01*
G01X19072Y28170D01*
G01X19012Y28103D01*
G01X18992Y28052D01*
G01X19014Y27998D01*
G01X19077Y27922D01*
G01X19116Y27882D01*
G01X19149Y27853D01*
G01X19182Y27834D01*
G01X19215Y27825D01*
G01X19254Y27826D01*
G01X19300Y27837D01*
G01X19358Y27857D01*
G01X19429Y27886D01*
G01X19501Y27915D01*
G01X19564Y27938D01*
G01X19621Y27956D01*
G01X19672Y27968D01*
G01X19719Y27975D01*
G01X19762Y27976D01*
G01X19803Y27970D01*
G01X19842Y27960D01*
G01X19882Y27944D01*
G01X19921Y27921D01*
G01X19963Y27893D01*
G01X20007Y27859D01*
G01X20088Y27788D01*
G01X20120Y27737D01*
G01X20104Y27687D01*
G01X20044Y27620D01*
G01X20014Y27595D01*
G01X19977Y27573D01*
G01X19934Y27553D01*
G01X19886Y27536D01*
G01X19833Y27523D01*
G01X19776Y27513D01*
G01X19718Y27507D01*
G01X19657Y27505D01*
G01X19579Y27502D01*
G01X19502Y27493D01*
G01X19426Y27479D01*
G01X19352Y27460D01*
G01X19282Y27438D01*
G01X19215Y27411D01*
G01X19153Y27381D01*
G01X19098Y27348D01*
G01X19049Y27312D01*
G01X19009Y27275D01*
G01X18977Y27235D01*
G01X18957Y27194D01*
G01X18935Y27128D01*
G01X18919Y27060D01*
G01X18910Y26991D01*
G01X18908Y26921D01*
G01X18911Y26852D01*
G01X18920Y26785D01*
G01X18935Y26719D01*
G01X18955Y26656D01*
G01X18980Y26597D01*
G01X19011Y26542D01*
G01X19048Y26492D01*
G01X19089Y26449D01*
G01X19131Y26413D01*
G01X19177Y26380D01*
G01X19226Y26351D01*
G01X19278Y26326D01*
G01X19333Y26303D01*
G01X19390Y26283D01*
G01X19449Y26267D01*
G01X19511Y26254D01*
G01X19573Y26244D01*
G01X19637Y26237D01*
G01X19702Y26234D01*
G01X19768Y26234D01*
G01X19834Y26236D01*
G01X19900Y26242D01*
G01X19965Y26251D01*
G01X20030Y26264D01*
G01X20094Y26279D01*
G01X20157Y26298D01*
G01X20219Y26319D01*
G01X20279Y26344D01*
G01X20336Y26372D01*
G01X20392Y26403D01*
G01X20444Y26438D01*
G01X20494Y26475D01*
G01X20545Y26517D01*
G01X20581Y26551D01*
G01X20604Y26579D01*
G01X20615Y26605D01*
G01X20612Y26631D01*
G01X20597Y26660D01*
G01X20570Y26695D01*
G01X20532Y26739D01*
G01X20492Y26782D01*
G01X20458Y26813D01*
G01X20427Y26832D01*
G01X20394Y26838D01*
G01X20354Y26833D01*
G01X20305Y26815D01*
G01X20242Y26786D01*
G01X20160Y26745D01*
G01X20095Y26715D01*
G01X20031Y26689D01*
G01X19968Y26668D01*
G01X19905Y26652D01*
G01X19843Y26640D01*
G01X19783Y26632D01*
G01X19725Y26629D01*
G01X19669Y26630D01*
G01X19615Y26634D01*
G01X19566Y26644D01*
G01X19519Y26656D01*
G01X19477Y26673D01*
G01X19440Y26692D01*
G01X19407Y26716D01*
G01X19379Y26744D01*
G01X19357Y26774D01*
G01X19341Y26808D01*
G01X19332Y26845D01*
G01X19329Y26885D01*
G01X19334Y26929D01*
G01X19345Y26965D01*
G01X19363Y26995D01*
G01X19391Y27021D01*
G01X19430Y27043D01*
G01X19481Y27062D01*
G01X19546Y27078D01*
G01X19628Y27092D01*
G01X19727Y27106D01*
G01X19811Y27117D01*
G01X19889Y27130D01*
G01X19961Y27143D01*
G01X20027Y27159D01*
G01X20088Y27176D01*
G01X20145Y27195D01*
G01X20196Y27216D01*
G01X20243Y27238D01*
G01X20286Y27263D01*
G01X20325Y27291D01*
G01X20360Y27321D01*
G01X20391Y27354D01*
G01X20420Y27389D01*
G01X20445Y27427D01*
G01X20467Y27469D01*
G01X20488Y27514D01*
G01X20508Y27574D01*
G01X20520Y27637D01*
G01X20524Y27701D01*
G01X20521Y27767D01*
G01X20510Y27832D01*
G01X20492Y27897D01*
G01X20468Y27961D01*
G01X20437Y28022D01*
G01X20400Y28080D01*
G01X20356Y28135D01*
G01X20307Y28184D01*
G01X20253Y28229D01*
G01X20218Y28249D01*
G01X20176Y28266D01*
G01X20125Y28281D01*
G01X20069Y28294D01*
G01X20007Y28303D01*
G01X19941Y28310D01*
G01X19870Y28314D01*
G37*

%LPD*%
G36*
G01X12211Y28319D02*
G01X12141Y28319D01*
G01X12070Y28315D01*
G01X11998Y28307D01*
G01X11929Y28296D01*
G01X11861Y28281D01*
G01X11795Y28262D01*
G01X11732Y28239D01*
G01X11672Y28212D01*
G01X11617Y28182D01*
G01X11385Y28041D01*
G01X11523Y27902D01*
G01X11599Y27836D01*
G01X11662Y27806D01*
G01X11727Y27807D01*
G01X11802Y27839D01*
G01X11859Y27865D01*
G01X11920Y27886D01*
G01X11983Y27900D01*
G01X12047Y27909D01*
G01X12112Y27912D01*
G01X12176Y27909D01*
G01X12239Y27900D01*
G01X12299Y27887D01*
G01X12357Y27867D01*
G01X12409Y27842D01*
G01X12457Y27813D01*
G01X12498Y27777D01*
G01X12529Y27740D01*
G01X12557Y27694D01*
G01X12581Y27641D01*
G01X12600Y27583D01*
G01X12616Y27520D01*
G01X12627Y27454D01*
G01X12635Y27385D01*
G01X12638Y27314D01*
G01X12638Y27244D01*
G01X12632Y27173D01*
G01X12623Y27105D01*
G01X12610Y27039D01*
G01X12592Y26977D01*
G01X12570Y26920D01*
G01X12545Y26869D01*
G01X12514Y26825D01*
G01X12476Y26786D01*
G01X12432Y26752D01*
G01X12382Y26724D01*
G01X12327Y26702D01*
G01X12269Y26686D01*
G01X12207Y26676D01*
G01X12143Y26672D01*
G01X12078Y26675D01*
G01X12013Y26683D01*
G01X11948Y26699D01*
G01X11885Y26721D01*
G01X11824Y26749D01*
G01X11739Y26787D01*
G01X11672Y26795D01*
G01X11609Y26771D01*
G01X11536Y26714D01*
G01X11467Y26646D01*
G01X11441Y26594D01*
G01X11458Y26543D01*
G01X11516Y26472D01*
G01X11555Y26433D01*
G01X11599Y26397D01*
G01X11647Y26365D01*
G01X11698Y26336D01*
G01X11753Y26311D01*
G01X11810Y26290D01*
G01X11869Y26271D01*
G01X11931Y26257D01*
G01X11994Y26246D01*
G01X12058Y26240D01*
G01X12122Y26237D01*
G01X12187Y26237D01*
G01X12252Y26242D01*
G01X12315Y26250D01*
G01X12378Y26263D01*
G01X12439Y26279D01*
G01X12499Y26299D01*
G01X12556Y26323D01*
G01X12610Y26351D01*
G01X12661Y26383D01*
G01X12710Y26419D01*
G01X12754Y26457D01*
G01X12796Y26497D01*
G01X12834Y26540D01*
G01X12868Y26585D01*
G01X12900Y26633D01*
G01X12928Y26684D01*
G01X12952Y26738D01*
G01X12974Y26794D01*
G01X12993Y26854D01*
G01X13008Y26917D01*
G01X13021Y26984D01*
G01X13031Y27055D01*
G01X13038Y27129D01*
G01X13042Y27207D01*
G01X13043Y27289D01*
G01X13042Y27377D01*
G01X13038Y27459D01*
G01X13031Y27538D01*
G01X13022Y27611D01*
G01X13009Y27680D01*
G01X12993Y27744D01*
G01X12974Y27805D01*
G01X12951Y27862D01*
G01X12926Y27916D01*
G01X12896Y27966D01*
G01X12864Y28013D01*
G01X12827Y28057D01*
G01X12787Y28099D01*
G01X12743Y28138D01*
G01X12695Y28174D01*
G01X12643Y28209D01*
G01X12592Y28236D01*
G01X12537Y28260D01*
G01X12478Y28280D01*
G01X12415Y28295D01*
G01X12349Y28307D01*
G01X12281Y28315D01*
G01X12211Y28319D01*
G37*

%LPD*%
G36*
G01X10482Y28316D02*
G01X10421Y28317D01*
G01X10359Y28315D01*
G01X10298Y28310D01*
G01X10237Y28302D01*
G01X10178Y28291D01*
G01X10120Y28277D01*
G01X10065Y28260D01*
G01X10013Y28240D01*
G01X9963Y28217D01*
G01X9920Y28191D01*
G01X9879Y28161D01*
G01X9839Y28127D01*
G01X9801Y28088D01*
G01X9766Y28046D01*
G01X9733Y28000D01*
G01X9702Y27951D01*
G01X9675Y27898D01*
G01X9649Y27843D01*
G01X9627Y27786D01*
G01X9608Y27726D01*
G01X9592Y27664D01*
G01X9579Y27601D01*
G01X9570Y27536D01*
G01X9565Y27471D01*
G01X9563Y27405D01*
G01X9563Y27163D01*
G01X10314Y27163D01*
G01X10408Y27161D01*
G01X10493Y27159D01*
G01X10568Y27155D01*
G01X10635Y27149D01*
G01X10693Y27141D01*
G01X10742Y27132D01*
G01X10783Y27122D01*
G01X10816Y27108D01*
G01X10841Y27093D01*
G01X10858Y27075D01*
G01X10868Y27055D01*
G01X10870Y27032D01*
G01X10865Y27007D01*
G01X10852Y26978D01*
G01X10833Y26946D01*
G01X10807Y26911D01*
G01X10775Y26873D01*
G01X10737Y26831D01*
G01X10692Y26785D01*
G01X10646Y26741D01*
G01X10602Y26705D01*
G01X10560Y26675D01*
G01X10518Y26653D01*
G01X10474Y26636D01*
G01X10429Y26627D01*
G01X10381Y26624D01*
G01X10329Y26627D01*
G01X10272Y26636D01*
G01X10209Y26652D01*
G01X10139Y26673D01*
G01X10061Y26699D01*
G01X9995Y26722D01*
G01X9939Y26738D01*
G01X9893Y26746D01*
G01X9853Y26746D01*
G01X9818Y26738D01*
G01X9785Y26721D01*
G01X9752Y26696D01*
G01X9716Y26662D01*
G01X9653Y26592D01*
G01X9638Y26541D01*
G01X9675Y26488D01*
G01X9767Y26412D01*
G01X9816Y26378D01*
G01X9868Y26348D01*
G01X9922Y26322D01*
G01X9978Y26299D01*
G01X10036Y26279D01*
G01X10095Y26264D01*
G01X10156Y26252D01*
G01X10218Y26243D01*
G01X10280Y26238D01*
G01X10343Y26237D01*
G01X10406Y26239D01*
G01X10468Y26245D01*
G01X10530Y26253D01*
G01X10591Y26266D01*
G01X10651Y26281D01*
G01X10710Y26300D01*
G01X10766Y26322D01*
G01X10821Y26347D01*
G01X10873Y26376D01*
G01X10923Y26408D01*
G01X10969Y26442D01*
G01X11012Y26481D01*
G01X11052Y26521D01*
G01X11088Y26565D01*
G01X11116Y26608D01*
G01X11142Y26653D01*
G01X11166Y26701D01*
G01X11187Y26752D01*
G01X11205Y26805D01*
G01X11222Y26860D01*
G01X11235Y26917D01*
G01X11246Y26976D01*
G01X11255Y27036D01*
G01X11261Y27097D01*
G01X11265Y27159D01*
G01X11267Y27222D01*
G01X11266Y27285D01*
G01X11263Y27348D01*
G01X11258Y27411D01*
G01X11251Y27473D01*
G01X11241Y27535D01*
G01X11230Y27596D01*
G01X11216Y27656D01*
G01X11200Y27714D01*
G01X11183Y27772D01*
G01X11163Y27827D01*
G01X11141Y27880D01*
G01X11118Y27931D01*
G01X11092Y27979D01*
G01X11065Y28024D01*
G01X11036Y28067D01*
G01X11005Y28105D01*
G01X10972Y28141D01*
G01X10938Y28172D01*
G01X10902Y28200D01*
G01X10864Y28223D01*
G01X10818Y28245D01*
G01X10769Y28265D01*
G01X10715Y28281D01*
G01X10660Y28294D01*
G01X10602Y28304D01*
G01X10543Y28312D01*
G01X10482Y28316D01*
G37*

%LPC*%
G36*
G01X10450Y27977D02*
G01X10416Y27982D01*
G01X10360Y27969D01*
G01X10290Y27933D01*
G01X10213Y27880D01*
G01X10140Y27815D01*
G01X10095Y27769D01*
G01X10057Y27727D01*
G01X10027Y27690D01*
G01X10005Y27658D01*
G01X9991Y27629D01*
G01X9985Y27603D01*
G01X9987Y27581D01*
G01X9997Y27563D01*
G01X10017Y27547D01*
G01X10046Y27535D01*
G01X10083Y27524D01*
G01X10130Y27517D01*
G01X10187Y27511D01*
G01X10253Y27507D01*
G01X10329Y27505D01*
G01X10416Y27505D01*
G01X10511Y27506D01*
G01X10596Y27510D01*
G01X10672Y27516D01*
G01X10736Y27524D01*
G01X10788Y27535D01*
G01X10827Y27547D01*
G01X10851Y27561D01*
G01X10860Y27576D01*
G01X10853Y27607D01*
G01X10835Y27644D01*
G01X10807Y27687D01*
G01X10771Y27731D01*
G01X10729Y27776D01*
G01X10683Y27821D01*
G01X10634Y27863D01*
G01X10585Y27902D01*
G01X10536Y27934D01*
G01X10491Y27960D01*
G01X10450Y27977D01*
G37*

%LPD*%
G36*
G01X14409Y28324D02*
G01X14204Y28324D01*
G01X14124Y28318D01*
G01X14059Y28303D01*
G01X14016Y28280D01*
G01X13999Y28253D01*
G01X13991Y28226D01*
G01X13967Y28216D01*
G01X13926Y28226D01*
G01X13867Y28253D01*
G01X13821Y28273D01*
G01X13764Y28290D01*
G01X13700Y28303D01*
G01X13629Y28312D01*
G01X13555Y28318D01*
G01X13480Y28321D01*
G01X13405Y28319D01*
G01X13333Y28314D01*
G01X13265Y28306D01*
G01X13205Y28294D01*
G01X13154Y28277D01*
G01X13114Y28258D01*
G01X13082Y28228D01*
G01X13067Y28191D01*
G01X13070Y28151D01*
G01X13087Y28109D01*
G01X13117Y28066D01*
G01X13157Y28024D01*
G01X13206Y27986D01*
G01X13262Y27952D01*
G01X13323Y27924D01*
G01X13387Y27905D01*
G01X13451Y27896D01*
G01X13514Y27898D01*
G01X13602Y27903D01*
G01X13695Y27896D01*
G01X13784Y27878D01*
G01X13855Y27850D01*
G01X13879Y27836D01*
G01X13899Y27823D01*
G01X13918Y27806D01*
G01X13934Y27788D01*
G01X13948Y27766D01*
G01X13959Y27740D01*
G01X13969Y27708D01*
G01X13977Y27670D01*
G01X13984Y27625D01*
G01X13989Y27571D01*
G01X13993Y27508D01*
G01X13995Y27436D01*
G01X13997Y27351D01*
G01X13998Y27256D01*
G01X13999Y27147D01*
G01X13999Y26276D01*
G01X14409Y26276D01*
G01X14409Y28324D01*
G37*

%LPD*%
G36*
G01X23487Y28324D02*
G01X23288Y28324D01*
G01X23209Y28317D01*
G01X23140Y28301D01*
G01X23089Y28276D01*
G01X23063Y28246D01*
G01X23043Y28213D01*
G01X23011Y28202D01*
G01X22962Y28213D01*
G01X22892Y28246D01*
G01X22841Y28268D01*
G01X22783Y28286D01*
G01X22719Y28301D01*
G01X22649Y28311D01*
G01X22577Y28318D01*
G01X22502Y28321D01*
G01X22428Y28320D01*
G01X22356Y28314D01*
G01X22287Y28305D01*
G01X22224Y28292D01*
G01X22167Y28275D01*
G01X22118Y28253D01*
G01X22081Y28232D01*
G01X22046Y28207D01*
G01X22014Y28180D01*
G01X21984Y28150D01*
G01X21957Y28116D01*
G01X21932Y28079D01*
G01X21909Y28038D01*
G01X21888Y27993D01*
G01X21869Y27944D01*
G01X21853Y27889D01*
G01X21838Y27830D01*
G01X21825Y27766D01*
G01X21815Y27696D01*
G01X21805Y27620D01*
G01X21797Y27538D01*
G01X21791Y27450D01*
G01X21787Y27356D01*
G01X21784Y27255D01*
G01X21782Y27146D01*
G01X21781Y27030D01*
G01X21781Y26276D01*
G01X22190Y26276D01*
G01X22190Y26943D01*
G01X22191Y27054D01*
G01X22193Y27156D01*
G01X22197Y27250D01*
G01X22202Y27337D01*
G01X22209Y27416D01*
G01X22217Y27489D01*
G01X22228Y27554D01*
G01X22241Y27614D01*
G01X22256Y27667D01*
G01X22273Y27714D01*
G01X22293Y27756D01*
G01X22314Y27792D01*
G01X22339Y27823D01*
G01X22366Y27848D01*
G01X22396Y27869D01*
G01X22429Y27886D01*
G01X22464Y27899D01*
G01X22503Y27907D01*
G01X22546Y27913D01*
G01X22591Y27914D01*
G01X22646Y27913D01*
G01X22696Y27910D01*
G01X22743Y27904D01*
G01X22785Y27895D01*
G01X22823Y27883D01*
G01X22857Y27867D01*
G01X22888Y27846D01*
G01X22916Y27821D01*
G01X22940Y27791D01*
G01X22962Y27755D01*
G01X22980Y27713D01*
G01X22997Y27665D01*
G01X23011Y27610D01*
G01X23024Y27547D01*
G01X23034Y27478D01*
G01X23043Y27400D01*
G01X23050Y27314D01*
G01X23057Y27218D01*
G01X23062Y27114D01*
G01X23067Y27000D01*
G01X23093Y26276D01*
G01X23487Y26276D01*
G01X23487Y28324D01*
G37*

%LPD*%
G36*
G01X20611Y43955D02*
G01X19305Y43955D01*
G01X19193Y43954D01*
G01X19092Y43953D01*
G01X19001Y43952D01*
G01X18920Y43950D01*
G01X18848Y43947D01*
G01X18784Y43944D01*
G01X18728Y43940D01*
G01X18680Y43935D01*
G01X18638Y43930D01*
G01X18603Y43924D01*
G01X18573Y43917D01*
G01X18549Y43908D01*
G01X18528Y43899D01*
G01X18512Y43889D01*
G01X18500Y43877D01*
G01X18490Y43865D01*
G01X18483Y43851D01*
G01X18477Y43836D01*
G01X18471Y43814D01*
G01X18463Y43782D01*
G01X18454Y43741D01*
G01X18444Y43691D01*
G01X18432Y43634D01*
G01X18420Y43571D01*
G01X18407Y43502D01*
G01X18393Y43427D01*
G01X18378Y43350D01*
G01X18364Y43269D01*
G01X18349Y43186D01*
G01X18335Y43102D01*
G01X18324Y43037D01*
G01X18312Y42972D01*
G01X18288Y42837D01*
G01X18275Y42769D01*
G01X18262Y42700D01*
G01X18249Y42633D01*
G01X18236Y42568D01*
G01X18223Y42504D01*
G01X18210Y42442D01*
G01X18198Y42383D01*
G01X18186Y42328D01*
G01X18175Y42275D01*
G01X18165Y42228D01*
G01X18154Y42184D01*
G01X18145Y42147D01*
G01X18061Y41806D01*
G01X17331Y41508D01*
G01X16602Y41210D01*
G01X15744Y41798D01*
G01X15657Y41858D01*
G01X15571Y41916D01*
G01X15488Y41972D01*
G01X15408Y42026D01*
G01X15330Y42077D01*
G01X15257Y42125D01*
G01X15188Y42171D01*
G01X15124Y42213D01*
G01X15064Y42250D01*
G01X15011Y42284D01*
G01X14923Y42339D01*
G01X14889Y42359D01*
G01X14863Y42373D01*
G01X14844Y42382D01*
G01X14835Y42385D01*
G01X14825Y42381D01*
G01X14809Y42370D01*
G01X14786Y42352D01*
G01X14756Y42327D01*
G01X14721Y42296D01*
G01X14680Y42259D01*
G01X14633Y42216D01*
G01X14582Y42169D01*
G01X14526Y42117D01*
G01X14467Y42060D01*
G01X14404Y41999D01*
G01X14337Y41935D01*
G01X14268Y41867D01*
G01X14197Y41797D01*
G01X14123Y41724D01*
G01X14048Y41649D01*
G01X13315Y40913D01*
G01X13896Y40066D01*
G01X13955Y39979D01*
G01X14013Y39894D01*
G01X14068Y39811D01*
G01X14121Y39731D01*
G01X14172Y39654D01*
G01X14220Y39581D01*
G01X14265Y39511D01*
G01X14306Y39447D01*
G01X14344Y39387D01*
G01X14377Y39332D01*
G01X14407Y39284D01*
G01X14431Y39241D01*
G01X14451Y39206D01*
G01X14465Y39178D01*
G01X14474Y39159D01*
G01X14477Y39147D01*
G01X14474Y39130D01*
G01X14466Y39102D01*
G01X14454Y39064D01*
G01X14437Y39016D01*
G01X14416Y38961D01*
G01X14391Y38898D01*
G01X14364Y38829D01*
G01X14334Y38756D01*
G01X14302Y38678D01*
G01X14268Y38597D01*
G01X14232Y38514D01*
G01X14196Y38430D01*
G01X14159Y38346D01*
G01X14123Y38263D01*
G01X14086Y38181D01*
G01X14051Y38103D01*
G01X14017Y38028D01*
G01X13985Y37958D01*
G01X13954Y37894D01*
G01X13927Y37837D01*
G01X13902Y37789D01*
G01X13881Y37748D01*
G01X13864Y37718D01*
G01X13851Y37699D01*
G01X13839Y37690D01*
G01X13818Y37679D01*
G01X13788Y37667D01*
G01X13749Y37653D01*
G01X13702Y37639D01*
G01X13647Y37623D01*
G01X13585Y37606D01*
G01X13517Y37588D01*
G01X13443Y37570D01*
G01X13363Y37551D01*
G01X13279Y37532D01*
G01X13190Y37513D01*
G01X13097Y37493D01*
G01X13001Y37474D01*
G01X12903Y37454D01*
G01X12802Y37435D01*
G01X11815Y37249D01*
G01X11815Y35103D01*
G01X12481Y34982D01*
G01X12550Y34970D01*
G01X12621Y34957D01*
G01X12766Y34930D01*
G01X12910Y34902D01*
G01X12981Y34888D01*
G01X13050Y34875D01*
G01X13117Y34862D01*
G01X13182Y34848D01*
G01X13243Y34836D01*
G01X13300Y34824D01*
G01X13354Y34813D01*
G01X13403Y34803D01*
G01X13446Y34793D01*
G01X13484Y34784D01*
G01X13822Y34706D01*
G01X14112Y33989D01*
G01X14151Y33891D01*
G01X14189Y33795D01*
G01X14225Y33702D01*
G01X14259Y33613D01*
G01X14290Y33529D01*
G01X14318Y33451D01*
G01X14343Y33380D01*
G01X14364Y33316D01*
G01X14381Y33262D01*
G01X14395Y33218D01*
G01X14403Y33184D01*
G01X14406Y33162D01*
G01X14403Y33147D01*
G01X14395Y33124D01*
G01X14382Y33093D01*
G01X14364Y33056D01*
G01X14341Y33012D01*
G01X14314Y32963D01*
G01X14282Y32907D01*
G01X14247Y32847D01*
G01X14209Y32782D01*
G01X14167Y32714D01*
G01X14122Y32642D01*
G01X14074Y32566D01*
G01X14024Y32488D01*
G01X13972Y32408D01*
G01X13918Y32326D01*
G01X13862Y32243D01*
G01X13315Y31434D01*
G01X14048Y30698D01*
G01X14123Y30623D01*
G01X14197Y30550D01*
G01X14268Y30480D01*
G01X14337Y30412D01*
G01X14403Y30348D01*
G01X14466Y30287D01*
G01X14526Y30231D01*
G01X14581Y30178D01*
G01X14632Y30131D01*
G01X14678Y30088D01*
G01X14719Y30051D01*
G01X14754Y30020D01*
G01X14783Y29995D01*
G01X14806Y29977D01*
G01X14822Y29966D01*
G01X14831Y29962D01*
G01X14840Y29965D01*
G01X14857Y29973D01*
G01X14882Y29986D01*
G01X14913Y30005D01*
G01X14951Y30028D01*
G01X14995Y30055D01*
G01X15045Y30086D01*
G01X15100Y30121D01*
G01X15159Y30160D01*
G01X15224Y30202D01*
G01X15292Y30247D01*
G01X15363Y30294D01*
G01X15438Y30344D01*
G01X15515Y30396D01*
G01X15595Y30450D01*
G01X15676Y30505D01*
G01X16471Y31048D01*
G01X16881Y30842D01*
G01X16963Y30801D01*
G01X17041Y30763D01*
G01X17112Y30730D01*
G01X17174Y30703D01*
G01X17227Y30681D01*
G01X17268Y30665D01*
G01X17295Y30657D01*
G01X17307Y30657D01*
G01X17315Y30672D01*
G01X17330Y30706D01*
G01X17352Y30757D01*
G01X17380Y30823D01*
G01X17412Y30901D01*
G01X17449Y30990D01*
G01X17488Y31087D01*
G01X17530Y31191D01*
G01X17543Y31223D01*
G01X17557Y31258D01*
G01X17573Y31297D01*
G01X17590Y31339D01*
G01X17608Y31384D01*
G01X17628Y31433D01*
G01X17649Y31483D01*
G01X17671Y31537D01*
G01X17694Y31593D01*
G01X17718Y31651D01*
G01X17742Y31711D01*
G01X17768Y31773D01*
G01X17794Y31837D01*
G01X17821Y31902D01*
G01X17849Y31969D01*
G01X17877Y32037D01*
G01X17905Y32107D01*
G01X17934Y32177D01*
G01X17964Y32247D01*
G01X18054Y32463D01*
G01X18114Y32609D01*
G01X18144Y32681D01*
G01X18204Y32824D01*
G01X18233Y32895D01*
G01X18731Y34086D01*
G01X18537Y34225D01*
G01X18479Y34268D01*
G01X18422Y34310D01*
G01X18367Y34353D01*
G01X18313Y34396D01*
G01X18211Y34482D01*
G01X18163Y34525D01*
G01X18116Y34568D01*
G01X18071Y34612D01*
G01X18027Y34655D01*
G01X17945Y34743D01*
G01X17869Y34833D01*
G01X17833Y34877D01*
G01X17799Y34922D01*
G01X17767Y34968D01*
G01X17736Y35014D01*
G01X17706Y35061D01*
G01X17678Y35107D01*
G01X17651Y35155D01*
G01X17626Y35202D01*
G01X17603Y35250D01*
G01X17580Y35299D01*
G01X17540Y35397D01*
G01X17522Y35448D01*
G01X17490Y35550D01*
G01X17477Y35602D01*
G01X17465Y35654D01*
G01X17453Y35707D01*
G01X17444Y35761D01*
G01X17435Y35816D01*
G01X17428Y35870D01*
G01X17422Y35926D01*
G01X17418Y35983D01*
G01X17415Y36041D01*
G01X17413Y36098D01*
G01X17412Y36157D01*
G01X17413Y36234D01*
G01X17414Y36305D01*
G01X17417Y36371D01*
G01X17420Y36433D01*
G01X17425Y36491D01*
G01X17432Y36546D01*
G01X17441Y36599D01*
G01X17451Y36651D01*
G01X17463Y36702D01*
G01X17477Y36753D01*
G01X17494Y36805D01*
G01X17513Y36857D01*
G01X17535Y36912D01*
G01X17560Y36970D01*
G01X17587Y37031D01*
G01X17617Y37095D01*
G01X17645Y37153D01*
G01X17675Y37208D01*
G01X17706Y37263D01*
G01X17738Y37316D01*
G01X17771Y37368D01*
G01X17806Y37420D01*
G01X17841Y37469D01*
G01X17879Y37518D01*
G01X17917Y37565D01*
G01X17956Y37611D01*
G01X17996Y37656D01*
G01X18038Y37699D01*
G01X18081Y37741D01*
G01X18124Y37781D01*
G01X18169Y37821D01*
G01X18215Y37859D01*
G01X18262Y37895D01*
G01X18309Y37930D01*
G01X18358Y37964D01*
G01X18408Y37996D01*
G01X18458Y38027D01*
G01X18510Y38057D01*
G01X18562Y38085D01*
G01X18615Y38111D01*
G01X18670Y38136D01*
G01X18724Y38160D01*
G01X18780Y38182D01*
G01X18836Y38202D01*
G01X18893Y38221D01*
G01X18951Y38238D01*
G01X19009Y38254D01*
G01X19069Y38268D01*
G01X19129Y38281D01*
G01X19189Y38292D01*
G01X19250Y38301D01*
G01X19312Y38309D01*
G01X19374Y38315D01*
G01X19437Y38319D01*
G01X19500Y38322D01*
G01X19564Y38323D01*
G01X19637Y38323D01*
G01X19705Y38321D01*
G01X19768Y38319D01*
G01X19827Y38315D01*
G01X19883Y38309D01*
G01X19936Y38302D01*
G01X19988Y38294D01*
G01X20039Y38282D01*
G01X20090Y38269D01*
G01X20141Y38253D01*
G01X20194Y38235D01*
G01X20248Y38214D01*
G01X20305Y38190D01*
G01X20366Y38163D01*
G01X20431Y38133D01*
G01X20559Y38069D01*
G01X20616Y38039D01*
G01X20671Y38007D01*
G01X20725Y37974D01*
G01X20829Y37904D01*
G01X20879Y37868D01*
G01X20927Y37831D01*
G01X20974Y37793D01*
G01X21020Y37753D01*
G01X21065Y37712D01*
G01X21107Y37671D01*
G01X21149Y37628D01*
G01X21189Y37585D01*
G01X21228Y37540D01*
G01X21265Y37494D01*
G01X21301Y37448D01*
G01X21336Y37400D01*
G01X21369Y37352D01*
G01X21400Y37302D01*
G01X21430Y37252D01*
G01X21459Y37200D01*
G01X21486Y37148D01*
G01X21511Y37095D01*
G01X21536Y37041D01*
G01X21558Y36986D01*
G01X21579Y36930D01*
G01X21599Y36874D01*
G01X21617Y36816D01*
G01X21633Y36758D01*
G01X21648Y36698D01*
G01X21662Y36638D01*
G01X21674Y36578D01*
G01X21684Y36517D01*
G01X21693Y36454D01*
G01X21700Y36391D01*
G01X21705Y36327D01*
G01X21709Y36263D01*
G01X21712Y36198D01*
G01X21712Y36069D01*
G01X21709Y36008D01*
G01X21705Y35947D01*
G01X21699Y35887D01*
G01X21692Y35827D01*
G01X21682Y35768D01*
G01X21672Y35710D01*
G01X21659Y35652D01*
G01X21645Y35595D01*
G01X21629Y35538D01*
G01X21611Y35482D01*
G01X21591Y35426D01*
G01X21570Y35371D01*
G01X21547Y35317D01*
G01X21522Y35262D01*
G01X21496Y35209D01*
G01X21468Y35156D01*
G01X21437Y35103D01*
G01X21406Y35051D01*
G01X21372Y34999D01*
G01X21337Y34948D01*
G01X21299Y34897D01*
G01X21260Y34847D01*
G01X21219Y34796D01*
G01X21176Y34747D01*
G01X21132Y34697D01*
G01X21086Y34649D01*
G01X21037Y34600D01*
G01X20988Y34552D01*
G01X20936Y34504D01*
G01X20882Y34457D01*
G01X20826Y34409D01*
G01X20769Y34362D01*
G01X20709Y34315D01*
G01X20648Y34269D01*
G01X20585Y34223D01*
G01X20388Y34081D01*
G01X20547Y33711D01*
G01X20564Y33671D01*
G01X20583Y33626D01*
G01X20603Y33577D01*
G01X20626Y33524D01*
G01X20649Y33469D01*
G01X20673Y33411D01*
G01X20698Y33351D01*
G01X20724Y33289D01*
G01X20750Y33226D01*
G01X20803Y33099D01*
G01X20829Y33036D01*
G01X20854Y32973D01*
G01X20879Y32912D01*
G01X20904Y32852D01*
G01X20927Y32794D01*
G01X20971Y32686D01*
G01X21015Y32580D01*
G01X21057Y32475D01*
G01X21098Y32374D01*
G01X21139Y32275D01*
G01X21178Y32179D01*
G01X21216Y32085D01*
G01X21253Y31994D01*
G01X21290Y31906D01*
G01X21325Y31821D01*
G01X21358Y31738D01*
G01X21391Y31658D01*
G01X21423Y31580D01*
G01X21454Y31506D01*
G01X21483Y31435D01*
G01X21512Y31366D01*
G01X21539Y31300D01*
G01X21565Y31238D01*
G01X21590Y31178D01*
G01X21613Y31122D01*
G01X21635Y31068D01*
G01X21657Y31018D01*
G01X21676Y30971D01*
G01X21695Y30927D01*
G01X21712Y30885D01*
G01X21728Y30848D01*
G01X21743Y30814D01*
G01X21756Y30783D01*
G01X21768Y30755D01*
G01X21779Y30730D01*
G01X21788Y30710D01*
G01X21796Y30692D01*
G01X21803Y30678D01*
G01X21808Y30667D01*
G01X21812Y30660D01*
G01X21814Y30657D01*
G01X21827Y30657D01*
G01X21855Y30665D01*
G01X21896Y30681D01*
G01X21949Y30703D01*
G01X22013Y30730D01*
G01X22084Y30763D01*
G01X22162Y30801D01*
G01X22244Y30842D01*
G01X22653Y31048D01*
G01X23449Y30505D01*
G01X23530Y30450D01*
G01X23610Y30396D01*
G01X23687Y30344D01*
G01X23762Y30294D01*
G01X23833Y30247D01*
G01X23901Y30202D01*
G01X23965Y30160D01*
G01X24025Y30121D01*
G01X24080Y30086D01*
G01X24130Y30055D01*
G01X24174Y30028D01*
G01X24212Y30005D01*
G01X24243Y29986D01*
G01X24268Y29973D01*
G01X24284Y29965D01*
G01X24294Y29962D01*
G01X24303Y29966D01*
G01X24318Y29977D01*
G01X24341Y29995D01*
G01X24371Y30020D01*
G01X24406Y30051D01*
G01X24447Y30088D01*
G01X24493Y30131D01*
G01X24544Y30178D01*
G01X24599Y30231D01*
G01X24659Y30287D01*
G01X24722Y30348D01*
G01X24788Y30412D01*
G01X24857Y30480D01*
G01X24929Y30551D01*
G01X25002Y30623D01*
G01X25077Y30698D01*
G01X25811Y31435D01*
G01X25264Y32230D01*
G01X25208Y32311D01*
G01X25154Y32392D01*
G01X25101Y32470D01*
G01X25051Y32547D01*
G01X25003Y32621D01*
G01X24958Y32693D01*
G01X24916Y32760D01*
G01X24877Y32824D01*
G01X24842Y32884D01*
G01X24810Y32939D01*
G01X24782Y32988D01*
G01X24759Y33032D01*
G01X24741Y33069D01*
G01X24727Y33100D01*
G01X24719Y33123D01*
G01X24716Y33139D01*
G01X24719Y33161D01*
G01X24726Y33195D01*
G01X24739Y33240D01*
G01X24755Y33295D01*
G01X24800Y33430D01*
G01X24827Y33509D01*
G01X24857Y33593D01*
G01X24890Y33682D01*
G01X24926Y33775D01*
G01X24963Y33871D01*
G01X25001Y33969D01*
G01X25038Y34060D01*
G01X25073Y34145D01*
G01X25106Y34224D01*
G01X25138Y34297D01*
G01X25169Y34363D01*
G01X25198Y34424D01*
G01X25226Y34479D01*
G01X25252Y34528D01*
G01X25278Y34572D01*
G01X25301Y34611D01*
G01X25325Y34644D01*
G01X25347Y34672D01*
G01X25369Y34695D01*
G01X25389Y34713D01*
G01X25409Y34727D01*
G01X25427Y34736D01*
G01X25447Y34742D01*
G01X25474Y34750D01*
G01X25509Y34759D01*
G01X25551Y34769D01*
G01X25601Y34780D01*
G01X25656Y34792D01*
G01X25717Y34806D01*
G01X25784Y34819D01*
G01X25854Y34834D01*
G01X25930Y34849D01*
G01X26009Y34865D01*
G01X26090Y34881D01*
G01X26175Y34897D01*
G01X26262Y34913D01*
G01X26350Y34930D01*
G01X26440Y34946D01*
G01X27310Y35104D01*
G01X27310Y37249D01*
G01X26323Y37435D01*
G01X26222Y37454D01*
G01X26123Y37474D01*
G01X26027Y37493D01*
G01X25935Y37513D01*
G01X25846Y37532D01*
G01X25761Y37551D01*
G01X25681Y37570D01*
G01X25607Y37588D01*
G01X25539Y37606D01*
G01X25477Y37623D01*
G01X25422Y37639D01*
G01X25374Y37653D01*
G01X25335Y37667D01*
G01X25305Y37679D01*
G01X25283Y37690D01*
G01X25271Y37699D01*
G01X25258Y37718D01*
G01X25240Y37748D01*
G01X25219Y37788D01*
G01X25194Y37836D01*
G01X25166Y37892D01*
G01X25136Y37956D01*
G01X25104Y38025D01*
G01X25070Y38098D01*
G01X25035Y38177D01*
G01X24999Y38257D01*
G01X24963Y38340D01*
G01X24926Y38424D01*
G01X24890Y38507D01*
G01X24855Y38590D01*
G01X24821Y38670D01*
G01X24790Y38748D01*
G01X24760Y38822D01*
G01X24732Y38890D01*
G01X24709Y38953D01*
G01X24688Y39009D01*
G01X24671Y39057D01*
G01X24658Y39096D01*
G01X24651Y39125D01*
G01X24648Y39142D01*
G01X24651Y39155D01*
G01X24660Y39175D01*
G01X24674Y39204D01*
G01X24693Y39240D01*
G01X24718Y39283D01*
G01X24747Y39332D01*
G01X24780Y39387D01*
G01X24818Y39447D01*
G01X24859Y39513D01*
G01X24904Y39582D01*
G01X24951Y39657D01*
G01X25002Y39734D01*
G01X25055Y39815D01*
G01X25110Y39897D01*
G01X25167Y39983D01*
G01X25226Y40070D01*
G01X25805Y40917D01*
G01X25074Y41651D01*
G01X24926Y41799D01*
G01X24854Y41869D01*
G01X24786Y41936D01*
G01X24719Y42000D01*
G01X24656Y42061D01*
G01X24597Y42117D01*
G01X24541Y42170D01*
G01X24490Y42217D01*
G01X24443Y42260D01*
G01X24402Y42296D01*
G01X24366Y42327D01*
G01X24336Y42352D01*
G01X24312Y42370D01*
G01X24296Y42381D01*
G01X24286Y42385D01*
G01X24276Y42382D01*
G01X24257Y42373D01*
G01X24231Y42359D01*
G01X24197Y42339D01*
G01X24155Y42314D01*
G01X24108Y42284D01*
G01X24054Y42250D01*
G01X23995Y42212D01*
G01X23930Y42171D01*
G01X23862Y42125D01*
G01X23788Y42077D01*
G01X23711Y42025D01*
G01X23631Y41971D01*
G01X23548Y41915D01*
G01X23463Y41857D01*
G01X23376Y41797D01*
G01X22522Y41209D01*
G01X21883Y41462D01*
G01X21796Y41497D01*
G01X21710Y41532D01*
G01X21627Y41566D01*
G01X21547Y41600D01*
G01X21471Y41633D01*
G01X21401Y41664D01*
G01X21336Y41693D01*
G01X21279Y41720D01*
G01X21229Y41743D01*
G01X21188Y41764D01*
G01X21158Y41781D01*
G01X21137Y41794D01*
G01X21121Y41810D01*
G01X21104Y41834D01*
G01X21087Y41867D01*
G01X21068Y41907D01*
G01X21049Y41954D01*
G01X21030Y42008D01*
G01X21010Y42066D01*
G01X20991Y42130D01*
G01X20972Y42198D01*
G01X20955Y42269D01*
G01X20937Y42343D01*
G01X20921Y42419D01*
G01X20910Y42477D01*
G01X20898Y42539D01*
G01X20884Y42603D01*
G01X20871Y42670D01*
G01X20857Y42739D01*
G01X20829Y42879D01*
G01X20801Y43021D01*
G01X20787Y43091D01*
G01X20773Y43159D01*
G01X20759Y43225D01*
G01X20735Y43350D01*
G01X20723Y43407D01*
G01X20712Y43460D01*
G01X20611Y43955D01*
G37*

%LPD*%
G54D20*
G01X36265Y62990D02*
G01X36265Y62035D01*
G01X36265Y62785D02*
G01X36402Y62921D01*
G01X36538Y62990D01*
G01X36743Y62990D01*
G01X36879Y62921D01*
G01X37015Y62785D01*
G01X37083Y62581D01*
G01X37083Y62444D01*
G01X37015Y62240D01*
G01X36879Y62103D01*
G01X36743Y62035D01*
G01X36538Y62035D01*
G01X36402Y62103D01*
G01X36265Y62240D01*
G01X35815Y63467D02*
G01X35815Y62035D01*
G01X35133Y62990D02*
G01X35815Y62308D01*
G01X35543Y62581D02*
G01X35065Y62035D01*
G01X33797Y62990D02*
G01X33797Y62035D01*
G01X33797Y62785D02*
G01X33933Y62921D01*
G01X34070Y62990D01*
G01X34274Y62990D01*
G01X34411Y62921D01*
G01X34547Y62785D01*
G01X34615Y62581D01*
G01X34615Y62444D01*
G01X34547Y62240D01*
G01X34411Y62103D01*
G01X34274Y62035D01*
G01X34070Y62035D01*
G01X33933Y62103D01*
G01X33797Y62240D01*
G01X33347Y62990D02*
G01X33347Y62035D01*
G01X33347Y62581D02*
G01X33279Y62785D01*
G01X33143Y62921D01*
G01X33006Y62990D01*
G01X32802Y62990D01*
G01X31602Y62785D02*
G01X31670Y62921D01*
G01X31874Y62990D01*
G01X32079Y62990D01*
G01X32283Y62921D01*
G01X32352Y62785D01*
G01X32283Y62649D01*
G01X32147Y62581D01*
G01X31806Y62512D01*
G01X31670Y62444D01*
G01X31602Y62308D01*
G01X31602Y62240D01*
G01X31670Y62103D01*
G01X31874Y62035D01*
G01X32079Y62035D01*
G01X32283Y62103D01*
G01X32352Y62240D01*
G01X31152Y63467D02*
G01X31152Y62035D01*
G01X31152Y62717D02*
G01X30947Y62921D01*
G01X30811Y62990D01*
G01X30606Y62990D01*
G01X30470Y62921D01*
G01X30402Y62717D01*
G01X30402Y62035D01*
G01X29133Y62990D02*
G01X29133Y62035D01*
G01X29133Y62785D02*
G01X29270Y62921D01*
G01X29406Y62990D01*
G01X29611Y62990D01*
G01X29747Y62921D01*
G01X29883Y62785D01*
G01X29952Y62581D01*
G01X29952Y62444D01*
G01X29883Y62240D01*
G01X29747Y62103D01*
G01X29611Y62035D01*
G01X29406Y62035D01*
G01X29270Y62103D01*
G01X29133Y62240D01*
G01X27865Y62990D02*
G01X27865Y61899D01*
G01X27933Y61694D01*
G01X28002Y61626D01*
G01X28138Y61558D01*
G01X28343Y61558D01*
G01X28479Y61626D01*
G01X27865Y62785D02*
G01X28002Y62921D01*
G01X28138Y62990D01*
G01X28343Y62990D01*
G01X28479Y62921D01*
G01X28615Y62785D01*
G01X28683Y62581D01*
G01X28683Y62444D01*
G01X28615Y62240D01*
G01X28479Y62103D01*
G01X28343Y62035D01*
G01X28138Y62035D01*
G01X28002Y62103D01*
G01X27865Y62240D01*
G01X26597Y62990D02*
G01X26597Y62035D01*
G01X26597Y62785D02*
G01X26733Y62921D01*
G01X26870Y62990D01*
G01X27074Y62990D01*
G01X27211Y62921D01*
G01X27347Y62785D01*
G01X27415Y62581D01*
G01X27415Y62444D01*
G01X27347Y62240D01*
G01X27211Y62103D01*
G01X27074Y62035D01*
G01X26870Y62035D01*
G01X26733Y62103D01*
G01X26597Y62240D01*
G01X26147Y62990D02*
G01X26147Y62035D01*
G01X26147Y62581D02*
G01X26079Y62785D01*
G01X25943Y62921D01*
G01X25806Y62990D01*
G01X25602Y62990D01*
G01X25152Y62990D02*
G01X24879Y62035D01*
G01X24606Y62990D02*
G01X24879Y62035D01*
G01X24606Y62990D02*
G01X24333Y62035D01*
G01X24061Y62990D02*
G01X24333Y62035D01*
G01X22793Y62990D02*
G01X22793Y62035D01*
G01X22793Y62785D02*
G01X22929Y62921D01*
G01X23065Y62990D01*
G01X23270Y62990D01*
G01X23406Y62921D01*
G01X23543Y62785D01*
G01X23611Y62581D01*
G01X23611Y62444D01*
G01X23543Y62240D01*
G01X23406Y62103D01*
G01X23270Y62035D01*
G01X23065Y62035D01*
G01X22929Y62103D01*
G01X22793Y62240D01*
G01X22343Y63467D02*
G01X22343Y62035D01*
G01X21006Y62990D02*
G01X21074Y62785D01*
G01X21211Y62649D01*
G01X21415Y62581D01*
G01X21483Y62581D01*
G01X21688Y62649D01*
G01X21824Y62785D01*
G01X21893Y62990D01*
G01X21893Y63058D01*
G01X21824Y63262D01*
G01X21688Y63399D01*
G01X21483Y63467D01*
G01X21415Y63467D01*
G01X21211Y63399D01*
G01X21074Y63262D01*
G01X21006Y62990D01*
G01X21006Y62649D01*
G01X21074Y62308D01*
G01X21211Y62103D01*
G01X21415Y62035D01*
G01X21552Y62035D01*
G01X21756Y62103D01*
G01X21824Y62240D01*
G01X20215Y63467D02*
G01X20420Y63399D01*
G01X20488Y63262D01*
G01X20488Y63126D01*
G01X20420Y62990D01*
G01X20283Y62921D01*
G01X20011Y62853D01*
G01X19806Y62785D01*
G01X19670Y62649D01*
G01X19602Y62512D01*
G01X19602Y62308D01*
G01X19670Y62171D01*
G01X19738Y62103D01*
G01X19943Y62035D01*
G01X20215Y62035D01*
G01X20420Y62103D01*
G01X20488Y62171D01*
G01X20556Y62308D01*
G01X20556Y62512D01*
G01X20488Y62649D01*
G01X20352Y62785D01*
G01X20147Y62853D01*
G01X19874Y62921D01*
G01X19738Y62990D01*
G01X19670Y63126D01*
G01X19670Y63262D01*
G01X19738Y63399D01*
G01X19943Y63467D01*
G01X20215Y63467D01*
G01X18129Y62921D02*
G01X18197Y63058D01*
G01X18333Y63126D01*
G01X18538Y63126D01*
G01X18674Y63058D01*
G01X18743Y62990D01*
G01X18811Y62785D01*
G01X18811Y62581D01*
G01X18743Y62444D01*
G01X18606Y62376D01*
G01X18402Y62376D01*
G01X18265Y62444D01*
G01X18197Y62581D01*
G01X18538Y63126D02*
G01X18674Y62990D01*
G01X18743Y62785D01*
G01X18743Y62581D01*
G01X18674Y62444D01*
G01X18606Y62376D01*
G01X18129Y63126D02*
G01X18197Y62581D01*
G01X18197Y62444D01*
G01X18061Y62376D01*
G01X17924Y62376D01*
G01X17788Y62512D01*
G01X17720Y62717D01*
G01X17720Y62853D01*
G01X17788Y63058D01*
G01X17856Y63194D01*
G01X17993Y63331D01*
G01X18129Y63399D01*
G01X18333Y63467D01*
G01X18538Y63467D01*
G01X18743Y63399D01*
G01X18879Y63331D01*
G01X19015Y63194D01*
G01X19083Y63058D01*
G01X19152Y62853D01*
G01X19152Y62649D01*
G01X19083Y62444D01*
G01X19015Y62308D01*
G01X18879Y62171D01*
G01X18743Y62103D01*
G01X18538Y62035D01*
G01X18333Y62035D01*
G01X18129Y62103D01*
G01X17993Y62171D01*
G01X17924Y62240D01*
G01X18061Y63126D02*
G01X18129Y62581D01*
G01X18129Y62444D01*
G01X18061Y62376D01*
G01X16452Y62990D02*
G01X16452Y61899D01*
G01X16520Y61694D01*
G01X16588Y61626D01*
G01X16724Y61558D01*
G01X16929Y61558D01*
G01X17065Y61626D01*
G01X16452Y62785D02*
G01X16588Y62921D01*
G01X16724Y62990D01*
G01X16929Y62990D01*
G01X17065Y62921D01*
G01X17202Y62785D01*
G01X17270Y62581D01*
G01X17270Y62444D01*
G01X17202Y62240D01*
G01X17065Y62103D01*
G01X16929Y62035D01*
G01X16724Y62035D01*
G01X16588Y62103D01*
G01X16452Y62240D01*
G01X16002Y62990D02*
G01X16002Y62035D01*
G01X16002Y62717D02*
G01X15797Y62921D01*
G01X15661Y62990D01*
G01X15456Y62990D01*
G01X15320Y62921D01*
G01X15252Y62717D01*
G01X15252Y62035D01*
G01X15252Y62717D02*
G01X15047Y62921D01*
G01X14911Y62990D01*
G01X14706Y62990D01*
G01X14570Y62921D01*
G01X14502Y62717D01*
G01X14502Y62035D01*
G01X13233Y62990D02*
G01X13233Y62035D01*
G01X13233Y62785D02*
G01X13370Y62921D01*
G01X13506Y62990D01*
G01X13711Y62990D01*
G01X13847Y62921D01*
G01X13983Y62785D01*
G01X14052Y62581D01*
G01X14052Y62444D01*
G01X13983Y62240D01*
G01X13847Y62103D01*
G01X13711Y62035D01*
G01X13506Y62035D01*
G01X13370Y62103D01*
G01X13233Y62240D01*
G01X12783Y63467D02*
G01X12715Y63399D01*
G01X12647Y63467D01*
G01X12715Y63535D01*
G01X12783Y63467D01*
G01X12715Y62990D02*
G01X12715Y62035D01*
G01X12197Y63467D02*
G01X12197Y62035D01*
G01X11679Y62376D02*
G01X11747Y62308D01*
G01X11679Y62240D01*
G01X11611Y62308D01*
G01X11679Y62376D01*
G01X10343Y62785D02*
G01X10479Y62921D01*
G01X10615Y62990D01*
G01X10820Y62990D01*
G01X10956Y62921D01*
G01X11093Y62785D01*
G01X11161Y62581D01*
G01X11161Y62444D01*
G01X11093Y62240D01*
G01X10956Y62103D01*
G01X10820Y62035D01*
G01X10615Y62035D01*
G01X10479Y62103D01*
G01X10343Y62240D01*
G01X9552Y62990D02*
G01X9688Y62921D01*
G01X9824Y62785D01*
G01X9893Y62581D01*
G01X9893Y62444D01*
G01X9824Y62240D01*
G01X9688Y62103D01*
G01X9552Y62035D01*
G01X9347Y62035D01*
G01X9211Y62103D01*
G01X9074Y62240D01*
G01X9006Y62444D01*
G01X9006Y62581D01*
G01X9074Y62785D01*
G01X9211Y62921D01*
G01X9347Y62990D01*
G01X9552Y62990D01*
G01X8556Y62990D02*
G01X8556Y62035D01*
G01X8556Y62717D02*
G01X8352Y62921D01*
G01X8215Y62990D01*
G01X8011Y62990D01*
G01X7874Y62921D01*
G01X7806Y62717D01*
G01X7806Y62035D01*
G01X7806Y62717D02*
G01X7602Y62921D01*
G01X7465Y62990D01*
G01X7261Y62990D01*
G01X7124Y62921D01*
G01X7056Y62717D01*
G01X7056Y62035D01*
G01X34647Y66456D02*
G01X35386Y64516D01*
G01X34647Y66456D02*
G01X33909Y64516D01*
G01X35109Y65163D02*
G01X34186Y65163D01*
G01X33299Y66456D02*
G01X33299Y64516D01*
G01X32006Y66456D02*
G01X33299Y65163D01*
G01X32837Y65625D02*
G01X32006Y64516D01*
G01X30657Y66456D02*
G01X31396Y64516D01*
G01X30657Y66456D02*
G01X29918Y64516D01*
G01X31119Y65163D02*
G01X30195Y65163D01*
G01X29309Y66456D02*
G01X29309Y64516D01*
G01X29309Y66456D02*
G01X28477Y66456D01*
G01X28200Y66364D01*
G01X28108Y66271D01*
G01X28016Y66087D01*
G01X28016Y65902D01*
G01X28108Y65717D01*
G01X28200Y65625D01*
G01X28477Y65532D01*
G01X29309Y65532D01*
G01X28662Y65532D02*
G01X28016Y64516D01*
G01X26113Y66179D02*
G01X26298Y66364D01*
G01X26575Y66456D01*
G01X26944Y66456D01*
G01X27221Y66364D01*
G01X27406Y66179D01*
G01X27406Y65994D01*
G01X27314Y65810D01*
G01X27221Y65717D01*
G01X27037Y65625D01*
G01X26482Y65440D01*
G01X26298Y65348D01*
G01X26205Y65255D01*
G01X26113Y65071D01*
G01X26113Y64794D01*
G01X26298Y64609D01*
G01X26575Y64516D01*
G01X26944Y64516D01*
G01X27221Y64609D01*
G01X27406Y64794D01*
G01X25503Y66456D02*
G01X25503Y64516D01*
G01X24210Y66456D02*
G01X24210Y64516D01*
G01X25503Y65532D02*
G01X24210Y65532D01*
G01X21439Y66456D02*
G01X22178Y64516D01*
G01X21439Y66456D02*
G01X20701Y64516D01*
G01X21901Y65163D02*
G01X20978Y65163D01*
G01X18705Y65994D02*
G01X18798Y66179D01*
G01X18983Y66364D01*
G01X19167Y66456D01*
G01X19537Y66456D01*
G01X19721Y66364D01*
G01X19906Y66179D01*
G01X19999Y65994D01*
G01X20091Y65717D01*
G01X20091Y65255D01*
G01X19999Y64978D01*
G01X19906Y64794D01*
G01X19721Y64609D01*
G01X19537Y64516D01*
G01X19167Y64516D01*
G01X18983Y64609D01*
G01X18798Y64794D01*
G01X18705Y64978D01*
G01X18705Y65255D01*
G01X19167Y65255D02*
G01X18705Y65255D01*
G01X17357Y66456D02*
G01X18096Y64516D01*
G01X17357Y66456D02*
G01X16618Y64516D01*
G01X17819Y65163D02*
G01X16895Y65163D01*
G01X16008Y66456D02*
G01X16008Y64516D01*
G01X16008Y66456D02*
G01X15177Y66456D01*
G01X14900Y66364D01*
G01X14808Y66271D01*
G01X14715Y66087D01*
G01X14715Y65902D01*
G01X14808Y65717D01*
G01X14900Y65625D01*
G01X15177Y65532D01*
G01X16008Y65532D01*
G01X15362Y65532D02*
G01X14715Y64516D01*
G01X14106Y66456D02*
G01X13644Y64516D01*
G01X13182Y66456D02*
G01X13644Y64516D01*
G01X13182Y66456D02*
G01X12720Y64516D01*
G01X12258Y66456D02*
G01X12720Y64516D01*
G01X10910Y66456D02*
G01X11649Y64516D01*
G01X10910Y66456D02*
G01X10171Y64516D01*
G01X11372Y65163D02*
G01X10448Y65163D01*
G01X9561Y66456D02*
G01X9561Y64516D01*
G01X9561Y64516D02*
G01X8453Y64516D01*
G54D24*
G01X1775Y64427D02*
G01X4669Y64427D01*
G01X4669Y64427D02*
G01X4669Y62773D01*
G01X2739Y61174D02*
G01X2877Y61450D01*
G01X3153Y61725D01*
G01X3566Y61863D01*
G01X3842Y61863D01*
G01X4255Y61725D01*
G01X4531Y61450D01*
G01X4669Y61174D01*
G01X4669Y60761D01*
G01X4531Y60485D01*
G01X4255Y60209D01*
G01X3842Y60072D01*
G01X3566Y60072D01*
G01X3153Y60209D01*
G01X2877Y60485D01*
G01X2739Y60761D01*
G01X2739Y61174D01*
G01X1775Y59162D02*
G01X4669Y59162D01*
G01X1775Y59162D02*
G01X1775Y57922D01*
G01X1913Y57508D01*
G01X2050Y57370D01*
G01X2326Y57233D01*
G01X2602Y57233D01*
G01X2877Y57370D01*
G01X3015Y57508D01*
G01X3153Y57922D01*
G01X3153Y59162D01*
G01X3153Y58197D02*
G01X4669Y57233D01*
G01X2739Y54669D02*
G01X4669Y54669D01*
G01X3153Y54669D02*
G01X2877Y54945D01*
G01X2739Y55220D01*
G01X2739Y55634D01*
G01X2877Y55909D01*
G01X3153Y56185D01*
G01X3566Y56323D01*
G01X3842Y56323D01*
G01X4255Y56185D01*
G01X4531Y55909D01*
G01X4669Y55634D01*
G01X4669Y55220D01*
G01X4531Y54945D01*
G01X4255Y54669D01*
G01X1775Y51637D02*
G01X4669Y51637D01*
G01X1775Y51637D02*
G01X1775Y49845D01*
G01X3153Y51637D02*
G01X3153Y50535D01*
G01X4669Y51637D02*
G01X4669Y49845D01*
G01X1775Y48660D02*
G01X1775Y47144D01*
G01X2877Y47971D01*
G01X2877Y47558D01*
G01X3015Y47282D01*
G01X3153Y47144D01*
G01X3566Y47006D01*
G01X3842Y47006D01*
G01X4255Y47144D01*
G01X4531Y47420D01*
G01X4669Y47833D01*
G01X4669Y48247D01*
G01X4531Y48660D01*
G01X4393Y48798D01*
G01X4118Y48936D01*
G01X2464Y45959D02*
G01X2326Y45959D01*
G01X2050Y45821D01*
G01X1913Y45683D01*
G01X1775Y45408D01*
G01X1775Y44856D01*
G01X1913Y44581D01*
G01X2050Y44443D01*
G01X2326Y44305D01*
G01X2602Y44305D01*
G01X2877Y44443D01*
G01X3291Y44719D01*
G01X4669Y46097D01*
G01X4669Y44167D01*
G01X1775Y41135D02*
G01X4669Y41135D01*
G01X1775Y41135D02*
G01X1775Y39895D01*
G01X1913Y39482D01*
G01X2050Y39344D01*
G01X2326Y39206D01*
G01X2602Y39206D01*
G01X2877Y39344D01*
G01X3015Y39482D01*
G01X3153Y39895D01*
G01X3153Y41135D02*
G01X3153Y39895D01*
G01X3291Y39482D01*
G01X3429Y39344D01*
G01X3704Y39206D01*
G01X4118Y39206D01*
G01X4393Y39344D01*
G01X4531Y39482D01*
G01X4669Y39895D01*
G01X4669Y41135D01*
G01X2739Y38296D02*
G01X4669Y38296D01*
G01X3566Y38296D02*
G01X3153Y38158D01*
G01X2877Y37883D01*
G01X2739Y37607D01*
G01X2739Y37194D01*
G01X3566Y36284D02*
G01X3566Y34630D01*
G01X3291Y34630D01*
G01X3015Y34768D01*
G01X2877Y34906D01*
G01X2739Y35182D01*
G01X2739Y35595D01*
G01X2877Y35871D01*
G01X3153Y36146D01*
G01X3566Y36284D01*
G01X3842Y36284D01*
G01X4255Y36146D01*
G01X4531Y35871D01*
G01X4669Y35595D01*
G01X4669Y35182D01*
G01X4531Y34906D01*
G01X4255Y34630D01*
G01X2739Y32067D02*
G01X4669Y32067D01*
G01X3153Y32067D02*
G01X2877Y32343D01*
G01X2739Y32618D01*
G01X2739Y33032D01*
G01X2877Y33307D01*
G01X3153Y33583D01*
G01X3566Y33721D01*
G01X3842Y33721D01*
G01X4255Y33583D01*
G01X4531Y33307D01*
G01X4669Y33032D01*
G01X4669Y32618D01*
G01X4531Y32343D01*
G01X4255Y32067D01*
G01X1775Y31157D02*
G01X4669Y31157D01*
G01X2739Y29779D02*
G01X4118Y31157D01*
G01X3566Y30606D02*
G01X4669Y29641D01*
G01X2739Y28043D02*
G01X2877Y28318D01*
G01X3153Y28594D01*
G01X3566Y28732D01*
G01X3842Y28732D01*
G01X4255Y28594D01*
G01X4531Y28318D01*
G01X4669Y28043D01*
G01X4669Y27629D01*
G01X4531Y27354D01*
G01X4255Y27078D01*
G01X3842Y26940D01*
G01X3566Y26940D01*
G01X3153Y27078D01*
G01X2877Y27354D01*
G01X2739Y27629D01*
G01X2739Y28043D01*
G01X2739Y26030D02*
G01X4118Y26030D01*
G01X4531Y25893D01*
G01X4669Y25617D01*
G01X4669Y25204D01*
G01X4531Y24928D01*
G01X4118Y24514D01*
G01X2739Y24514D02*
G01X4669Y24514D01*
G01X1775Y23191D02*
G01X4118Y23191D01*
G01X4531Y23054D01*
G01X4669Y22778D01*
G01X4669Y22502D01*
G01X2739Y23605D02*
G01X2739Y22640D01*
G01X1775Y19470D02*
G01X4669Y19470D01*
G01X1775Y19470D02*
G01X1775Y18230D01*
G01X1913Y17817D01*
G01X2050Y17679D01*
G01X2326Y17541D01*
G01X2602Y17541D01*
G01X2877Y17679D01*
G01X3015Y17817D01*
G01X3153Y18230D01*
G01X3153Y19470D02*
G01X3153Y18230D01*
G01X3291Y17817D01*
G01X3429Y17679D01*
G01X3704Y17541D01*
G01X4118Y17541D01*
G01X4393Y17679D01*
G01X4531Y17817D01*
G01X4669Y18230D01*
G01X4669Y19470D01*
G01X2739Y15942D02*
G01X2877Y16218D01*
G01X3153Y16493D01*
G01X3566Y16631D01*
G01X3842Y16631D01*
G01X4255Y16493D01*
G01X4531Y16218D01*
G01X4669Y15942D01*
G01X4669Y15529D01*
G01X4531Y15253D01*
G01X4255Y14977D01*
G01X3842Y14840D01*
G01X3566Y14840D01*
G01X3153Y14977D01*
G01X2877Y15253D01*
G01X2739Y15529D01*
G01X2739Y15942D01*
G01X2739Y12276D02*
G01X4669Y12276D01*
G01X3153Y12276D02*
G01X2877Y12552D01*
G01X2739Y12828D01*
G01X2739Y13241D01*
G01X2877Y13517D01*
G01X3153Y13792D01*
G01X3566Y13930D01*
G01X3842Y13930D01*
G01X4255Y13792D01*
G01X4531Y13517D01*
G01X4669Y13241D01*
G01X4669Y12828D01*
G01X4531Y12552D01*
G01X4255Y12276D01*
G01X2739Y11367D02*
G01X4669Y11367D01*
G01X3566Y11367D02*
G01X3153Y11229D01*
G01X2877Y10953D01*
G01X2739Y10678D01*
G01X2739Y10264D01*
G01X1775Y7701D02*
G01X4669Y7701D01*
G01X3153Y7701D02*
G01X2877Y7976D01*
G01X2739Y8252D01*
G01X2739Y8665D01*
G01X2877Y8941D01*
G01X3153Y9217D01*
G01X3566Y9354D01*
G01X3842Y9354D01*
G01X4255Y9217D01*
G01X4531Y8941D01*
G01X4669Y8665D01*
G01X4669Y8252D01*
G01X4531Y7976D01*
G01X4255Y7701D01*
M00*
M02*
